<?xml version="1.0" encoding="UTF-8" standalone="no"?>
<!-- Created with Inkscape (http://www.inkscape.org/) -->

<svg
   xmlns:dc="http://purl.org/dc/elements/1.1/"
   xmlns:cc="http://creativecommons.org/ns#"
   xmlns:rdf="http://www.w3.org/1999/02/22-rdf-syntax-ns#"
   xmlns:svg="http://www.w3.org/2000/svg"
   xmlns="http://www.w3.org/2000/svg"
   xmlns:xlink="http://www.w3.org/1999/xlink"
   xmlns:sodipodi="http://sodipodi.sourceforge.net/DTD/sodipodi-0.dtd"
   xmlns:inkscape="http://www.inkscape.org/namespaces/inkscape"
   width="510.89719"
   height="272.32346"
   id="svg2"
   sodipodi:version="0.32"
   inkscape:version="0.47 r22583"
   sodipodi:docname="logo.svg"
   inkscape:output_extension="org.inkscape.output.svg.inkscape"
   inkscape:export-filename="/home/male/prog/non-daw/logo-small.png"
   inkscape:export-xdpi="90"
   inkscape:export-ydpi="90"
   version="1.0"
   enable-background="new">
  <defs
     id="defs4">
    <linearGradient
       inkscape:collect="always"
       id="linearGradient4321">
      <stop
         style="stop-color:#ffffff;stop-opacity:1;"
         offset="0"
         id="stop4323" />
      <stop
         style="stop-color:#ffffff;stop-opacity:0;"
         offset="1"
         id="stop4325" />
    </linearGradient>
    <linearGradient
       inkscape:collect="always"
       id="linearGradient4228">
      <stop
         style="stop-color:#ffffff;stop-opacity:1;"
         offset="0"
         id="stop4230" />
      <stop
         style="stop-color:#ffffff;stop-opacity:0;"
         offset="1"
         id="stop4232" />
    </linearGradient>
    <linearGradient
       inkscape:collect="always"
       id="linearGradient4110">
      <stop
         style="stop-color:#ffffff;stop-opacity:1;"
         offset="0"
         id="stop4112" />
      <stop
         style="stop-color:#ffffff;stop-opacity:0;"
         offset="1"
         id="stop4114" />
    </linearGradient>
    <linearGradient
       inkscape:collect="always"
       id="linearGradient3314">
      <stop
         style="stop-color:#ffffff;stop-opacity:1;"
         offset="0"
         id="stop3316" />
      <stop
         style="stop-color:#ffffff;stop-opacity:0;"
         offset="1"
         id="stop3318" />
    </linearGradient>
    <inkscape:perspective
       sodipodi:type="inkscape:persp3d"
       inkscape:vp_x="0 : 526.18109 : 1"
       inkscape:vp_y="0 : 1000 : 0"
       inkscape:vp_z="744.09448 : 526.18109 : 1"
       inkscape:persp3d-origin="372.04724 : 350.78739 : 1"
       id="perspective10" />
    <radialGradient
       inkscape:collect="always"
       xlink:href="#linearGradient3314"
       id="radialGradient3322"
       cx="302.85715"
       cy="705.2193"
       fx="302.85715"
       fy="705.2193"
       r="239.28572"
       gradientTransform="matrix(1,0,0,0.1641791,0,589.43703)"
       gradientUnits="userSpaceOnUse" />
    <filter
       inkscape:collect="always"
       id="filter3524"
       x="-0.13575824"
       width="1.2715164"
       y="-0.82689118"
       height="2.6537824">
      <feGaussianBlur
         inkscape:collect="always"
         stdDeviation="27.070841"
         id="feGaussianBlur3526" />
    </filter>
    <radialGradient
       inkscape:collect="always"
       xlink:href="#linearGradient4110"
       id="radialGradient4116"
       cx="166.29636"
       cy="331.11325"
       fx="166.29636"
       fy="331.11325"
       r="75.382637"
       gradientTransform="matrix(1,0,0,0.08040201,0.5050763,283.78295)"
       gradientUnits="userSpaceOnUse" />
    <filter
       inkscape:collect="always"
       id="filter4222"
       x="-0.027745733"
       width="1.0554914"
       y="-0.34508756"
       height="1.6901751">
      <feGaussianBlur
         inkscape:collect="always"
         stdDeviation="1.7429554"
         id="feGaussianBlur4224" />
    </filter>
    <filter
       inkscape:collect="always"
       id="filter4312"
       x="-0.021853544"
       width="1.0437071"
       y="-0.54542798"
       height="2.0908561">
      <feGaussianBlur
         inkscape:collect="always"
         stdDeviation="1.3774139"
         id="feGaussianBlur4314" />
    </filter>
    <radialGradient
       inkscape:collect="always"
       xlink:href="#linearGradient4228"
       id="radialGradient4317"
       gradientUnits="userSpaceOnUse"
       gradientTransform="matrix(1.0033501,0,0,0.04020101,-1.7003087,208.30468)"
       cx="168.31667"
       cy="215.45081"
       fx="168.31667"
       fy="215.45081"
       r="75.382637" />
    <radialGradient
       inkscape:collect="always"
       xlink:href="#linearGradient4321"
       id="radialGradient4327"
       cx="325"
       cy="314.14789"
       fx="325"
       fy="314.14789"
       r="25.714285"
       gradientTransform="matrix(1,0,0,0.8333334,0,52.35797)"
       gradientUnits="userSpaceOnUse" />
    <inkscape:perspective
       id="perspective3055"
       inkscape:persp3d-origin="0.5 : 0.33333333 : 1"
       inkscape:vp_z="1 : 0.5 : 1"
       inkscape:vp_y="0 : 1000 : 0"
       inkscape:vp_x="0 : 0.5 : 1"
       sodipodi:type="inkscape:persp3d" />
    <filter
       id="filter2996"
       inkscape:label="Black hole"
       inkscape:menu="Morphology"
       inkscape:menu-tooltip="Creates a black light inside and outside"
       height="1.5"
       width="1.5"
       y="-0.25"
       x="-0.25"
       color-interpolation-filters="sRGB">
      <feGaussianBlur
         id="feGaussianBlur2998"
         stdDeviation="5"
         in="SourceAlpha"
         result="result1" />
      <feComposite
         id="feComposite3000"
         in2="result1"
         operator="arithmetic"
         k2="3.2"
         k1="-1"
         k4="-2"
         result="result3" />
      <feColorMatrix
         id="feColorMatrix3002"
         values="1 0 0 0 0 0 1 0 0 0 0 0 1 0 0 0 0 0 10 0 "
         result="result2" />
      <feComposite
         id="feComposite3004"
         in2="result2"
         result="fbSourceGraphic"
         in="SourceGraphic"
         operator="out" />
      <feBlend
         id="feBlend3006"
         in2="fbSourceGraphic"
         mode="multiply"
         in="result1"
         result="result91" />
      <feBlend
         id="feBlend3008"
         in2="result91"
         mode="screen"
         in="fbSourceGraphic" />
    </filter>
  </defs>
  <sodipodi:namedview
     id="base"
     pagecolor="#ffffff"
     bordercolor="#666666"
     borderopacity="1.0"
     gridtolerance="10000"
     guidetolerance="10"
     objecttolerance="10"
     inkscape:pageopacity="0"
     inkscape:pageshadow="2"
     inkscape:zoom="1.4"
     inkscape:cx="344.77509"
     inkscape:cy="44.178583"
     inkscape:document-units="px"
     inkscape:current-layer="layer1"
     showgrid="false"
     showguides="true"
     inkscape:guide-bbox="true"
     inkscape:window-width="1918"
     inkscape:window-height="1059"
     inkscape:window-x="1"
     inkscape:window-y="20"
     borderlayer="false"
     inkscape:window-maximized="0" />
  <metadata
     id="metadata7">
    <rdf:RDF>
      <cc:Work
         rdf:about="">
        <dc:format>image/svg+xml</dc:format>
        <dc:type
           rdf:resource="http://purl.org/dc/dcmitype/StillImage" />
        <dc:title />
      </cc:Work>
    </rdf:RDF>
  </metadata>
  <rect
     style="fill:#a50000;fill-opacity:1;stroke:none;display:inline"
     id="rect3597"
     width="510.89719"
     height="272.32346"
     x="0.50505388"
     y="-1.0402327e-05"
     rx="10.606599"
     ry="163.41496" />
  <rect
     style="fill:url(#radialGradient4317);fill-opacity:1;stroke:none;display:inline;filter:url(#filter4312)"
     id="rect4226"
     width="151.27036"
     height="6.0609159"
     x="91.545074"
     y="213.93556"
     rx="3.6658518"
     ry="4.6712651"
     transform="matrix(2.893352,0,0,2.5949782,-225.91968,-547.1249)" />
  <g
     inkscape:groupmode="layer"
     id="layer5"
     inkscape:label="Layer"
     style="display:inline" />
  <rect
     style="fill:url(#radialGradient4116);fill-opacity:1;stroke:none;display:inline;filter:url(#filter4222)"
     id="rect4108"
     width="150.76527"
     height="12.121831"
     x="91.4188"
     y="304.34421"
     rx="3.6658518"
     ry="4.6712651"
     transform="matrix(2.893352,0,0,2.5949782,-225.91966,-547.1249)" />
  <g
     inkscape:groupmode="layer"
     id="layer4"
     inkscape:label="Box"
     style="display:inline"
     transform="translate(705.05389,101.71135)">
    <g
       id="g3744"
       transform="matrix(1.3795352,0,0,1.3795352,-592.93228,-274.25007)"
       style="fill:#ffe680">
      <path
         style="fill:#ffe680"
         d="m -5.63074,265.35592 c -0.095,11.07414 -0.16754,32.82651 -0.272,37.94456 0,-54.89819 0,-109.79637 0,-164.69456 0.29862,42.24911 0.54528,84.50003 0.272,126.75 z m 25.99976,-8 c -0.093,10.41667 -0.18601,20.83334 -0.27901,31.25 0,-41.66666 0,-83.33333 0,-125 0.30863,31.24872 0.5569,62.50005 0.27901,93.75 z"
         id="path3298" />
      <path
         style="fill:#ffe680"
         d="m -3.6307,259.78133 c -0.0953,10.57336 -0.16762,31.91454 -0.27282,36.51915 -9e-5,-52.56485 -1.8e-4,-105.1297 -2.7e-4,-157.69456 0.30274,40.39083 0.54556,80.78368 0.27309,121.17541 z"
         id="path3296" />
      <path
         style="fill:#ffe680"
         d="m -1.6307,256.78133 c -0.0953,10.57336 -0.16762,31.91454 -0.27282,36.51915 -9e-5,-52.56485 -1.8e-4,-105.1297 -2.7e-4,-157.69456 0.30274,40.39083 0.54556,80.78368 0.27309,121.17541 z"
         id="path3294" />
      <path
         style="fill:#ffe680"
         d="m -6.63089,262.92997 c -0.0971,9.90143 -0.16666,29.31393 -0.27433,33.37051 10e-5,-49.23152 1.9e-4,-98.46304 2.9e-4,-147.69456 0.29872,38.107 0.55022,76.21611 0.27404,114.32405 z"
         id="path3292" />
      <path
         style="fill:#ffe680"
         d="m 17.36922,263.85592 c -0.0911,13.25 -0.18219,26.5 -0.27328,39.75 0,-53 0,-106 0,-159 0.30058,39.74904 0.54734,79.50003 0.27328,119.25 z"
         id="path3290" />
      <path
         style="fill:#ffe680"
         d="m -4.63085,263.93041 c -0.0861,8.68954 -0.19876,36.21196 -0.27321,34.50894 9e-5,-51.61114 1.8e-4,-103.22228 2.7e-4,-154.83343 0.29701,40.10721 0.54834,80.2164 0.27294,120.32449 z"
         id="path3288" />
      <path
         style="fill:#ffe680"
         d="m -0.63077,255.35592 c -0.091,13.41667 -0.18201,26.83334 -0.27302,40.25 0,-53.66666 0,-107.33333 0,-161 0.29988,40.24906 0.54695,80.50003 0.27302,120.75 z"
         id="path3286" />
      <path
         style="fill:#ffe680"
         d="m 18.36921,268.35592 c -0.0868,8.60764 -0.19607,35.50841 -0.27355,34.08343 0,-50.61114 0,-101.22228 0,-151.83343 0.30078,39.24903 0.54783,78.50003 0.27355,117.75 z M 0.36912,259.43008 c -0.088,8.38218 -0.18927,33.78019 -0.27404,33.00928 1e-4,-49.61115 1.9e-4,-99.22229 2.9e-4,-148.83344 0.29853,38.60705 0.5497,77.21618 0.27375,115.82416 z"
         id="path3284" />
      <path
         style="fill:#ffe680"
         d="m -2.6308,255.85592 c -0.0874,8.50591 -0.19288,34.69583 -0.27383,33.58344 0,-49.94448 0,-99.88896 0,-149.83344 0.30153,38.74899 0.54824,77.50008 0.27383,116.25 z"
         id="path3282" />
      <path
         style="fill:#ffe680"
         d="m 19.36919,271.35592 c -0.0879,8.39856 -0.18978,33.89744 -0.27412,33.08343 0,-49.27781 0,-98.55562 0,-147.83343 0.30175,38.249 0.54874,76.50003 0.27412,114.75 z m -2.99995,-14.57369 c -0.0917,12.27457 -0.1834,24.54913 -0.2751,36.82369 -1.2e-4,-48.66666 -2.3e-4,-97.33333 -3.3e-4,-146 0.30707,36.39099 0.54911,72.78429 0.27543,109.17631 z"
         id="path3280" />
      <path
         style="fill:#ffe680"
         d="m 9.36917,255.35592 c -0.0972,9.78182 -0.1669,28.9957 -0.27471,32.94456 0,-48.23152 0,-96.46304 0,-144.69456 0.30276,37.24894 0.5497,74.50008 0.27471,111.75 z"
         id="path3278" />
      <path
         style="fill:#ffe680"
         d="m 2.36916,253.85592 c -0.0971,9.64059 -0.16712,28.62339 -0.27502,32.44456 0,-47.56485 0,-95.1297 0,-142.69456 0.30302,36.74892 0.55025,73.50008 0.27502,110.25 z m 9.00002,-1 c -0.0972,9.92215 -0.16671,29.36936 -0.27441,33.44456 0,-48.89818 0,-97.79637 0,-146.69456 0.30199,37.74896 0.54925,75.50008 0.27441,113.25 z"
         id="path3276" />
      <path
         style="fill:#ffe680"
         d="m 1.36924,257.78223 c -0.0917,12.27457 -0.1834,24.54913 -0.2751,36.82369 -1.2e-4,-48.66666 -2.3e-4,-97.33333 -3.3e-4,-146 0.30707,36.39099 0.54911,72.78429 0.27543,109.17631 z"
         id="path3274" />
      <path
         style="fill:#ffe680"
         d="m 12.36916,253.85592 c -0.0971,9.64059 -0.16712,28.62339 -0.27502,32.44456 0,-47.56485 0,-95.1297 0,-142.69456 0.30302,36.74892 0.55025,73.50008 0.27502,110.25 z m 10.9998,3.57259 c -0.0927,10.72581 -0.18541,21.45161 -0.27811,32.17741 1.4e-4,-43.33333 2.7e-4,-86.66666 4.1e-4,-130 0.30407,32.6063 0.55658,65.21515 0.2777,97.82259 z"
         id="path3272" />
      <path
         style="fill:#ffe680"
         d="m -7.63092,262.78434 c -0.0824,5.63684 -0.2164,29.66539 -0.28047,23.79389 -1.6e-4,-37.3241 -3.1e-4,-74.6482 -4.6e-4,-111.97231 0.31393,29.39137 0.55798,58.78571 0.28093,88.17842 z m 18.0001,-8.92842 c -0.0972,9.92215 -0.16671,29.36936 -0.27441,33.44456 0,-48.89818 0,-97.79637 0,-146.69456 0.30199,37.74896 0.54925,75.50008 0.27441,113.25 z"
         id="path3270" />
      <path
         style="fill:#ffe680"
         d="m 25.36902,255.42909 c -0.0922,11.39228 -0.18441,22.78456 -0.27661,34.17683 1.2e-4,-46 2.5e-4,-92 3.7e-4,-138 0.30186,34.60661 0.55405,69.21549 0.27624,103.82317 z"
         id="path3268" />
      <path
         style="fill:#ffe680"
         d="m 6.36902,253.42909 c -0.0922,11.39228 -0.18441,22.78456 -0.27661,34.17683 1.2e-4,-46 2.5e-4,-92 3.7e-4,-138 0.30185,34.60661 0.55406,69.21549 0.27624,103.82317 z"
         id="path3266" />
      <path
         style="fill:#ffe680"
         d="m 13.36905,254.42936 c -0.0895,7.70494 -0.18838,31.23384 -0.2759,30.01 1.1e-4,-45.61115 2.2e-4,-91.22229 3.3e-4,-136.83344 0.30082,35.60671 0.55289,71.21571 0.27557,106.82344 z m -4.99993,-0.57344 c -0.0892,7.59533 -0.18903,30.90137 -0.27634,29.58344 0,-44.61115 0,-89.22229 0,-133.83344 0.30524,34.74884 0.55238,69.50009 0.27634,104.25 z"
         id="path3264" />
      <path
         style="fill:#ffe680"
         d="m 3.36914,253.85592 c -0.0969,9.35572 -0.16765,27.88233 -0.27566,31.44456 0,-46.23152 0,-92.46304 0,-138.69456 0.3041,35.74888 0.55128,71.50008 0.27566,107.25 z"
         id="path3262" />
      <path
         style="fill:#ffe680"
         d="m 15.36905,254.42936 c -0.0895,7.70494 -0.18838,31.23384 -0.2759,30.01 1.1e-4,-45.61115 2.2e-4,-91.22229 3.3e-4,-136.83344 0.30082,35.60671 0.55289,71.21571 0.27557,106.82344 z"
         id="path3260" />
      <path
         style="fill:#ffe680"
         d="m 4.36904,252.92923 c -0.0892,7.57647 -0.18906,30.84427 -0.27624,29.51013 1.1e-4,-44.94448 2.2e-4,-89.88896 3.3e-4,-134.83344 0.30161,35.10664 0.55342,70.21562 0.27591,105.32331 z"
         id="path3258" />
      <path
         style="fill:#ffe680"
         d="m 24.3691,248.85592 c -0.0886,7.3376 -0.19059,30.12348 -0.27706,28.58344 0,-43.27781 0,-86.55563 0,-129.83344 0.30645,33.7488 0.55354,67.50009 0.27706,101.25 z"
         id="path3256" />
      <path
         style="fill:#ffe680"
         d="m 22.36902,257.35592 c -0.093,10.41667 -0.18601,20.83334 -0.27901,31.25 0,-41.66666 0,-83.33333 0,-125 0.30863,31.24872 0.5569,62.50005 0.27901,93.75 z m -16.99991,-8 c -0.089,7.46658 -0.18979,30.51218 -0.2767,29.08344 0,-43.94448 0,-87.88896 0,-131.83344 0.30556,34.24882 0.55301,68.50009 0.2767,102.75 z"
         id="path3254" />
      <path
         style="fill:#ffe680"
         d="m 26.36899,257.42881 c -0.0881,7.18958 -0.19149,29.67862 -0.27731,28.01055 1.2e-4,-42.94448 2.4e-4,-85.88896 3.6e-4,-128.83344 0.30293,33.60644 0.55528,67.21535 0.27695,100.82289 z m -11.99986,-4.07289 c -0.092,11.75 -0.184,23.5 -0.276,35.25 0,-47 0,-94 0,-141 0.3044,35.24889 0.55187,70.50004 0.276,105.75 z m 16.99939,-3.56622 c -0.091,7.85639 -0.38294,25.72228 -0.29391,7.93341 -2.8e-4,-22.03906 -5.7e-4,-44.07812 -8.4e-4,-66.11719 0.33062,19.39217 0.58628,38.78936 0.29475,58.18378 z m -0.24897,-91.68378 c -2.11254,-1.14858 2.11254,-1.14858 0,0 z"
         id="path3252" />
      <path
         style="fill:#ffe680"
         d="m 7.36906,252.35592 c -0.0874,6.94972 -0.19333,28.95956 -0.27821,27.08344 0,-41.27781 0,-82.55562 0,-123.83344 0.30807,32.24876 0.55548,64.50005 0.27821,96.75 z"
         id="path3250" />
      <path
         style="fill:#ffe680"
         d="m 27.36851,252.85592 c -0.0781,6.90368 -0.35116,28.18301 -0.29005,10.55607 0,-25.26869 0,-50.53738 0,-75.80607 0.31835,21.74803 0.58167,43.50007 0.29005,65.25 z"
         id="path3248" />
      <path
         style="fill:#ffe680"
         d="m 21.36899,258.35592 c -0.0933,10.08334 -0.18659,20.16667 -0.27988,30.25 0,-40.33333 0,-80.66666 0,-121 0.31006,30.24866 0.55834,60.50005 0.27988,90.75 z m 12.99985,-2.5 c -0.0772,4.43868 -0.2441,29.61666 -0.28337,19.86118 0,-33.37039 0,-66.74078 0,-100.11118 0.31238,26.74847 0.56433,53.50005 0.28337,80.25 z"
         id="path3246" />
      <path
         style="fill:#ffe680"
         d="m -8.63159,259.79052 c -0.0891,7.41442 -0.38722,24.455 -0.29591,7.54197 -3.2e-4,-20.90886 -6.3e-4,-41.81771 -8.3e-4,-62.72657 0.334,18.39233 0.5898,36.78983 0.29674,55.1846 z"
         id="path3244" />
      <path
         style="fill:#ffe680"
         d="m 52.27323,276.10592 c -1.91692,-26.75403 -2.59357,-53.67637 -0.21033,-80.42429 0.64955,26.78669 0.50938,53.62811 0.21033,80.42429 z"
         id="path3242" />
      <path
         style="fill:#ffe680"
         d="m 38.36882,259.35592 c -0.0717,4.70307 -0.28323,31.96922 -0.28394,17.63893 0,-32.12964 0,-64.25928 0,-96.38893 0.31201,26.24844 0.56576,52.50005 0.28394,78.75 z"
         id="path3240" />
      <path
         style="fill:#ffe680"
         d="m 35.36887,257.35592 c -0.0716,5.26059 -0.29378,33.93162 -0.28283,17.7778 0,-33.17593 0,-66.35186 0,-99.5278 0.31111,27.2485 0.56348,54.50005 0.28283,81.75 z"
         id="path3238" />
      <path
         style="fill:#ffe680"
         d="m 37.37899,236.81018 c -0.95419,15.63862 1.42247,31.48045 -1.24502,46.9918 -1.14231,-34.37727 0.046,-68.79926 -0.31348,-103.19606 3.87514,18.52971 0.65033,37.48573 1.5585,56.20426 z m -48.01089,22.54574 c -0.0779,7.17111 -0.38467,22.90482 -0.29656,7.05607 0,-20.60202 0,-41.20405 0,-61.80607 0.32748,18.2475 0.59315,36.5001 0.29656,54.75 z"
         id="path3236" />
      <path
         style="fill:#ffe680"
         d="m 39.36863,256.35592 c -0.0624,10.44069 -0.32085,22.16199 -0.28778,6.88931 0,-25.54644 0,-51.09287 0,-76.63931 0.31544,23.24819 0.57771,46.50007 0.28778,69.75 z m -5.99987,-4 c -0.0853,7.39361 -0.33178,33.6416 -0.28513,13.19494 0,-29.64831 0,-59.29662 0,-88.94494 0.31144,25.24837 0.5731,50.50006 0.28513,75.75 z"
         id="path3234" />
      <path
         style="fill:#ffe680"
         d="m -12.63368,251.85592 c -0.35138,16.28517 -0.33742,-2.37872 -0.31671,-8.91623 0,-8.77792 0,-17.55584 0,-26.33377 0.34646,11.74564 0.63582,23.50018 0.31671,35.25 z"
         id="path3232" />
      <path
         style="fill:#ffe680"
         d="m 32.3687,248.35592 c -0.0857,7.47659 -0.33838,32.28779 -0.28641,12.19494 0,-28.31498 0,-56.62996 0,-84.94494 0.31337,24.24829 0.57532,48.50006 0.28641,72.75 z"
         id="path3230" />
      <path
         style="fill:#ffe680"
         d="m -11.6318,249.92324 c -0.0775,6.97974 -0.359,26.64315 -0.29139,9.48875 2.6e-4,-24.26869 5.2e-4,-48.53738 7.8e-4,-72.80607 0.31352,21.10379 0.58601,42.21161 0.29061,63.31732 z"
         id="path3228" />
      <path
         style="fill:#ffe680"
         d="m 40.36824,257.35592 c -0.0789,7.09825 -0.37568,24.50263 -0.2945,8.05607 0,-21.93536 0,-43.87071 0,-65.80607 0.32443,19.24769 0.58952,38.50008 0.2945,57.75 z"
         id="path3226" />
      <path
         style="fill:#ffe680"
         d="m 28.36764,254.29542 c -0.0837,8.15528 -0.43541,15.58144 -0.30181,3.16891 0.0695,-11.43285 -0.1724,-36.65949 0.11412,-39.81105 0.2817,12.21131 0.45066,24.42893 0.18769,36.64214 z"
         id="path3224" />
      <path
         style="fill:#ffe680"
         d="m 206.36841,254.79052 c -0.0891,7.41442 -0.38722,24.455 -0.29591,7.54197 -3.2e-4,-20.90886 -6.3e-4,-41.81771 -8.3e-4,-62.72657 0.334,18.39233 0.5898,36.78983 0.29674,55.1846 z"
         id="path3222" />
      <path
         style="fill:#ffe680"
         d="m 53.36785,249.85592 c -0.10002,5.58334 -0.20003,11.16667 -0.30005,16.75 0,-22.33333 0,-44.66666 0,-67 0.33202,16.74721 0.59939,33.50011 0.30005,50.25 z"
         id="path3220" />
      <path
         style="fill:#ffe680"
         d="m 208.36835,255.29095 c -0.0894,7.21304 -0.38859,23.80694 -0.29699,7.34622 -3.4e-4,-20.34375 -6.6e-4,-40.6875 -8.2e-4,-61.03125 0.33521,17.89236 0.59182,35.79013 0.29781,53.68503 z m -6.00068,0.12947 c -0.0902,7.08842 -0.39551,22.14759 -0.29838,6.52144 3.5e-4,-19.77864 6.7e-4,-39.55729 8.2e-4,-59.33594 0.3219,17.60231 0.59848,35.20977 0.29756,52.8145 z"
         id="path3218" />
      <path
         style="fill:#ffe680"
         d="m 205.36835,255.29095 c -0.0894,7.21304 -0.38859,23.80694 -0.29699,7.34622 -3.4e-4,-20.34375 -6.5e-4,-40.6875 -8.2e-4,-61.03125 0.33521,17.89236 0.59182,35.79013 0.29781,53.68503 z M 30.36764,254.29542 c -0.0837,8.15528 -0.43541,15.58144 -0.30181,3.16891 0.0695,-11.43285 -0.1724,-36.65949 0.11412,-39.81105 0.2817,12.21131 0.45066,24.42893 0.18769,36.64214 z"
         id="path3216" />
      <path
         style="fill:#ffe680"
         d="m 41.3681,255.35592 c -0.0779,7.17111 -0.38467,22.90482 -0.29656,7.05607 0,-20.60202 0,-41.20405 0,-61.80607 0.32748,18.2475 0.59315,36.5001 0.29656,54.75 z m 169.99993,-0.5 c -0.0774,7.21283 -0.38937,22.08534 -0.29768,6.55607 0,-19.93536 0,-39.87071 0,-59.80607 0.32855,17.74742 0.59521,35.50011 0.29768,53.25 z m -47.00197,-9.5 c -0.37216,16.06082 -0.33138,-4.00408 -0.319,-10.27729 0,-7.82423 0,-15.64847 0,-23.4727 0.35065,11.24524 0.63995,22.50034 0.319,33.74999 z"
         id="path3214" />
      <path
         style="fill:#ffe680"
         d="m 210.36767,254.42042 c -0.0902,7.08842 -0.39551,22.14759 -0.29838,6.52144 3.5e-4,-19.77864 6.7e-4,-39.55729 8.2e-4,-59.33594 0.3219,17.60231 0.59848,35.20977 0.29756,52.8145 z m -45.00022,-1.00099 c -0.10034,5.3955 -0.20069,10.791 -0.30103,16.18649 4.6e-4,-22 9.2e-4,-44 0.001,-66 0.32498,16.60172 0.60278,33.2092 0.30003,49.81351 z"
         id="path3212" />
      <path
         style="fill:#ffe680"
         d="m 42.36794,255.35592 c -0.0996,5.75 -0.19922,11.5 -0.29883,17.25 0,-23 0,-46 0,-69 0.33085,17.24731 0.59714,34.50011 0.29883,51.75 z m -78.0003,-8.0605 c -0.0837,8.15528 -0.43541,15.58144 -0.30181,3.16891 0.0695,-11.43285 -0.1724,-36.65949 0.11412,-39.81105 0.2817,12.21131 0.45066,24.42893 0.18769,36.64214 z m 19.99629,1.11244 c -0.50855,13.85636 -0.28717,-11.53334 -0.32684,-16.35334 -0.004,-6.45818 -0.0662,-17.65777 0.2461,-5.25036 0.21912,7.19841 0.33294,14.40465 0.0807,21.6037 z m -0.24438,-50.30194 c -2.11254,-1.14858 2.11254,-1.14858 0,0 z"
         id="path3210" />
      <path
         style="fill:#ffe680"
         d="m 200.36803,255.85592 c -0.0774,7.21283 -0.38937,22.08534 -0.29768,6.55607 0,-19.93536 0,-39.87071 0,-59.80607 0.32855,17.74742 0.59521,35.50011 0.29768,53.25 z M -9.63178,255.2919 c -0.0997,5.77134 -0.19941,11.54268 -0.29911,17.31402 -4.4e-4,-22.66666 -8.8e-4,-45.33333 -10e-4,-68 0.33908,16.89246 0.59587,33.79078 0.30011,50.68598 z m 212.99945,-0.87148 c -0.0902,7.08842 -0.39551,22.14759 -0.29838,6.52144 3.5e-4,-19.77864 6.7e-4,-39.55729 8.2e-4,-59.33594 0.3219,17.60231 0.59848,35.20977 0.29756,52.8145 z m -13.00022,-9.9e-4 c -0.10034,5.3955 -0.20069,10.791 -0.30103,16.18649 4.6e-4,-22 9.2e-4,-44 0.001,-66 0.32498,16.60172 0.60278,33.2092 0.30003,49.81351 z m 17.0004,-1.56351 c -0.10002,5.58334 -0.20003,11.16667 -0.30005,16.75 0,-22.33333 0,-44.66666 0,-67 0.33202,16.74721 0.59939,33.50011 0.30005,50.25 z m -33.00032,-1.5 c -0.0527,7.85923 -0.42167,16.49734 -0.3041,4.05607 0,-16.60202 0,-33.20404 0,-49.80607 0.33536,15.24687 0.60676,30.50012 0.3041,45.75 z"
         id="path3208" />
      <path
         style="fill:#ffe680"
         d="m 186.23618,272.10592 c -3.589,-20.90939 -0.55386,-42.23625 -1.63835,-63.25783 3.32613,-10.31006 1.60262,14.28364 2.0003,18.68847 0.0268,14.85679 0.14465,29.7184 -0.36195,44.56936 z"
         id="path3206" />
      <path
         style="fill:#ffe680"
         d="m 204.36822,255.2919 c -0.0997,5.77134 -0.19941,11.54268 -0.29911,17.31402 -4.4e-4,-22.66666 -8.8e-4,-45.33333 -0.001,-68 0.33908,16.89241 0.59587,33.79086 0.30011,50.68598 z m 4.99923,1.12753 c -0.10034,5.3955 -0.20069,10.791 -0.30103,16.18649 4.6e-4,-22 9.2e-4,-44 0.001,-66 0.32498,16.60172 0.60278,33.2092 0.30003,49.81351 z m 3.00049,-2.06351 c -0.0996,5.75 -0.19922,11.5 -0.29883,17.25 0,-23 0,-46 0,-69 0.33085,17.24731 0.59714,34.50011 0.29883,51.75 z m -67.00018,-2 c -0.10045,5.41667 -0.20089,10.83334 -0.30134,16.25 0,-21.66666 0,-43.33333 0,-65 0.33333,16.2471 0.60178,32.50012 0.30134,48.75 z m 50.99951,-1 c -0.0675,10.55315 -0.43712,11.61457 -0.3072,1.33389 0,-14.69463 0,-29.38926 0,-44.08389 0.33979,14.24656 0.6123,28.50013 0.3072,42.75 z"
         id="path3204" />
      <path
         style="fill:#ffe680"
         d="m 189.38328,238.73901 c -1.24173,8.34798 2.30172,30.68693 -2.48094,29.45439 -0.56284,-21.79237 -0.15676,-43.6768 -0.28279,-65.51605 6.85146,10.86847 0.91199,24.25343 2.76373,36.06166 z m 11.98457,17.11691 c -0.10002,5.58334 -0.20003,11.16667 -0.30005,16.75 0,-22.33333 0,-44.66666 0,-67 0.33202,16.74721 0.59939,33.50011 0.30005,50.25 z m -158.0004,-1.43649 c -0.10034,5.3955 -0.20069,10.791 -0.30103,16.18649 4.6e-4,-22 9.2e-4,-44 10e-4,-66 0.32498,16.60178 0.60278,33.20911 0.30003,49.81351 z m 186.99996,1.43649 c -0.0514,8.19493 -0.42766,15.72447 -0.30561,3.55607 0,-15.93535 0,-31.87071 0,-47.80607 0.3383,14.74671 0.60927,29.50013 0.30561,44.25 z m -16.99956,-4 c -0.10002,5.58334 -0.20003,11.16667 -0.30005,16.75 0,-22.33333 0,-44.66666 0,-67 0.33202,16.74721 0.59939,33.50011 0.30005,50.25 z"
         id="path3202" />
      <path
         style="fill:#ffe680"
         d="m 144.28622,269.10592 c -3.69826,-11.45957 -0.92169,-23.84607 -1.66667,-35.77654 0,-9.70181 0,-19.40362 0,-29.10542 5.02232,18.99089 0.29494,38.88198 1.83136,58.23399 l -0.0739,3.3242 -0.0908,3.32377 0,0 z m 70.08154,-19.75 c -0.10045,5.41667 -0.20089,10.83334 -0.30134,16.25 0,-21.66666 0,-43.33333 0,-65 0.33333,16.2471 0.60178,32.50012 0.30134,48.75 z m -271.00271,-3.5 c -0.4984,14.73735 -0.28993,-10.52262 -0.32692,-16.94359 0.009,-5.71246 -0.0881,-18.69792 0.2492,-4.99627 0.21938,7.31059 0.32336,14.62847 0.0777,21.93986 z"
         id="path3200" />
      <path
         style="fill:#ffe680"
         d="m 150.36806,253.29295 c -0.10055,5.43766 -0.20109,10.87532 -0.30164,16.31297 -4.9e-4,-21.33333 -9.7e-4,-42.66666 -0.001,-64 0.34339,15.89256 0.60038,31.79149 0.30264,47.68703 z m 41.99884,-0.87586 c -0.0172,6.78776 -0.44729,15.5883 -0.30652,3.6733 0.0405,-13.15026 -0.0794,-40.70324 0.0632,-44.74681 0.30162,13.68822 0.53404,27.38334 0.24336,41.07351 z m -220.99995,-3.06117 c -0.35197,17.26156 -0.32821,-4.06617 -0.31066,-10.86049 0,-9.62984 0,-19.25967 0,-28.88951 0.34256,13.24624 0.61848,26.50014 0.31066,39.75 z"
         id="path3198" />
      <path
         style="fill:#ffe680"
         d="m 183.36765,252.85592 c -0.1009,5.25 -0.20179,10.5 -0.30269,15.75 0,-21 0,-42 0,-63 0.33589,15.74696 0.60404,31.50012 0.30269,47.25 z m -34,-1 c -0.1009,5.25 -0.20179,10.5 -0.30269,15.75 0,-21 0,-42 0,-63 0.33589,15.74696 0.60404,31.50012 0.30269,47.25 z m 27.99925,1.56117 c -0.0172,6.78776 -0.44729,15.5883 -0.30652,3.6733 0.0405,-13.15026 -0.0794,-40.70324 0.0632,-44.74681 0.30162,13.68822 0.53404,27.38334 0.24336,41.07351 z M 54.36764,250.29542 c -0.0837,8.15528 -0.43541,15.58144 -0.30181,3.16891 0.0695,-11.43285 -0.1724,-36.65949 0.11412,-39.81105 0.2817,12.21131 0.45066,24.42893 0.18769,36.64214 z m -89.00013,-0.49929 c -0.0853,7.91594 -0.43642,14.98984 -0.30347,3.01554 0.0704,-10.94604 -0.17423,-35.35593 0.11511,-38.33996 0.28389,11.77194 0.45382,23.55042 0.18836,35.32442 z m 250.00002,-1.44021 c -0.0527,7.85923 -0.42167,16.49734 -0.3041,4.05607 0,-16.60202 0,-33.20404 0,-49.80607 0.33536,15.24687 0.60676,30.50012 0.3041,45.75 z m -73.00743,-3.45625 c -0.70577,10.58357 -0.38137,-32.52031 -0.02,-14.1052 0.0561,4.69694 0.38548,9.41568 0.02,14.1052 z"
         id="path3196" />
      <path
         style="fill:#ffe680"
         d="m 166.36806,252.29295 c -0.10055,5.43766 -0.20109,10.87532 -0.30164,16.31297 -4.9e-4,-21.33333 -9.7e-4,-42.66666 -0.001,-64 0.34339,15.89256 0.60038,31.79149 0.30264,47.68703 z m 17.9997,0.063 c -0.10045,5.41667 -0.20089,10.83334 -0.30134,16.25 0,-21.66666 0,-43.33333 0,-65 0.33333,16.24704 0.60178,32.50021 0.30134,48.75 z m 65.00011,-0.0618 c -0.0924,8.51647 -0.42377,17.54577 -0.30475,3.82423 -4.3e-4,-16.17081 -9.1e-4,-32.34161 -0.002,-48.51242 0.34697,14.89256 0.60396,29.79274 0.30666,44.68819 z m -304.00155,-0.3792 c -0.044,6.41394 -0.44951,14.1269 -0.31176,3.17728 0.0876,-10.77418 -0.16776,-34.79142 0.1196,-37.7272 0.27604,11.51379 0.46869,23.03418 0.19216,34.54992 z m 172.99944,-3.05903 c -0.44429,13.90131 -0.30698,-10.07024 -0.32145,-15.94359 0,-5.43547 0,-10.87094 0,-16.30641 0.35292,10.74496 0.64448,21.50036 0.32145,32.25 z m -74.00093,-0.44565 c -0.61262,14.73004 -0.21037,-15.25554 -0.32199,-20.5629 -0.10831,-5.89844 0.0779,-13.77338 0.24138,-3.29199 0.21527,7.94916 0.32755,15.90504 0.0806,23.85489 z"
         id="path3194" />
      <path
         style="fill:#ffe680"
         d="m 191.36806,253.29295 c -0.10055,5.43766 -0.20109,10.87532 -0.30164,16.31297 -4.9e-4,-21.33333 -9.7e-4,-42.66666 -0.001,-64 0.34339,15.89256 0.60038,31.79149 0.30264,47.68703 z m 54.99935,-0.43703 c -0.0514,8.19493 -0.42766,15.72447 -0.30561,3.55607 0,-15.93535 0,-31.87071 0,-47.80607 0.3383,14.74671 0.60927,29.50013 0.30561,44.25 z m -99.99954,-1.56181 c -0.0924,8.51647 -0.42377,17.54577 -0.30475,3.82423 -4.3e-4,-16.17081 -9.1e-4,-32.34161 -0.002,-48.51242 0.34698,14.89256 0.60396,29.79274 0.30666,44.68819 z m 6.25168,13.81181 c -2.41448,-17.84247 -0.19555,-35.99156 -1.04981,-53.88329 3.53527,-8.46321 1.54444,14.76544 2.00729,18.53418 -0.69255,11.55029 1.43099,24.33073 -0.95748,35.34911 z m 14.74786,-13.25 c -0.0514,8.19493 -0.42766,15.72447 -0.30561,3.55607 0,-15.93535 0,-31.87071 0,-47.80607 0.3383,14.74671 0.60927,29.50013 0.30561,44.25 z m 9.00012,-0.5 c -0.0527,7.85923 -0.42167,16.49734 -0.3041,4.05607 0,-16.60202 0,-33.20404 0,-49.80607 0.33536,15.24687 0.60676,30.50012 0.3041,45.75 z m -5.00012,-0.5 c -0.0514,8.19493 -0.42766,15.72447 -0.30561,3.55607 0,-15.93535 0,-31.87071 0,-47.80607 0.3383,14.74671 0.60927,29.50013 0.30561,44.25 z m 45.00024,-1 c -0.1009,5.25 -0.20179,10.5 -0.30269,15.75 0,-21 0,-42 0,-63 0.33589,15.74696 0.60404,31.50012 0.30269,47.25 z m -271.99978,-3.56181 c -0.0924,8.51647 -0.42377,17.54577 -0.30475,3.82423 -4.3e-4,-16.17081 -9.1e-4,-32.34161 -0.002,-48.51242 0.34698,14.89256 0.60396,29.79274 0.30666,44.68819 z m 103.99176,-3.4747 c -0.91375,8.08848 -0.24325,-27.17984 0.14704,-6.70623 0.0247,2.23627 -0.0318,4.47298 -0.14704,6.70623 z m -0.24008,-39.71349 c -2.11254,-1.14858 2.11254,-1.14858 0,0 z"
         id="path3192" />
      <path
         style="fill:#ffe680"
         d="m 151.36741,252.85592 c -0.0514,8.19493 -0.42766,15.72447 -0.30561,3.55607 0,-15.93535 0,-31.87071 0,-47.80607 0.3383,14.74671 0.60927,29.50013 0.30561,44.25 z m 22.00012,-0.5 c -0.0527,7.85923 -0.42167,16.49734 -0.3041,4.05607 0,-16.60202 0,-33.20404 0,-49.80607 0.33536,15.24687 0.60676,30.50012 0.3041,45.75 z m 75,0 c -0.0527,7.85923 -0.42167,16.49734 -0.3041,4.05607 0,-16.60202 0,-33.20404 0,-49.80607 0.33536,15.24687 0.60676,30.50012 0.3041,45.75 z m -99.99966,-1.06181 c -0.0924,8.51647 -0.42377,17.54577 -0.30475,3.82423 -4.3e-4,-16.17081 -9.1e-4,-32.34161 -0.002,-48.51242 0.34698,14.89256 0.60396,29.79274 0.30666,44.68819 z m 20.99903,0.12298 c -0.0172,6.78776 -0.44729,15.5883 -0.30652,3.6733 0.0405,-13.15026 -0.0794,-40.70324 0.0632,-44.74681 0.30162,13.68822 0.53404,27.38334 0.24336,41.07351 z m 13.00051,-0.56117 c -0.0514,8.19493 -0.42766,15.72447 -0.30561,3.55607 0,-15.93535 0,-31.87071 0,-47.80607 0.3383,14.74671 0.60927,29.50013 0.30561,44.25 z m 11.99986,0.5 c -0.0675,10.55315 -0.43712,11.61457 -0.3072,1.33389 0,-14.69463 0,-29.38926 0,-44.08389 0.33979,14.24656 0.6123,28.50013 0.3072,42.75 z"
         id="path3190" />
      <path
         style="fill:#ffe680"
         d="m 229.38519,241.67156 c -0.82425,5.87682 1.23789,25.87608 -1.30721,24.26861 -0.9574,-18.39819 -0.22415,-36.82384 -0.45843,-55.23425 4.66625,9.74575 0.47754,20.71332 1.76564,30.96564 z m -57.01778,11.18436 c -0.0514,8.19493 -0.42766,15.72447 -0.30561,3.55607 0,-15.93535 0,-31.87071 0,-47.80607 0.3383,14.74671 0.60927,29.50013 0.30561,44.25 z m 7.99986,-1.5 c -0.0675,10.55315 -0.43712,11.61457 -0.3072,1.33389 0,-14.69463 0,-29.38926 0,-44.08389 0.33979,14.24656 0.6123,28.50013 0.3072,42.75 z m 37,-1 c -0.0675,10.55315 -0.43712,11.61457 -0.3072,1.33389 0,-14.69463 0,-29.38926 0,-44.08389 0.33979,14.24656 0.6123,28.50013 0.3072,42.75 z m -161.00032,0 c -0.35197,17.26156 -0.32821,-4.06617 -0.31066,-10.86049 0,-9.62984 0,-19.25967 0,-28.88951 0.34256,13.24624 0.61848,26.50014 0.31066,39.75 z"
         id="path3188" />
      <path
         style="fill:#ffe680"
         d="m 247.36741,251.85592 c -0.0514,8.19493 -0.42766,15.72447 -0.30561,3.55607 0,-15.93535 0,-31.87071 0,-47.80607 0.3383,14.74671 0.60927,29.50013 0.30561,44.25 z m -89.00014,-0.5 c -0.0675,10.55315 -0.43712,11.61457 -0.3072,1.33389 0,-14.69463 0,-29.38926 0,-44.08389 0.33979,14.24656 0.6123,28.50013 0.3072,42.75 z m 16.99963,-1.93883 c -0.0172,6.78776 -0.44729,15.5883 -0.30652,3.6733 0.0405,-13.15026 -0.0794,-40.70324 0.0632,-44.74681 0.30162,13.68822 0.53404,27.38334 0.24336,41.07351 z"
         id="path3186" />
      <path
         style="fill:#ffe680"
         d="m 227.36727,253.35592 c -0.0675,10.55315 -0.43712,11.61457 -0.3072,1.33389 0,-14.69463 0,-29.38926 0,-44.08389 0.33979,14.24656 0.6123,28.50013 0.3072,42.75 z m -80,-2 c -0.0675,10.55315 -0.43712,11.61457 -0.3072,1.33389 0,-14.69463 0,-29.38926 0,-44.08389 0.33979,14.24656 0.6123,28.50013 0.3072,42.75 z m 8.00037,-1.0605 c -0.0837,8.15528 -0.43541,15.58144 -0.30181,3.16891 0.0695,-11.43285 -0.1724,-36.65949 0.11412,-39.81105 0.2817,12.21131 0.45066,24.42893 0.18769,36.64214 z"
         id="path3184" />
      <path
         style="fill:#ffe680"
         d="m 178.61955,266.10592 c -2.11212,-17.34306 -0.53207,-35.02096 -1,-52.52667 3.52878,-2.28521 1.54054,17.72578 2,24.82397 0,9.23424 0,18.46847 0,27.7027 l -0.86106,0 -0.13894,0 z m 52.7474,-12.75 c -0.35197,17.26156 -0.32821,-4.06617 -0.31066,-10.86049 0,-9.62984 0,-19.25967 0,-28.88951 0.34256,13.24624 0.61848,26.50014 0.31066,39.75 z m 19.00032,-1 c -0.0675,10.55315 -0.43712,11.61457 -0.3072,1.33389 0,-14.69463 0,-29.38926 0,-44.08389 0.33979,14.24656 0.6123,28.50013 0.3072,42.75 z m -93,-1 c -0.0675,10.55315 -0.43712,11.61457 -0.3072,1.33389 0,-14.69463 0,-29.38926 0,-44.08389 0.33979,14.24656 0.6123,28.50013 0.3072,42.75 z m 61.00037,-0.0605 c -0.0837,8.15528 -0.43541,15.58144 -0.30181,3.16891 0.0695,-11.43285 -0.1724,-36.65949 0.11412,-39.81105 0.2817,12.21131 0.45066,24.42893 0.18769,36.64214 z m 25.99963,0.0605 c -0.0675,10.55315 -0.43712,11.61457 -0.3072,1.33389 0,-14.69463 0,-29.38926 0,-44.08389 0.33979,14.24656 0.6123,28.50013 0.3072,42.75 z m -76.00015,-0.5 c -0.32664,17.35411 -0.33979,-2.4016 -0.30888,-9.49936 0,-10.58355 0,-21.16709 0,-31.75063 0.3392,13.74636 0.61548,27.50024 0.30888,41.24999 z m 2,-2 c -0.32664,17.35411 -0.33979,-2.4016 -0.30888,-9.49936 0,-10.58355 0,-21.16709 0,-31.75063 0.3392,13.74636 0.61548,27.50024 0.30888,41.24999 z m 11.00052,-0.5605 c -0.0837,8.15528 -0.43541,15.58144 -0.30181,3.16891 0.0695,-11.43285 -0.1724,-36.65949 0.11412,-39.81105 0.2817,12.21131 0.45066,24.42893 0.18769,36.64214 z"
         id="path3182" />
      <path
         style="fill:#ffe680"
         d="m 245.3669,252.41709 c -0.0172,6.78776 -0.44729,15.5883 -0.30652,3.6733 0.0405,-13.15026 -0.0794,-40.70324 0.0632,-44.74681 0.30162,13.68822 0.53404,27.38334 0.24336,41.07351 z m -88.99926,-1.12167 c -0.0837,8.15528 -0.43541,15.58144 -0.30181,3.16891 0.0695,-11.43285 -0.1724,-36.65949 0.11412,-39.81105 0.2817,12.21131 0.45066,24.42893 0.18769,36.64214 z m 2.99948,-0.4395 c -0.32664,17.35411 -0.33979,-2.4016 -0.30888,-9.49936 0,-10.58355 0,-21.16709 0,-31.75063 0.3392,13.74636 0.61548,27.50024 0.30888,41.24999 z m 33.99983,0.5 c -0.35197,17.26156 -0.32821,-4.06617 -0.31066,-10.86049 0,-9.62984 0,-19.25967 0,-28.88951 0.34256,13.24624 0.61848,26.50014 0.31066,39.75 z m 49.99981,0.5 c -0.0973,9.32666 -0.43884,10.26323 -0.31255,0.69497 0,-12.98166 0,-25.96331 0,-38.94497 0.34259,12.74608 0.62347,25.50014 0.31255,38.25 z m -272.99981,-1.5 c -0.35197,17.26156 -0.32821,-4.06617 -0.31066,-10.86049 0,-9.62984 0,-19.25967 0,-28.88951 0.34256,13.24624 0.61848,26.50014 0.31066,39.75 z m 184.00069,-2.0605 c -0.0837,8.15528 -0.43541,15.58144 -0.30181,3.16891 0.0695,-11.43285 -0.1724,-36.65949 0.11412,-39.81105 0.2817,12.21131 0.45066,24.42893 0.18769,36.64214 z"
         id="path3180" />
      <path
         style="fill:#ffe680"
         d="m 219.3675,250.79613 c -0.0854,7.91594 -0.4364,14.98984 -0.30346,3.01554 0.0704,-10.94604 -0.17423,-35.35593 0.11511,-38.33996 0.28389,11.77194 0.45383,23.55042 0.18835,35.32442 z m 21.99969,1.00157 c -0.10275,9.5665 -0.46129,12.24897 -0.30722,1.29447 0.0715,-9.60975 -0.17642,-31.75227 0.11636,-33.98364 0.2875,10.89318 0.4646,21.79377 0.19086,32.68917 z m -186,-1 c -0.10275,9.5665 -0.46129,12.24897 -0.30722,1.29447 0.0715,-9.60975 -0.17642,-31.75227 0.11636,-33.98364 0.2875,10.89318 0.4646,21.79377 0.19086,32.68917 z m 196.25236,10.80822 c -2.01229,-12.85355 -0.36231,-26.23628 -0.85943,-39.33223 0.078,-4.36657 -0.42815,-16.87984 1.01904,-4.5785 1.90121,14.57716 0.63936,29.30446 -0.15961,43.91073 z m -278.2526,-12.25 c -0.35197,17.26156 -0.32821,-4.06617 -0.31066,-10.86049 0,-9.62984 0,-19.25967 0,-28.88951 0.34256,13.24624 0.61848,26.50014 0.31066,39.75 z m 221.99981,0.5 c -0.0973,9.32666 -0.43884,10.26323 -0.31255,0.69497 0,-12.98166 0,-25.96331 0,-38.94497 0.34259,12.74608 0.62347,25.50014 0.31255,38.25 z M -22.63281,248.7977 c -0.10275,9.5665 -0.46129,12.24897 -0.30722,1.29447 0.0715,-9.60975 -0.17642,-31.75227 0.11636,-33.98364 0.2875,10.89318 0.4646,21.79377 0.19086,32.68917 z m 249,0 c -0.10275,9.5665 -0.46129,12.24897 -0.30722,1.29447 0.0715,-9.60975 -0.17642,-31.75227 0.11636,-33.98364 0.2875,10.89318 0.4646,21.79377 0.19086,32.68917 z M 50.35963,242.81941 c -0.91375,8.08848 -0.24325,-27.17984 0.14704,-6.70623 0.0247,2.23627 -0.0318,4.47298 -0.14704,6.70623 z"
         id="path3178" />
      <path
         style="fill:#ffe680"
         d="m 29.36712,253.85592 c -0.32664,17.35411 -0.33979,-2.4016 -0.30888,-9.49936 0,-10.58355 0,-21.16709 0,-31.75063 0.3392,13.74636 0.61548,27.50024 0.30888,41.24999 z m -61.00017,-3.5 c -0.35197,17.26156 -0.32821,-4.06617 -0.31066,-10.86049 0,-9.62984 0,-19.25967 0,-28.88951 0.34256,13.24624 0.61848,26.50014 0.31066,39.75 z m 8.01989,-12.22366 c -0.0891,8.38071 -0.17819,16.76142 -0.26729,25.14213 -3.63414,-16.13984 -0.23055,-32.80066 -1.5015,-49.1518 3.36275,-6.49882 1.45124,16.76162 1.78673,21.31729 l -0.0179,2.69238 z m -13.02003,10.66724 c -0.19319,12.24763 -0.44512,6.37944 -0.30864,-1.95081 0.0513,-7.15659 -0.1615,-31.02801 0.11576,-28.1034 0.29244,10.01448 0.46946,20.03723 0.19288,30.05421 z m 152,-2 c -0.19318,12.24763 -0.44511,6.37944 -0.30863,-1.95081 0.0513,-7.15659 -0.1615,-31.02801 0.11576,-28.1034 0.29244,10.01448 0.46947,20.03723 0.19287,30.05421 z m 44.99519,0.1039 c -0.82581,9.4352 -0.12645,-27.60432 -0.20369,-21.29464 0.30149,7.09217 0.51484,14.19924 0.20369,21.29464 z"
         id="path3176" />
      <path
         style="fill:#ffe680"
         d="m -53.63368,252.91495 c -0.044,6.41394 -0.44951,14.1269 -0.31176,3.17728 0.0876,-10.77418 -0.16776,-34.79142 0.1196,-37.7272 0.27604,11.51379 0.46869,23.03418 0.19216,34.54992 z m 35.00023,-1.55903 c -0.10988,9.66448 -0.44063,9.28806 -0.31456,0.19497 0,-12.31499 0,-24.62998 0,-36.94497 0.3445,12.24586 0.6319,24.50017 0.31456,36.75 z m 239.253,10.25 c -2.14917,-15.09283 -0.33018,-30.5561 -0.98462,-45.67093 4.31451,-4.73718 0.54929,17.0306 1.94009,21.9713 0.14836,7.90514 0.23177,15.86017 -0.95547,23.69963 z m -253.2526,-12.25 c -0.35197,17.26156 -0.32821,-4.06617 -0.31066,-10.86049 0,-9.62984 0,-19.25967 0,-28.88951 0.34256,13.24624 0.61848,26.50014 0.31066,39.75 z m 265.99937,-0.5 c -0.35137,16.28517 -0.33741,-2.37872 -0.3167,-8.91623 0,-8.77792 0,-17.55584 0,-26.33377 0.34645,11.74564 0.63581,23.50018 0.3167,35.25 z"
         id="path3174" />
      <path
         style="fill:#ffe680"
         d="m 232.36719,252.7977 c -0.10275,9.5665 -0.46129,12.24897 -0.30722,1.29447 0.0715,-9.60975 -0.17642,-31.75227 0.11636,-33.98364 0.2875,10.89318 0.4646,21.79377 0.19086,32.68917 z m -266.00024,-3.44178 c -0.35197,17.26156 -0.32821,-4.06617 -0.31066,-10.86049 0,-9.62984 0,-19.25967 0,-28.88951 0.34256,13.24624 0.61848,26.50014 0.31066,39.75 z m 2.99981,0.5 c -0.0973,9.32666 -0.43884,10.26323 -0.31255,0.69497 0,-12.98166 0,-25.96331 0,-38.94497 0.34259,12.74608 0.62347,25.50014 0.31255,38.25 z m 3.00043,-1.05822 c -0.10275,9.5665 -0.46129,12.24897 -0.30722,1.29447 0.0715,-9.60975 -0.17642,-31.75227 0.11636,-33.98364 0.2875,10.89318 0.4646,21.79377 0.19086,32.68917 z m 84.99936,0.55822 c -0.10988,9.66448 -0.44063,9.28806 -0.31456,0.19497 0,-12.31499 0,-24.62998 0,-36.94497 0.3445,12.24586 0.6319,24.50017 0.31456,36.75 z m -106.00172,0.0543 c -0.61246,14.73003 -0.20926,-15.25555 -0.32118,-20.5629 -0.10808,-5.89844 0.0769,-13.77337 0.24082,-3.29199 0.21587,7.94914 0.32736,15.9051 0.0804,23.85489 z m 273.00099,-1.497 c -0.20711,12.70463 -0.43852,5.56515 -0.30709,-2.51444 0.0501,-7.52683 -0.15136,-32.14348 0.11215,-29.39736 0.27954,10.63409 0.47889,21.27552 0.19494,31.9118 z m 16.00076,0.38723 c -0.19765,11.91856 -0.44689,5.96923 -0.3109,-1.99738 0.052,-6.82314 -0.16317,-29.4262 0.11663,-26.73942 0.29456,9.57512 0.47261,19.15901 0.19427,28.7368 z m 13,0 c -0.19765,11.91856 -0.44689,5.96923 -0.3109,-1.99738 0.052,-6.82314 -0.16317,-29.4262 0.11663,-26.73942 0.29456,9.57512 0.47261,19.15901 0.19427,28.7368 z m -305.00452,-5.94453 c -0.65936,13.3971 -0.31056,-23.87196 -0.19434,-19.34678 0.2747,6.44371 0.50145,12.89976 0.19434,19.34678 z"
         id="path3172" />
      <path
         style="fill:#ffe680"
         d="m -52.63345,251.35592 c -0.10988,9.66448 -0.44063,9.28806 -0.31456,0.19497 0,-12.31499 0,-24.62998 0,-36.94497 0.3445,12.24586 0.6319,24.50017 0.31456,36.75 z m 38.00026,-0.55642 c -0.19319,12.24763 -0.44512,6.37944 -0.30864,-1.95081 0.0513,-7.15659 -0.1615,-31.02801 0.11576,-28.1034 0.29244,10.01448 0.46946,20.03723 0.19288,30.05421 z m -10.99962,-2.0018 c -0.10275,9.5665 -0.46129,12.24897 -0.30722,1.29447 0.0715,-9.60975 -0.17642,-31.75227 0.11636,-33.98364 0.2875,10.89318 0.4646,21.79377 0.19086,32.68917 z m 250.99936,-1.44178 c -0.10988,9.66448 -0.44063,9.28806 -0.31456,0.19497 0,-12.31499 0,-24.62998 0,-36.94497 0.3445,12.24586 0.6319,24.50017 0.31456,36.75 z"
         id="path3170" />
      <path
         style="fill:#ffe680"
         d="m 242.36582,251.91327 c -0.20711,12.70463 -0.43852,5.56515 -0.30709,-2.51444 0.0501,-7.52683 -0.15136,-32.14348 0.11215,-29.39736 0.27954,10.63409 0.47889,21.27552 0.19494,31.9118 z m -126.00006,-3.05735 c -0.44429,13.90131 -0.30698,-10.07024 -0.32145,-15.94359 0,-5.43547 0,-10.87094 0,-16.30641 0.35292,10.74506 0.64448,21.5002 0.32145,32.25 z m -134.00183,-0.44806 c -0.50855,13.85636 -0.28717,-11.53334 -0.32684,-16.35334 -0.004,-6.45818 -0.0662,-17.65777 0.2461,-5.25036 0.21912,7.19841 0.33294,14.40465 0.0807,21.6037 z"
         id="path3168" />
      <path
         style="fill:#ffe680"
         d="m -20.61154,238.63534 c 1.02183,6.91119 -1.40726,30.95196 -1.75585,11.37987 0.10033,-12.46959 -0.0334,-24.93963 0.0478,-37.40929 4.37087,8.10978 0.54871,17.42452 1.70806,26.02942 z m 257.9776,9.72058 c -0.37216,16.06082 -0.33138,-4.00408 -0.319,-10.27729 0,-7.82423 0,-15.64847 0,-23.4727 0.35065,11.24524 0.63995,22.50034 0.319,33.74999 z m 17.99877,1.05435 c -0.61262,14.73004 -0.21037,-15.25554 -0.32199,-20.5629 -0.10831,-5.89844 0.0779,-13.77338 0.24138,-3.29199 0.21527,7.94916 0.32755,15.90504 0.0806,23.85489 z M 47.362,244.9034 c -0.82581,9.4352 -0.12645,-27.60432 -0.20369,-21.29464 0.30149,7.09217 0.51484,14.19924 0.20369,21.29464 z"
         id="path3166" />
      <path
         style="fill:#ffe680"
         d="m -19.63319,250.7995 c -0.19319,12.24763 -0.44512,6.37944 -0.30864,-1.95081 0.0513,-7.15659 -0.1615,-31.02801 0.11576,-28.1034 0.29244,10.01448 0.46946,20.03723 0.19288,30.05421 z m -26.00105,-1.94358 c -0.44429,13.90131 -0.30698,-10.07024 -0.32145,-15.94359 0,-5.43547 0,-10.87094 0,-16.30641 0.35292,10.74496 0.64448,21.50036 0.32145,32.25 z m 104,0 c -0.44429,13.90131 -0.30698,-10.07024 -0.32145,-15.94359 0,-5.43547 0,-10.87094 0,-16.30641 0.35292,10.74496 0.64448,21.50036 0.32145,32.25 z m 164.25379,9.75 c -2.19057,-15.0939 -0.49501,-30.59177 -1,-45.88089 4.47673,6.92833 1.07013,20.39232 2,30.37967 -0.53012,4.95252 1.03527,11.07337 -0.73246,15.33587 l -0.26754,0.16535 0,0 z M 65.36529,246.30534 c -0.58087,13.60163 -0.24875,-16.38589 -0.33393,-22.21998 -0.0456,-10.48943 0.62089,11.73255 0.47194,15.54448 l -0.0439,3.33802 -0.0942,3.33748 1.5e-4,0 z m 8.99434,-3.48593 c -0.91375,8.08848 -0.24325,-27.17984 0.14704,-6.70623 0.0247,2.23627 -0.0318,4.47298 -0.14704,6.70623 z"
         id="path3164" />
      <path
         style="fill:#ffe680"
         d="m -13.63457,252.35592 c -0.40714,14.7033 -0.32571,-5.80744 -0.32409,-11.27728 0,-6.4909 0,-12.98181 0,-19.47272 0.3555,10.24474 0.64945,20.50021 0.32409,30.75 z m -23.99885,-3.05542 c -0.19765,11.91856 -0.44689,5.96923 -0.3109,-1.99738 0.052,-6.82314 -0.16317,-29.4262 0.11663,-26.73942 0.29456,9.57512 0.47261,19.15901 0.19427,28.7368 z m 273.25297,10.30542 c -2.19562,-14.96687 -0.49421,-30.33774 -1,-45.5 4.61659,9.73898 0.99776,21.24376 2,31.85991 -0.72291,4.16213 1.41353,10.49912 -1,13.64009 z m -121.25669,-14.75 c -0.60676,9.73065 -0.29006,-16.96102 -0.28908,-22.35067 0.35737,7.44182 0.6077,14.90253 0.28908,22.35067 z"
         id="path3162" />
      <path
         style="fill:#ffe680"
         d="m 234.36681,247.7995 c -0.19318,12.24763 -0.44511,6.37944 -0.30863,-1.95081 0.0513,-7.15659 -0.1615,-31.02801 0.11576,-28.1034 0.29244,10.01448 0.46947,20.03723 0.19287,30.05421 z m -273.00138,0.55642 c -0.40714,14.7033 -0.32571,-5.80744 -0.32409,-11.27728 0,-6.4909 0,-12.98181 0,-19.47272 0.3555,10.24474 0.64945,20.50021 0.32409,30.75 z"
         id="path3160" />
      <path
         style="fill:#ffe680"
         d="m -46.63342,248.3005 c -0.19765,11.91856 -0.44689,5.96923 -0.3109,-1.99738 0.052,-6.82314 -0.16317,-29.4262 0.11663,-26.73942 0.29456,9.57512 0.47261,19.15901 0.19427,28.7368 z m 284.99918,-0.44458 c -0.44429,13.90131 -0.30698,-10.07024 -0.32145,-15.94359 0,-5.43547 0,-10.87094 0,-16.30641 0.35292,10.74506 0.64448,21.5002 0.32145,32.25 z m 15.99967,-2.5 c -0.40714,14.7033 -0.32571,-5.80744 -0.32409,-11.27728 0,-6.4909 0,-12.98181 0,-19.47272 0.3555,10.24474 0.64945,20.50021 0.32409,30.75 z m -135.00189,0 c -0.60266,10.53609 -0.27866,-18.06874 -0.28919,-23.63474 0.36939,7.86949 0.59757,15.75888 0.28919,23.63474 z"
         id="path3158" />
      <path
         style="fill:#ffe680"
         d="m 239.36483,248.41027 c -0.61262,14.73004 -0.21037,-15.25554 -0.32199,-20.5629 -0.10831,-5.89844 0.0779,-13.77338 0.24138,-3.29199 0.21527,7.94916 0.32755,15.90504 0.0806,23.85489 z M 62.36412,246.85592 c -0.53316,12.50477 -0.28611,-11.08573 -0.3333,-17.08239 -0.29365,-24.68033 0.85549,12.12127 0.3333,17.08239 z m 2,0 c -0.53316,12.50477 -0.28611,-11.08573 -0.3333,-17.08239 -0.29365,-24.68033 0.85549,12.12127 0.3333,17.08239 z m 53.00071,-1.0491 c -0.58795,12.82135 -0.25204,-15.49453 -0.33741,-21.22146 -0.0378,-12.43204 0.83817,20.00257 0.33741,21.22146 z m -41.00278,-2.99249 c -0.81483,8.14102 -0.35995,-28.22761 0.0771,-10.50903 0.10525,3.50216 0.10535,7.00931 -0.0771,10.50903 z m -4.00242,0.005 c -0.91375,8.08848 -0.24325,-27.17984 0.14704,-6.70623 0.0247,2.23627 -0.0318,4.47298 -0.14704,6.70623 z m 90.98972,-1.98579 c -1.09848,2.48075 -0.1519,-18.08509 0.16629,-3.1253 -0.0554,1.04176 -0.1109,2.08358 -0.16629,3.1253 z m -223.02587,-1.46387 c -1.98113,-4.70388 1.41933,-8.24331 0,0 z"
         id="path3156" />
      <path
         style="fill:#ffe680"
         d="m -47.63517,248.41027 c -0.61246,14.73003 -0.20926,-15.25555 -0.32118,-20.5629 -0.10808,-5.89844 0.0769,-13.77337 0.24082,-3.29199 0.21587,7.94914 0.32736,15.9051 0.0804,23.85489 z m 3.00119,-1.10754 c -0.53835,15.60419 -0.26115,-14.73965 -0.32777,-20.69486 -0.16074,-19.66644 0.72426,10.03591 0.42006,16.98284 l -0.0398,1.8561 -0.053,1.85592 4.6e-4,0 z m 5,0 c -0.53835,15.60419 -0.26115,-14.73965 -0.32777,-20.69486 -0.16074,-19.66644 0.72426,10.03591 0.42006,16.98284 l -0.0398,1.8561 -0.053,1.85592 4.6e-4,0 z m 98.99941,0.0532 c -0.40714,14.7033 -0.32571,-5.80744 -0.32409,-11.27728 0,-6.4909 0,-12.98181 0,-19.47272 0.3555,10.24474 0.64945,20.50021 0.32409,30.75 z M 45.362,244.90341 c -0.82581,9.4352 -0.12645,-27.60432 -0.20369,-21.29464 0.30149,7.09217 0.51484,14.19924 0.20369,21.29464 z"
         id="path3154" />
      <path
         style="fill:#ffe680"
         d="m 60.36462,247.35592 c -0.50925,13.21854 -0.29195,-10.51121 -0.32999,-16.58239 -0.031,-7.76628 -0.0172,-15.34013 0.30411,-2.49838 0.18359,6.35816 0.25291,12.72274 0.0259,19.08077 z m 195.99931,0.0519 c -0.50855,13.85636 -0.28717,-11.53334 -0.32684,-16.35334 -0.004,-6.45818 -0.0662,-17.65777 0.2461,-5.25036 0.21912,7.19841 0.33293,14.40465 0.0807,21.6037 z m -300.00039,-1.0519 c -0.60266,10.53609 -0.27866,-18.06874 -0.28919,-23.63474 0.36939,7.86949 0.59757,15.75888 0.28919,23.63474 z m 119.00151,-1.5 c -0.4984,14.73735 -0.28993,-10.52262 -0.32692,-16.94359 0.009,-5.71246 -0.0881,-18.69792 0.2492,-4.99627 0.21938,7.31059 0.32336,14.62847 0.0777,21.93986 z m -125.00299,-2.5 c -0.65936,13.3971 -0.31056,-23.87196 -0.19434,-19.34678 0.2747,6.44371 0.50145,12.89976 0.19434,19.34678 z"
         id="path3152" />
      <path
         style="fill:#ffe680"
         d="m -40.63471,247.30534 c -0.58087,13.60163 -0.24875,-16.38589 -0.33393,-22.21998 -0.0456,-10.48943 0.62089,11.73255 0.47194,15.54448 l -0.0439,3.33802 -0.0942,3.33748 1.5e-4,0 z m 302.99757,-2.44942 c -0.60676,9.73065 -0.29006,-16.96102 -0.28908,-22.35067 0.35737,7.44182 0.6077,14.90253 0.28908,22.35067 z"
         id="path3150" />
      <path
         style="fill:#ffe680"
         d="m 61.36412,248.85592 c -0.53316,12.50477 -0.28611,-11.08573 -0.3333,-17.08239 -0.29365,-24.68033 0.85549,12.12127 0.3333,17.08239 z"
         id="path3148" />
      <path
         style="fill:#ffe680"
         d="m 257.36462,246.35592 c -0.50925,13.21854 -0.29195,-10.51121 -0.32999,-16.58239 -0.031,-7.76628 -0.0172,-15.34013 0.30411,-2.49838 0.18359,6.35816 0.25291,12.72274 0.0259,19.08077 z m -314.99979,-0.5491 c -0.58795,12.82135 -0.25204,-15.49453 -0.33741,-21.22146 -0.0377,-12.43204 0.83817,20.00257 0.33741,21.22146 z m 40.99803,-2.9509 c -0.60676,9.73065 -0.29006,-16.96102 -0.28908,-22.35067 0.35737,7.44182 0.6077,14.90253 0.28908,22.35067 z"
         id="path3146" />
      <path
         style="fill:#ffe680"
         d="m 66.36412,245.85592 c -0.53316,12.50477 -0.28611,-11.08573 -0.3333,-17.08239 -0.29365,-24.68033 0.85549,12.12127 0.3333,17.08239 z m 192.00071,-2.0491 c -0.58795,12.82135 -0.25204,-15.49453 -0.33741,-21.22146 -0.0378,-12.43204 0.83817,20.00257 0.33741,21.22146 z"
         id="path3144" />
      <path
         style="fill:#ffe680"
         d="m -41.63646,246.35592 c -0.60266,10.53609 -0.27866,-18.06874 -0.28919,-23.63474 0.36939,7.86949 0.59757,15.75888 0.28919,23.63474 z"
         id="path3142" />
      <path
         style="fill:#ffe680"
         d="m 63.36206,247.35592 c -0.65936,13.3971 -0.31056,-23.87196 -0.19434,-19.34678 0.2747,6.44371 0.50145,12.89976 0.19434,19.34678 z m 4.25749,4.25 c -1.34772,-6.38786 -1.3098,-29.66394 0.0247,-28.30223 1.23912,9.36898 1.2698,18.93724 -0.0247,28.30223 z m -126.25749,-5.25 c -0.65936,13.3971 -0.31056,-23.87196 -0.19434,-19.34678 0.2747,6.44371 0.50145,12.89976 0.19434,19.34678 z"
         id="path3140" />
      <path
         style="fill:#ffe680"
         d="m 263.36286,245.85592 c -0.60676,9.73065 -0.29006,-16.96102 -0.28908,-22.35067 0.35737,7.44182 0.6077,14.90253 0.28908,22.35067 z m -4,-2 c -0.60676,9.73065 -0.29006,-16.96102 -0.28908,-22.35067 0.35737,7.44182 0.6077,14.90253 0.28908,22.35067 z"
         id="path3138" />
      <path
         style="fill:#ffe680"
         d="m -42.63887,245.40163 c -0.81079,7.6672 -0.16216,-24.77558 -0.21628,-20.61536 0.22898,6.86426 0.58376,13.75252 0.21628,20.61536 z m 162.99897,0.49804 c -0.70577,10.58357 -0.38137,-32.52031 -0.02,-14.1052 0.0561,4.69694 0.38548,9.41568 0.02,14.1052 z m 149.001,-2.04375 c -0.59587,13.42011 -0.38654,-18.27743 -0.2008,-18.1315 0.23425,6.03629 0.54446,12.09415 0.2008,18.1315 z m -198.00115,-0.5 c -0.64893,10.80097 -0.50963,-30.42657 0.0374,-11.36009 0.14691,3.7846 0.17875,7.57739 -0.0374,11.36009 z"
         id="path3136" />
      <path
         style="fill:#ffe680"
         d="m 261.28622,251.10592 c -3.04638,-7.81272 -2.49359,-25.21662 0.11853,-27.15412 0.56587,9.04386 0.13419,18.10767 -0.11853,27.15412 z m 7.07583,-8.29159 c -0.81483,8.14102 -0.35995,-28.22761 0.0771,-10.50903 0.10525,3.50216 0.10535,7.00931 -0.0771,10.50903 z m -155.00623,0.0114 c -1.08651,4.43494 -0.0308,-22.55437 0.0906,-3.86559 0.0381,1.28981 -0.0487,2.57728 -0.0906,3.86559 z m -66.99619,-2.00634 c -0.91375,8.08848 -0.24325,-27.17984 0.14704,-6.70623 0.0247,2.23627 -0.0318,4.47298 -0.14704,6.70623 z m 93.98681,1.06294 c -0.98241,3.6245 -0.24607,-19.51684 0.0604,-6.39415 l 0.0946,3.20063 -0.15502,3.19352 z m 21.00291,-1.04873 c -1.09848,2.48075 -0.1519,-18.08509 0.16629,-3.1253 -0.0554,1.04176 -0.1109,2.08358 -0.16629,3.1253 z"
         id="path3134" />
      <path
         style="fill:#ffe680"
         d="m 264.3601,243.89967 c -0.70577,10.58357 -0.38137,-32.52031 -0.02,-14.1052 0.0561,4.69694 0.38548,9.41568 0.02,14.1052 z"
         id="path3132" />
      <path
         style="fill:#ffe680"
         d="m -50.63795,242.81433 c -0.81483,8.14102 -0.35995,-28.22761 0.0771,-10.50903 0.10525,3.50216 0.10534,7.00931 -0.0771,10.50903 z m 128.9979,-0.45841 c -0.64893,10.80097 -0.50963,-30.42657 0.0374,-11.36009 0.14691,3.7846 0.17875,7.57739 -0.0374,11.36009 z m 50.98649,-0.47357 c -0.98241,3.6245 -0.24607,-19.51684 0.0604,-6.39415 l 0.0946,3.20063 -0.15502,3.19352 z"
         id="path3130" />
      <path
         style="fill:#ffe680"
         d="m 121.35995,244.35592 c -0.64893,10.80097 -0.50963,-30.42657 0.0374,-11.36009 0.14691,3.7846 0.17875,7.57739 -0.0374,11.36009 z m 144,-2 c -0.64893,10.80097 -0.50963,-30.42657 0.0374,-11.36009 0.14691,3.7846 0.17875,7.57739 -0.0374,11.36009 z m 8.99859,0.5 c -0.93308,7.21908 -0.19035,-28.08158 0.14404,-6.87996 0.0285,2.29403 -0.0137,4.58931 -0.14404,6.87996 z"
         id="path3128" />
      <path
         style="fill:#ffe680"
         d="m 141.35995,244.35592 c -0.64893,10.80097 -0.50963,-30.42657 0.0374,-11.36009 0.14691,3.7846 0.17875,7.57739 -0.0374,11.36009 z m -18.00316,0 c -0.93757,7.12367 -0.21579,-26.49111 0.14848,-6.44541 0.0278,2.14935 -0.0248,4.29953 -0.14848,6.44541 z m 147.00058,-0.46081 c -0.93846,6.82646 -0.1739,-29.16121 0.14252,-7.36619 0.0342,2.45599 -0.003,4.91363 -0.14252,7.36619 z m -193,-1 c -0.93846,6.82646 -0.1739,-29.16121 0.14252,-7.36619 0.0342,2.45599 -0.003,4.91363 -0.14252,7.36619 z m 10.00058,-1.57271 c -0.95842,7.48481 -0.18743,-23.87139 0.14631,-5.81332 l -0.0201,2.90803 -0.12622,2.90529 z m 197.97785,-1.46648 c -1.67335,-4.15977 1.02969,-8.89807 0.0119,-0.13764 l -0.0119,0.13764 z"
         id="path3126" />
      <path
         style="fill:#ffe680"
         d="m 130.35679,244.35592 c -0.93757,7.12367 -0.21579,-26.49111 0.14848,-6.44541 0.0278,2.14935 -0.0248,4.29953 -0.14848,6.44541 z m 145.26276,4.25 c -3.90097,-4.97798 1.08583,-29.87456 0.91977,-13.07275 -0.0623,4.34699 1.00361,8.94596 -0.91977,13.07275 z M 70.35963,242.81941 c -0.91375,8.08848 -0.24325,-27.17984 0.14704,-6.70623 0.0247,2.23627 -0.0318,4.47298 -0.14704,6.70623 z m 51.99891,0.0365 c -0.93308,7.21908 -0.19035,-28.08158 0.14404,-6.87996 0.0285,2.29403 -0.0137,4.58931 -0.14404,6.87996 z m 145.00141,-0.5 c -0.64893,10.80097 -0.50963,-30.42657 0.0374,-11.36009 0.14691,3.7846 0.17875,7.57739 -0.0374,11.36009 z"
         id="path3124" />
      <path
         style="fill:#ffe680"
         d="m 266.35737,241.89511 c -0.93846,6.82646 -0.1739,-29.16121 0.14252,-7.36619 0.0342,2.45599 -0.003,4.91363 -0.14252,7.36619 z m 5.00226,-0.0757 c -0.91375,8.08848 -0.24325,-27.17984 0.14704,-6.70623 0.0247,2.23627 -0.0318,4.47298 -0.14704,6.70623 z m 2,0 c -0.91375,8.08848 -0.24325,-27.17984 0.14704,-6.70623 0.0247,2.23627 -0.0318,4.47298 -0.14704,6.70623 z m -194.00504,0.0365 c -1.07005,4.74474 -0.0324,-22.06102 0.1545,-4.75 l -0.0422,2.37618 -0.11227,2.37382 z"
         id="path3122" />
      <path
         style="fill:#ffe680"
         d="m 69.35795,243.3224 c -0.95842,7.48481 -0.18743,-23.87139 0.14631,-5.81332 l -0.02,2.90803 -0.12626,2.90529 z m 207.99884,-0.96648 c -0.93757,7.12367 -0.21579,-26.49111 0.14848,-6.44541 0.0278,2.14935 -0.0248,4.29953 -0.14848,6.44541 z"
         id="path3120" />
      <path
         style="fill:#ffe680"
         d="m 131.35795,244.3224 c -0.95842,7.48481 -0.18743,-23.87139 0.14631,-5.81332 l -0.0201,2.90803 -0.12622,2.90529 z m -81.99832,-1.50299 c -0.91375,8.08848 -0.24325,-27.17984 0.14704,-6.70623 0.0247,2.23627 -0.0318,4.47298 -0.14704,6.70623 z m 38.99496,0.0365 c -1.07005,4.74474 -0.0324,-22.06102 0.1545,-4.75 l -0.0422,2.37618 -0.11227,2.37382 z m 198,0 c -1.07005,4.74474 -0.0324,-22.06102 0.1545,-4.75 l -0.0422,2.37618 -0.11227,2.37382 z m -149.00283,-0.5 c -0.9811,4.77887 -0.21122,-21.13539 0.10538,-5.23768 0.0595,1.74501 0.11406,3.49988 -0.10538,5.23768 z m 135.00503,-1 c -0.93757,7.12367 -0.21579,-26.49111 0.14848,-6.44541 0.0278,2.14935 -0.0248,4.29953 -0.14848,6.44541 z m 8.99903,0.46983 c -1.08651,4.43494 -0.0308,-22.55437 0.0906,-3.86559 0.0381,1.28981 -0.0487,2.57728 -0.0906,3.86559 z m -3.00123,-0.96983 c -1.07005,4.74474 -0.0324,-22.06102 0.1545,-4.75 l -0.0422,2.37618 -0.11227,2.37382 z m -181.02931,-0.5 c -2.43672,-4.06314 2.06326,-7.92034 0,0 z"
         id="path3118" />
      <path
         style="fill:#ffe680"
         d="m 124.61955,247.60592 c -3.99455,-6.10545 1.45116,-25.86554 0.88088,-8.67085 0.17971,2.87135 0.97699,6.09553 -0.88088,8.67085 z m 7.73627,-4.78017 c -1.08651,4.43494 -0.0308,-22.55437 0.0906,-3.86559 0.0381,1.28981 -0.0487,2.57728 -0.0906,3.86559 z m 2.99353,-2.99213 c -1.09848,2.48075 -0.1519,-18.08509 0.16629,-3.1253 -0.0554,1.04176 -0.1109,2.08358 -0.16629,3.1253 z m -28.04047,0.0223 c -1.72106,-0.96417 0.67365,-6.4963 0,0 z m -33.95953,-3.0223 c -1.09848,2.48075 -0.1519,-18.08509 0.16629,-3.1253 -0.0554,1.04176 -0.1109,2.08358 -0.16629,3.1253 z m 12.95953,2.0223 c -1.72106,-0.96417 0.67365,-6.4963 0,0 z"
         id="path3116" />
      <path
         style="fill:#ffe680"
         d="m 89.35176,242.35592 c -0.9811,4.77887 -0.21122,-21.13539 0.10538,-5.23768 0.0595,1.74501 0.11406,3.49988 -0.10538,5.23768 z m 36.99468,0.52643 c -0.98241,3.6245 -0.24607,-19.51684 0.0604,-6.39415 l 0.0946,3.20063 -0.15502,3.19352 z m 153.00158,-3.02643 c -1.17599,2.61932 0.0394,-18.34893 0.15297,-3.61373 0.0653,1.20458 -0.11551,2.41002 -0.15297,3.61373 z m -348.03548,-2.01903 c -1.79517,3.25739 0.73828,-8.86703 0,0 z"
         id="path3114" />
      <path
         style="fill:#ffe680"
         d="m 108.34802,241.85592 c -1.17599,2.61932 0.0394,-18.34893 0.15297,-3.61373 0.0653,1.20458 -0.11551,2.41002 -0.15297,3.61373 z m 172,0 c -1.17599,2.61932 0.0394,-18.34893 0.15297,-3.61373 0.0653,1.20458 -0.11551,2.41002 -0.15297,3.61373 z m 2,0 c -1.17599,2.61932 0.0394,-18.34893 0.15297,-3.61373 0.0653,1.20458 -0.11551,2.41002 -0.15297,3.61373 z m -146,-1 c -1.17599,2.61932 0.0394,-18.34893 0.15297,-3.61373 0.0653,1.20458 -0.11551,2.41002 -0.15297,3.61373 z m -56.00507,-0.5 c -1.55757,-5.91622 0.86721,-11.07264 0.0448,-0.57653 l -0.0448,0.57653 z m 207,0 c -1.55757,-5.91622 0.86721,-11.07264 0.0448,-0.57653 l -0.0448,0.57653 z"
         id="path3112" />
      <path
         style="fill:#ffe680"
         d="m 133.34935,239.83362 c -1.09848,2.48075 -0.1519,-18.08509 0.16629,-3.1253 -0.0554,1.04176 -0.1109,2.08358 -0.16629,3.1253 z m -196.02587,0.53605 c -1.98113,-4.70388 1.41933,-8.24331 0,0 z m 175,0 c -1.9808,-4.7042 1.41912,-8.24307 0,0 z"
         id="path3110" />
      <path
         style="fill:#ffe680"
         d="m 90.34802,241.85592 c -1.17599,2.61932 0.0394,-18.34893 0.15297,-3.61373 0.0653,1.20458 -0.11551,2.41002 -0.15297,3.61373 z m 37.00133,-0.0223 c -1.09848,2.48075 -0.1519,-18.08509 0.16629,-3.1253 -0.0554,1.04176 -0.1109,2.08358 -0.16629,3.1253 z m 11.2702,2.7723 c -4.57503,-7.38203 2.8973,-20.20523 0.68516,-4.93295 0.0355,1.45311 1.45229,4.24596 -0.68516,4.93295 z m 144.71625,-4.75 c -1.67335,-4.15977 1.02969,-8.89807 0.0119,-0.13764 l -0.0119,0.13764 z m -351.01232,-0.48625 c -1.98113,-4.70388 1.41933,-8.24331 0,0 z"
         id="path3108" />
      <path
         style="fill:#ffe680"
         d="m 91.34295,241.35592 c -1.55757,-5.91622 0.86721,-11.07264 0.0448,-0.57653 l -0.0448,0.57653 z m 18.00133,-0.0179 c -1.39485,0.3118 0.78134,-12.97191 0,0 z m 18.99867,-0.98209 c -1.55757,-5.91622 0.86721,-11.07264 0.0448,-0.57653 l -0.0448,0.57653 z m -208.01767,0 c -2.43672,-4.06314 2.06326,-7.92034 0,0 z"
         id="path3106" />
      <path
         style="fill:#ffe680"
         d="m 162.34935,240.83362 c -1.09848,2.48075 -0.1519,-18.08509 0.16629,-3.1253 -0.0554,1.04176 -0.1109,2.08358 -0.16629,3.1253 z m -28.02587,-3.46395 c -1.9808,-4.7042 1.41912,-8.24307 0,0 z"
         id="path3104" />
      <path
         style="fill:#ffe680"
         d="m 81.34428,239.33801 c -1.39485,0.3118 0.78134,-12.97191 0,0 z m 10.981,1.01791 c -2.43672,-4.06314 2.06326,-7.92034 0,0 z m 17.9982,0.0138 c -1.9808,-4.7042 1.41912,-8.24307 0,0 z m -12,-1 c -1.9808,-4.7042 1.41912,-8.24307 0,0 z m 190.0018,-0.0138 c -2.43672,-4.06314 2.06326,-7.92034 0,0 z"
         id="path3102" />
      <path
         style="fill:#ffe680"
         d="m 82.3358,239.85592 c -1.67335,-4.15977 1.02969,-8.89807 0.0119,-0.13764 l -0.0119,0.13764 z m -144.01232,-0.48625 c -1.98113,-4.70388 1.41933,-8.24331 0,0 z"
         id="path3100" />
      <path
         style="fill:#ffe680"
         d="m -81.67472,240.35592 c -2.43672,-4.06314 2.06326,-7.92034 0,0 z m 165,-1 c -2.43672,-4.06314 2.06326,-7.92034 0,0 z m 11.00153,-0.0117 c -2.26414,-0.0124 1.47199,-7.4291 0,0 z m 189.98573,-2.50737 c -1.79512,3.25768 0.73823,-8.86713 0,0 z"
         id="path3098" />
      <path
         style="fill:#ffe680"
         d="m -80.69112,239.85592 c -1.72106,-0.96417 0.67365,-6.4963 0,0 z m 2,0 c -1.72106,-0.96417 0.67365,-6.4963 0,0 z m 15,0 c -1.72106,-0.96417 0.67365,-6.4963 0,0 z m 159.01793,-0.51166 c -2.26414,-0.0124 1.47199,-7.4291 0,0 z m -161.70726,0.76166 c -5.36948,-8.30105 4.721,-7.52723 0,0 z m 165.68933,-1.25 c -1.72106,-0.96417 0.67365,-6.4963 0,0 z m 12.01793,-0.51166 c -2.26414,-0.0124 1.47199,-7.4291 0,0 z m -172,-1 c -2.26414,-0.0124 1.47199,-7.4291 0,0 z m 349.95502,1.01166 c -2.80796,0.64465 2.73031,-8.4039 0,0 z"
         id="path3096" />
      <path
         style="fill:#ffe680"
         d="m 93.31254,239.83689 c -1.79496,3.25813 0.73828,-8.8673 0,0 z m 2.99634,0.019 c -1.72106,-0.96417 0.67365,-6.4963 0,0 z m 4,0 c -1.72106,-0.96417 0.67365,-6.4963 0,0 z m -177.68933,0.25003 c -5.60053,-7.46949 5.70922,-5.34772 0,0 z m 161.68933,-1.25 c -1.72106,-0.96417 0.67365,-6.4963 0,0 z"
         id="path3094" />
      <path
         style="fill:#ffe680"
         d="m -75.71817,239.35592 c -2.80796,0.64465 2.73031,-8.4039 0,0 z m 11.02083,-0.0625 c -1.86635,2.25265 0.98108,-6.05394 0,0 z m 166.31689,0.8125 c -5.5506,-4.87253 5.92974,-6.01356 0,0 z m -172.33772,-1.75 c -2.80793,0.64463 2.73029,-8.40389 0,0 z m 156,0 c -2.80796,0.64465 2.73031,-8.4039 0,0 z"
         id="path3092" />
      <path
         style="fill:#ffe680"
         d="m -72.13045,240.02697 c -10.91838,-2.68027 5.9806,-9.33576 0,0 z m 176.75,-0.34962 c -9.56645,-5.17679 10.37666,-5.35915 0,0 z m -174.33772,-2.32143 c -2.80793,0.64463 2.73029,-8.40389 0,0 z"
         id="path3090" />
      <path
         style="fill:#ffe680"
         d="m 198.36937,279.85592 c -0.0972,17.05556 -0.14828,34.11138 -0.26756,51.16681 0,-70.8056 0,-141.6112 0,-212.41681 0.29443,53.74932 0.53298,107.50002 0.26756,161.25 z"
         id="path3088" />
      <path
         style="fill:#ffe680"
         d="m 197.36937,279.85592 c -0.0972,17.05556 -0.14828,34.11138 -0.26756,51.16681 0,-70.8056 0,-141.6112 0,-212.41681 0.29443,53.74932 0.53298,107.50002 0.26756,161.25 z"
         id="path3082" />
      <path
         style="fill:#ffe680"
         d="m -4.42247,317.75762 c -8.68238,2.66941 1.21027,-24.88151 -10.16573,-27.51435 2.73475,-8.75104 -3.13625,-30.27809 -13.25724,-22.01597 -1.67448,8.52053 -4.2338,-10.833 -6.36345,2.31261 -0.96246,5.83347 -2.02438,14.80047 -2.87525,3.46688 4.49022,-9.87779 -10.62928,-19.24892 -11.90068,-5.34513 -1.49133,-7.97419 -12.18518,7.5418 -9.31404,-4.81067 -3.23216,-7.6868 -3.50096,-22.62839 -11.02638,-18.05205 -3.33007,-10.87733 -16.5252,7.47226 -9.97344,-5.81337 8.49535,-3.69639 24.27425,0.0472 20.63789,12.54202 0.19873,7.88448 8.20686,15.52612 5.71051,3.11569 2.97954,-15.38494 2.74776,10.77974 9.01124,-0.2865 5.20012,-2.81733 10.47554,13.126 20.39745,7.32968 9.84627,0.43572 5.54762,-20.27788 7.95132,-5.45086 3.5524,7.99316 3.89335,18.20418 6.47544,19.6415 1.72146,7.10009 0.088,26.8491 4.42967,26.48963 0.39113,-8.06447 9.76545,-11.37236 10.50563,-19.13299 1.65318,9.88277 12.142,1.46332 11.3992,13.5552 0.38354,6.25489 1.61045,14.03331 2.3634,3.12885 -2.16193,-6.04244 3.83283,-23.11151 6.47562,-12.22687 0.37997,-4.65235 0.52243,-28.89506 6.54351,-14.69422 -1.1538,12.59905 9.02406,8.73657 9.13491,-0.75039 2.45908,-7.9227 3.10641,-34.21175 8.98508,-19.97876 0.36184,5.91805 0.2349,27.32959 3.40581,10.9163 4.03324,-6.64619 19.81264,-18.15317 19.54585,-19.09069 0.58788,18.37193 7.32947,-14.59037 13.79574,-1.16511 0.71075,2.39991 16.05722,-9.61206 22.42792,-0.70727 4.94996,-0.8424 5.01736,25.77232 11.17778,7.98949 2.53188,-8.02851 9.57085,-5.16171 11.16644,-4.78472 1.33302,-14.75383 13.42672,7.44474 10.47599,14.34859 -1.43314,14.23232 20.91414,3.66461 17.1694,-5.34675 -0.0267,-11.15616 4.71291,-10.05427 4.28095,-0.15572 1.03101,3.76374 -0.63508,19.52642 3.26673,10.26666 3.8893,-1.2434 13.75571,0.97691 14.21315,-1.06844 1.93563,14.2086 14.15808,-1.7158 14.15115,0.8094 2.15151,4.46672 0.41345,17.93712 -1.72421,6.52343 -6.30801,12.3485 -16.04114,-11.88157 -20.71613,5.91274 2.65581,-10.40971 -11.65739,-6.73366 -9.22928,1.78339 -4.3852,-6.55293 1.57098,-30.5252 -4.93038,-13.17819 -7.41415,5.12019 -21.63437,9.46526 -17.61779,-4.26636 0.96405,-10.84863 -10.54559,-11.76549 -13.80433,-11.55927 -9.98864,-0.18532 -4.85132,21.03687 -10.74331,20.49922 -4.17432,-5.02611 -2.45596,-22.05225 -8.85216,-21.15142 -0.72068,2.78246 -4.41576,-14.0839 -9.82674,-3.10029 -3.5761,10.80559 1.83625,2.44257 -4.11443,-1.417 -6.39979,5.26976 -7.71886,8.72135 -11.72786,-0.91783 -5.37263,6.76665 -5.73765,19.9924 -10.62963,18.6003 -0.8973,-9.26221 -6.52753,-6.80602 -6.39369,0.6943 -13.74055,-9.18093 -11.41708,20.79772 -11.89186,29.74244 0.18263,8.3051 -2.67584,13.71712 -3.16925,2.25279 -2.0153,-8.92461 0.87477,-25.75096 -3.19125,-25.95564 -5.46843,-5.22274 -2.88976,25.12586 -14.23365,21.2631 -0.10717,12.42055 -5.24334,5.86241 -3.5086,-2.65886 0.28997,-8.49967 -0.61681,-16.12957 -1.12169,-2.64139 -2.27203,10.3085 -6.88536,29.01242 -9.43321,33.91445 -3.74185,-6.24144 -2.56497,-26.17822 -8.00891,-23.49067 -2.82132,13.14845 -2.76289,-6.3338 -4.51513,1.23465 -6.70683,-11.00346 -6.91586,18.23395 -10.83808,20.39444 z m 210.82349,-32.9017 c -2.2437,-4.56089 -1.64282,-8.41475 -5.06503,-2.19257 -5.20869,-10.15126 3.17532,-11.99674 9.98776,-12.19793 3.59869,-7.71744 16.22622,-16.27099 17.3183,-2.44085 4.44382,-6.65079 11.74693,-14.07388 15.48831,-2.277 10.43727,0.74318 10.65992,-15.43575 20.91492,-16.24132 8.16863,-0.68034 18.6691,-4.74438 19.7462,-9.62661 -0.0173,12.75939 7.37229,-7.33445 4.54597,6.85877 1.10134,7.97181 -1.61746,-0.0262 -3.66858,6.41898 -6.12807,-12.22154 -10.31514,5.12421 -19.0828,-1.54416 -3.56398,4.66839 -3.7273,13.16122 -7.14464,2.68818 -2.25131,9.25352 -8.41793,26.54346 -17.52194,13.7381 -2.12478,3.01685 -5.83545,-10.77705 -8.18726,-0.91046 -2.5108,6.37541 -3.89037,24.81887 -4.7487,8.0989 -6.56569,-19.42538 -20.26129,-0.51045 -22.58251,9.62797 z M -63.65937,234.66874 c -5.36705,-4.34366 -19.15504,5.99756 -16.63339,-5.17108 6.27849,2.97533 9.67084,3.18462 12.15348,-4.64775 1.5713,7.58143 4.11389,6.58502 5.97671,1.13762 1.63858,7.54832 -0.28046,-25.92707 3.41952,-14.01894 -2.50785,-6.31838 3.31659,-22.88804 5.39732,-7.83396 -0.34787,6.90958 16.29645,15.89419 15.12143,4.01756 1.52207,-10.37752 3.82233,-6.21384 6.27764,-1.60384 2.46232,-7.00583 3.73709,-14.52067 4.91294,-2.62395 13.70356,17.81268 10.92628,-14.26583 14.34327,-24.10833 6.14298,-14.42 1.62875,-30.46128 5.50322,-45.32344 1.69737,-9.71253 8.55235,-10.53208 8.50225,-0.1152 1.8587,10.22147 8.2898,7.04606 9.87355,-0.6021 1.11357,8.38292 6.70102,11.89321 8.89081,1.18962 8.24238,13.2111 8.93759,27.23228 8.7633,43.41785 0.47315,14.64378 0.51629,2.21656 0.58626,-4.55383 0.0634,-5.24102 0.12691,-10.48203 0.19036,-15.72305 5.13923,8.41642 4.61948,-7.94926 5.24996,3.60841 4.22315,14.156 7.11437,28.88794 10.02835,45.44239 4.03869,7.72272 4.57696,-14.18362 4.7461,-18.9207 -0.6584,-7.78242 2.04007,-27.03466 3.03772,-9.3928 2.16605,10.17591 1.23798,31.13082 9.6816,34.15331 3.80403,-7.84516 6.77259,14.51983 9.09152,1.61475 0.93372,-12.46212 4.42389,-10.88551 5.4653,0.26383 0.65886,4.75516 7.28681,22.33696 8.89525,9.00656 3.3173,4.71038 12.74413,9.50942 10.74618,-0.37998 5.75934,19.60198 19.92822,-1.63702 17.0159,-13.14849 2.68223,-5.17752 5.97931,-14.44828 5.66076,-1.83026 0.75067,6.73855 1.48787,23.93812 11.38771,14.25984 15.33696,9.9304 4.59578,-22.94904 14.90916,-23.92422 4.98809,2.05999 16.58653,11.9353 16.52773,7.70087 -0.87511,-10.44987 4.61212,-8.86391 7.90379,-2.87448 4.74708,-3.84233 4.33954,-8.89337 6.70752,0.0699 6.43702,2.6982 14.69426,-8.44994 17.34144,-3.6385 7.68794,-3.12627 -1.2302,22.85118 -3.42652,5.36644 -5.75189,-2.89901 -13.37096,6.24681 -17.71527,2.88448 -16.03371,-10.4017 -4.04013,19.84039 -11.72765,19.99255 1.88559,-8.02003 -3.12995,-27.22716 -14.2386,-18.98911 -9.79487,-10.69549 3.04084,28.83026 -15.7807,21.51893 -11.36177,3.84758 -17.35629,-28.74091 -16.70976,-6.14414 -2.22185,15.11039 -23.13509,10.47634 -28.03924,5.60279 -4.03775,15.30089 -13.54562,-25.41994 -11.97601,-4.44398 -8.8226,7.85749 -6.38275,-12.64329 -11.36194,-1.61024 -6.83985,-5.74628 -9.66974,-21.81596 -11.49607,-24.99138 -2.54246,6.34089 2.25835,28.85242 -3.48451,25.41268 -4.65237,-5.56962 -8.12972,-29.48114 -9.75911,-43.48106 -1.24748,8.89921 -5.2087,-13.33035 -7.06809,-0.55974 -0.74736,8.30788 1.33028,31.30247 -2.88025,29.07256 -3.06848,-19.95217 1.20695,-40.72805 -4.13761,-60.31832 0.25722,5.79285 -3.56455,24.53138 -4.94626,9.16732 1.87891,-7.97732 -13.13147,-25.00425 -11.24495,-8.41463 -1.50383,10.18949 -5.22957,-11.01325 -7.39414,-2.80128 2.8032,-7.72615 -4.46445,-15.20424 -5.43621,-3.61404 -3.95754,-1.77934 -1.39168,19.78273 -3.26033,26.01599 -1.06926,11.14189 3.22446,24.10546 -3.19342,34.02337 -0.23762,-5.757 -0.80098,-20.43646 -0.92868,-6.86936 -0.89495,6.51023 2.83811,31.04342 -7.34172,19.30282 -2.60393,-4.39231 -18.47626,-9.31232 -16.30064,-6.59361 1.41731,6.98805 -7.65849,16.71656 -12.11657,7.51733 -5.57005,17.25748 -8.74364,-26.13242 -8.31147,-5.97577 -1.45405,7.96038 -0.52202,17.74892 -7.39894,23.48182 z m 352.90024,0.43718 c -8.83032,-9.48008 -26.41335,-7.41163 -35.42373,-20.17659 -6.26952,-7.67457 -8.38977,-5.84017 -13.83781,0.4876 -11.48202,-0.65893 -21.71601,-2.77993 -27.21326,-13.63226 -4.75738,7.54564 -6.6356,-6.00875 -10.61219,2.98423 -7.76025,-10.0799 14.42896,-16.20249 14.81272,-1.862 4.78197,9.20059 14.29906,4.54456 22.25289,9.24641 3.43801,-8.77673 14.25811,-12.95195 15.92534,0.4088 3.34946,5.98107 13.63682,8.3145 14.51959,7.95649 4.25612,3.75792 12.70986,3.35657 14.62522,5.46332 4.29031,-2.01931 5.26355,3.01804 4.86901,-4.69512 0.5301,4.57198 0.31219,9.23192 0.0822,13.81912 z"
         id="path3080" />
      <path
         style="fill:#ffe680"
         d="m 199.36937,279.85592 c -0.0972,17.05556 -0.14828,34.11138 -0.26756,51.16681 0,-70.8056 0,-141.6112 0,-212.41681 0.29443,53.74932 0.53298,107.50002 0.26756,161.25 z"
         id="path3078" />
    </g>
  </g>
  <path
     sodipodi:type="arc"
     style="fill:url(#radialGradient3322);fill-opacity:1;stroke:none;display:inline;filter:url(#filter3524)"
     id="path3302"
     sodipodi:cx="302.85715"
     sodipodi:cy="705.2193"
     sodipodi:rx="239.28572"
     sodipodi:ry="39.285713"
     d="m 542.14287,705.2193 a 239.28572,39.285713 0 1 1 -478.571444,0 239.28572,39.285713 0 1 1 478.571444,0 z"
     transform="matrix(0.2153846,0.02156223,-0.02793199,0.3364082,114.28655,-22.278437)" />
  <g
     inkscape:groupmode="layer"
     id="layer3"
     transform="translate(705.05389,101.71135)"
     style="display:inline" />
  <g
     inkscape:label="Text"
     inkscape:groupmode="layer"
     id="layer1"
     style="display:inline;opacity:1"
     transform="translate(705.05389,101.71135)">
    <g
       id="g3061"
       transform="matrix(2.0186956,0,0,1.1928294,-325.8509,4.9312096)"
       style="fill:#000000;fill-opacity:1;filter:url(#filter2996)">
      <g
         transform="scale(0.62080238,1.6108186)"
         style="font-size:66.75360107px;font-style:normal;font-variant:normal;font-weight:normal;font-stretch:normal;fill:#000000;stroke:none;font-family:CType;-inkscape-font-specification:CType"
         id="text3188">
        <path
           d="m -151.589,-29.744934 c -5.29586,-5.340241 -12.63875,-9.10069 -22.02868,-11.281359 l 0,9.746026 c 6.63079,1.82464 11.74856,4.561535 15.35332,8.210693 2.80358,2.803684 4.2054,5.718588 4.20548,8.744721 -8e-5,3.159694 -1.4019,6.1191011 -4.20548,8.8782294 -2.75922,2.7146615 -6.49742,4.96203052 -11.2146,6.7421137 l -35.57967,-42.3217831 c -8.63349,2.002659 -15.62036,5.429341 -20.96063,10.280055 -5.34029,4.806297 -8.01043,10.280087 -8.01043,16.421385 0,5.6518264 2.31412,10.7918485 6.94237,15.4200823 5.34028,5.340294 12.68317,9.1007427 22.02869,11.2813587 l 0,-9.7460259 c -6.63088,-1.82458685 -11.74865,-4.5392306 -15.35333,-8.1439393 -2.80366,-2.8036306 -4.20549,-5.7407858 -4.20548,-8.8114758 -1e-5,-3.026133 1.37957,-5.918786 4.13873,-8.677968 2.80363,-2.803613 6.56408,-5.095484 11.28136,-6.875621 l 35.57967,42.25503 c 9.38993,-2.180616 16.73282,-5.9410647 22.02868,-11.2813587 4.62817,-4.6282338 6.94229,-9.7682559 6.94238,-15.4200823 -9e-5,-5.651772 -2.31421,-10.791794 -6.94238,-15.420081"
           style=""
           id="path2959" />
        <path
           d="m -98.236179,12.376588 c 7.298345,0 14.062703,-1.068057 20.293095,-3.204173 6.27477,-2.1806122 11.325787,-5.1845213 15.153067,-9.01173613 4.361154,-4.36121867 6.541769,-9.18972437 6.541853,-14.48553187 -8.4e-5,-5.295753 -2.180699,-10.124259 -6.541853,-14.485531 -3.82728,-3.827161 -8.878297,-6.808819 -15.153067,-8.944983 -6.230392,-2.180565 -12.99475,-3.270873 -20.293095,-3.270926 -11.748661,5.3e-5 -21.672691,2.58119 -29.772101,7.743418 -8.09945,5.162319 -12.14916,11.481653 -12.14916,18.958022 0,5.2958075 2.18062,10.1243132 6.54185,14.48553187 3.8272,3.82721483 8.85597,6.83112393 15.08632,9.01173613 6.27481,2.136116 13.03917,3.204173 20.293091,3.204173 m -33.109781,-26.701441 c -1e-5,-2.848124 1.33506,-5.585019 4.00521,-8.210692 2.93714,-2.981623 7.00911,-5.340248 12.21591,-7.075882 5.25125,-1.73555 10.8808,-2.603346 16.888661,-2.603391 6.052279,4.5e-5 11.681827,0.867841 16.888661,2.603391 5.206717,1.735634 9.300934,4.094259 12.282663,7.075882 2.625568,2.625673 3.938387,5.362568 3.938462,8.210692 -7.5e-5,4.850784 -3.270998,9.0562566 -9.812779,12.616431 -6.541912,3.5157003 -14.307573,5.2735433 -23.297007,5.2735345 -6.007861,8.8e-6 -11.637411,-0.8677871 -16.888661,-2.60339042 -5.2068,-1.73558047 -9.27877,-4.09420538 -12.21591,-7.07588168 -2.67015,-2.6256206 -4.00522,-5.3625154 -4.00521,-8.2106934"
           style=""
           id="path2961" />
        <path
           d="m 30.418877,-29.744934 c -5.295863,-5.340241 -12.638751,-9.10069 -22.0286881,-11.281359 l 0,9.746026 c 6.6307911,1.82464 11.7485621,4.561535 15.3533281,8.210693 2.803573,2.803684 4.205397,5.718588 4.205477,8.744721 -8e-5,3.159694 -1.401904,6.1191011 -4.205477,8.8782294 -2.759222,2.7146615 -6.49742,4.96203052 -11.214605,6.7421137 L -23.050757,-41.026293 c -8.633486,2.002659 -15.620356,5.429341 -20.960631,10.280055 -5.340291,4.806297 -8.010432,10.280087 -8.010432,16.421385 0,5.6518264 2.314122,10.7918485 6.942374,15.4200823 5.340276,5.340294 12.683165,9.1007427 22.028689,11.2813587 l 0,-9.7460259 c -6.63088,-1.82458685 -11.748651,-4.5392306 -15.353328,-8.1439393 -2.803663,-2.8036306 -4.205487,-5.7407858 -4.205477,-8.8114758 -1e-5,-3.026133 1.379563,-5.918786 4.138723,-8.677968 2.803635,-2.803613 6.564084,-5.095484 11.281359,-6.875621 L 8.3901889,12.376588 C 17.780126,10.195972 25.123014,6.4355233 30.418877,1.0952293 c 4.628163,-4.6282338 6.942285,-9.7682559 6.942375,-15.4200823 -9e-5,-5.651772 -2.314212,-10.791794 -6.942375,-15.420081"
           style=""
           id="path2963" />
      </g>
      <g
         transform="scale(0.64902511,1.5407724)"
         style="font-size:66.24690247px;font-style:normal;font-variant:normal;font-weight:normal;font-stretch:normal;fill:#000000;stroke:none;display:inline;font-family:CType;-inkscape-font-specification:CType"
         id="text3292">
        <path
           d="m -182.07864,77.315681 c 7.19879,0 13.88972,-1.059949 20.07281,-3.179851 6.22715,-2.16406 11.23983,-5.145168 15.03805,-8.943332 4.32805,-4.328114 6.49212,-9.119969 6.4922,-14.375578 -8e-5,-5.255555 -2.16415,-10.04741 -6.4922,-14.375577 -3.79822,-3.798111 -8.8109,-6.757137 -15.03805,-8.877085 -6.18309,-2.164014 -12.87402,-3.246046 -20.07281,-3.246099 -8.30297,5.3e-5 -15.41347,0.596275 -21.3315,1.788667 -5.43226,1.14833 -10.99699,3.047406 -16.69422,5.697233 l -0.19874,34.713377 c 0.35332,0.529986 2.71612,1.656182 7.08842,3.378592 4.99059,1.943248 9.98118,3.577337 14.9718,4.902271 6.40384,1.678256 11.79191,2.517382 16.16424,2.517382 m -28.94989,-40.145622 c 7.4638,-2.738163 17.11375,-4.107264 28.94989,-4.107308 5.96218,4.4e-5 11.52691,0.861253 16.69422,2.583629 5.21136,1.722459 9.29659,4.063181 12.25568,7.022171 2.60564,2.605744 3.90849,5.321864 3.90857,8.148369 -8e-5,4.813964 -3.26825,8.987514 -9.80455,12.520665 -6.49225,3.489014 -14.17688,5.233514 -23.05392,5.233505 -9.18626,9e-6 -18.88038,-2.451124 -29.08239,-7.353406 l 0.1325,-24.047625"
           style=""
           id="path2966" />
        <path
           d="m -57.493058,36.772577 c -3.88656,-3.88644 -9.031731,-6.933795 -15.435528,-9.142072 -6.403925,-2.208179 -13.315678,-3.312293 -20.735281,-3.312346 -11.968633,5.3e-5 -22.104403,2.627845 -30.407333,7.883382 -8.25878,5.255627 -12.38817,11.725735 -12.38817,19.410342 0,5.388102 2.23031,10.31245 6.69094,14.77306 4.8581,4.858112 11.50486,8.347112 19.94032,10.46701 l 0,-9.340813 c -8.17047,-2.51737 -13.58063,-6.183028 -16.23049,-10.996986 l 64.921962,0 c -2.870771,5.255603 -8.943398,9.09792 -18.217898,11.526961 l 0,9.274566 c 9.318665,-2.031569 16.605817,-5.675145 21.861478,-10.930738 4.460541,-4.46061 6.690851,-9.384958 6.690937,-14.77306 -8.6e-5,-5.432215 -2.230396,-10.378645 -6.690937,-14.839306 m -69.029272,10.665751 c 0.70662,-1.4574 1.74449,-2.870666 3.1136,-4.239801 3.04735,-3.047321 7.2209,-5.454289 12.52067,-7.220913 5.34388,-1.766541 11.085277,-2.649832 17.224193,-2.649876 6.182995,4.4e-5 11.924388,0.883335 17.224195,2.649876 5.343851,1.766624 9.539484,4.173592 12.586911,7.220913 1.369029,1.369135 2.384814,2.782401 3.047358,4.239801 l -65.716927,0"
           style=""
           id="path2968" />
        <path
           d="m 29.688902,65.921214 c -5.432321,5.432252 -12.984461,9.18624 -22.6564408,11.261974 l -0.2649876,0.132493 0.2649876,-0.132493 -15.4355283,-42.000537 -0.066247,0 -15.236788,41.470561 c -8.17047,-2.031569 -14.750989,-5.365993 -19.741577,-10.003282 -4.990602,-4.681432 -7.485899,-9.959097 -7.485899,-15.83301 0,-5.520543 2.274474,-10.555302 6.82343,-15.104293 4.858095,-4.85806 11.526943,-8.391225 20.006565,-10.599505 l 0,9.605801 c -5.785584,1.81079 -10.290369,4.328169 -13.514368,7.552147 -2.738216,2.738238 -4.107317,5.586852 -4.107308,8.54585 -9e-6,3.003217 1.369092,5.873913 4.107308,8.612098 2.959012,2.914878 5.873873,4.747708 8.744591,5.498493 l 15.369281,-40.609352 9.7382951,0 15.7005159,41.735549 c 1.369038,-0.309141 2.671893,-0.750786 3.908567,-1.324938 2.958959,-1.369089 5.410092,-3.135671 7.353406,-5.299752 2.738129,-3.75397 4.10723,-6.624666 4.107308,-8.612098 -7.8e-5,-3.665631 -1.943318,-7.066302 -5.829727,-10.202023 -3.75406,-3.003153 -8.70049,-5.255545 -14.8393062,-6.757184 l 0,-9.473307 c 9.8486392,2.031623 17.5332722,5.807693 23.0539222,11.328221 4.548869,4.548991 6.823343,9.58375 6.823431,15.104293 -8.8e-5,5.520597 -2.274562,10.555356 -6.823431,15.104294"
           style=""
           id="path2970" />
      </g>
    </g>
  </g>
  <g
     inkscape:groupmode="layer"
     id="layer2"
     inkscape:label="Frame"
     style="display:inline"
     transform="translate(705.05389,101.71135)" />
</svg>
