<?xml version="1.0" encoding="UTF-8" standalone="no"?>
<!-- Created with Inkscape (http://www.inkscape.org/) -->

<svg
   xmlns:dc="http://purl.org/dc/elements/1.1/"
   xmlns:cc="http://creativecommons.org/ns#"
   xmlns:rdf="http://www.w3.org/1999/02/22-rdf-syntax-ns#"
   xmlns:svg="http://www.w3.org/2000/svg"
   xmlns="http://www.w3.org/2000/svg"
   xmlns:xlink="http://www.w3.org/1999/xlink"
   xmlns:sodipodi="http://sodipodi.sourceforge.net/DTD/sodipodi-0.dtd"
   xmlns:inkscape="http://www.inkscape.org/namespaces/inkscape"
   width="173.50624"
   height="96.958176"
   id="svg2"
   version="1.1"
   inkscape:version="0.47 r22583"
   sodipodi:docname="logo.svg"
   inkscape:export-filename="/home/male/prog/non-daw/mixer/pixmaps/logo.png"
   inkscape:export-xdpi="132.79062"
   inkscape:export-ydpi="132.79062">
  <defs
     id="defs4">
    <linearGradient
       id="linearGradient6116">
      <stop
         style="stop-color:#a00000;stop-opacity:1;"
         offset="0"
         id="stop6118" />
      <stop
         style="stop-color:#00ff00;stop-opacity:1;"
         offset="1"
         id="stop6120" />
    </linearGradient>
    <filter
       id="filter2858"
       inkscape:label="Black Light"
       inkscape:menu="Color"
       inkscape:menu-tooltip="Light areas turn to black"
       x="0"
       width="1"
       y="0"
       height="1"
       color-interpolation-filters="sRGB">
      <feColorMatrix
         id="feColorMatrix2860"
         type="luminanceToAlpha"
         result="result2" />
      <feComposite
         id="feComposite2862"
         in2="SourceGraphic"
         operator="arithmetic"
         in="result2"
         k3="2"
         result="result4"
         k1="0"
         k2="0"
         k4="0" />
      <feBlend
         id="feBlend2864"
         in2="result2"
         in="result4"
         mode="multiply"
         result="result3" />
      <feComposite
         id="feComposite2866"
         in2="SourceGraphic"
         operator="in"
         in="result3" />
    </filter>
    <filter
       id="filter2923"
       inkscape:label="Black hole"
       inkscape:menu="Morphology"
       inkscape:menu-tooltip="Creates a black light inside and outside"
       height="1.5"
       width="1.5"
       y="-0.25"
       x="-0.25"
       color-interpolation-filters="sRGB">
      <feGaussianBlur
         id="feGaussianBlur2925"
         stdDeviation="5"
         in="SourceAlpha"
         result="result1" />
      <feComposite
         id="feComposite2927"
         in2="result1"
         operator="arithmetic"
         k2="3.2"
         k1="-1"
         k4="-2"
         result="result3"
         k3="0" />
      <feColorMatrix
         id="feColorMatrix2929"
         values="1 0 0 0 0 0 1 0 0 0 0 0 1 0 0 0 0 0 10 0 "
         result="result2" />
      <feComposite
         id="feComposite2931"
         in2="result2"
         result="fbSourceGraphic"
         in="SourceGraphic"
         operator="out" />
      <feBlend
         id="feBlend2933"
         in2="fbSourceGraphic"
         mode="multiply"
         in="result1"
         result="result91" />
      <feBlend
         id="feBlend2935"
         in2="result91"
         mode="screen"
         in="fbSourceGraphic" />
    </filter>
    <filter
       id="filter2937"
       inkscape:label="Black hole"
       inkscape:menu="Morphology"
       inkscape:menu-tooltip="Creates a black light inside and outside"
       height="1.5"
       width="1.5"
       y="-0.25"
       x="-0.25"
       color-interpolation-filters="sRGB">
      <feGaussianBlur
         id="feGaussianBlur2939"
         stdDeviation="5"
         in="SourceAlpha"
         result="result1" />
      <feComposite
         id="feComposite2941"
         in2="result1"
         operator="arithmetic"
         k2="3.2"
         k1="-1"
         k4="-2"
         result="result3"
         k3="0" />
      <feColorMatrix
         id="feColorMatrix2943"
         values="1 0 0 0 0 0 1 0 0 0 0 0 1 0 0 0 0 0 10 0 "
         result="result2" />
      <feComposite
         id="feComposite2945"
         in2="result2"
         result="fbSourceGraphic"
         in="SourceGraphic"
         operator="out" />
      <feBlend
         id="feBlend2947"
         in2="fbSourceGraphic"
         mode="multiply"
         in="result1"
         result="result91" />
      <feBlend
         id="feBlend2949"
         in2="result91"
         mode="screen"
         in="fbSourceGraphic" />
    </filter>
    <filter
       color-interpolation-filters="sRGB"
       x="-0.25"
       y="-0.25"
       width="1.5"
       height="1.5"
       inkscape:menu-tooltip="Creates a black light inside and outside"
       inkscape:menu="Morphology"
       inkscape:label="Black hole"
       id="filter2996">
      <feGaussianBlur
         result="result1"
         in="SourceAlpha"
         stdDeviation="5"
         id="feGaussianBlur2998" />
      <feComposite
         result="result3"
         k4="-2"
         k1="-1"
         k2="3.2"
         operator="arithmetic"
         in2="result1"
         id="feComposite3000"
         k3="0" />
      <feColorMatrix
         result="result2"
         values="1 0 0 0 0 0 1 0 0 0 0 0 1 0 0 0 0 0 10 0 "
         id="feColorMatrix3002" />
      <feComposite
         operator="out"
         in="SourceGraphic"
         result="fbSourceGraphic"
         in2="result2"
         id="feComposite3004" />
      <feBlend
         result="result91"
         in="result1"
         mode="multiply"
         in2="fbSourceGraphic"
         id="feBlend3006" />
      <feBlend
         in="fbSourceGraphic"
         mode="screen"
         in2="result91"
         id="feBlend3008" />
    </filter>
    <radialGradient
       inkscape:collect="always"
       xlink:href="#linearGradient4228-9"
       id="radialGradient4227-9"
       gradientUnits="userSpaceOnUse"
       gradientTransform="matrix(1.0033501,0,0,0.04020101,-1.7003087,208.30468)"
       cx="168.31667"
       cy="215.45081"
       fx="168.31667"
       fy="215.45081"
       r="75.382637" />
    <linearGradient
       id="linearGradient4228-9"
       inkscape:collect="always">
      <stop
         id="stop4230-4"
         offset="0"
         style="stop-color:#ffffff;stop-opacity:1;" />
      <stop
         id="stop4232-9"
         offset="1"
         style="stop-color:#ffffff;stop-opacity:0;" />
    </linearGradient>
    <filter
       color-interpolation-filters="sRGB"
       height="2.0908561"
       y="-0.54542798"
       width="1.0437071"
       x="-0.021853544"
       id="filter4312-8"
       inkscape:collect="always">
      <feGaussianBlur
         id="feGaussianBlur4314-1"
         stdDeviation="1.3774139"
         inkscape:collect="always" />
    </filter>
    <radialGradient
       inkscape:collect="always"
       xlink:href="#linearGradient4110-3"
       id="radialGradient4229-6"
       gradientUnits="userSpaceOnUse"
       gradientTransform="matrix(1,0,0,0.08040201,0.5050763,283.78295)"
       cx="166.29636"
       cy="331.11325"
       fx="166.29636"
       fy="331.11325"
       r="75.382637" />
    <linearGradient
       id="linearGradient4110-3"
       inkscape:collect="always">
      <stop
         id="stop4112-9"
         offset="0"
         style="stop-color:#ffffff;stop-opacity:1;" />
      <stop
         id="stop4114-3"
         offset="1"
         style="stop-color:#ffffff;stop-opacity:0;" />
    </linearGradient>
    <filter
       color-interpolation-filters="sRGB"
       height="1.6901751"
       y="-0.34508756"
       width="1.0554914"
       x="-0.027745733"
       id="filter4222-3"
       inkscape:collect="always">
      <feGaussianBlur
         id="feGaussianBlur4224-4"
         stdDeviation="1.7429554"
         inkscape:collect="always" />
    </filter>
    <linearGradient
       id="linearGradient3314-1"
       inkscape:collect="always">
      <stop
         id="stop3316-5"
         offset="0"
         style="stop-color:#ffffff;stop-opacity:1;" />
      <stop
         id="stop3318-6"
         offset="1"
         style="stop-color:#ffffff;stop-opacity:0;" />
    </linearGradient>
    <filter
       color-interpolation-filters="sRGB"
       height="2.6537824"
       y="-0.82689118"
       width="1.2715164"
       x="-0.13575824"
       id="filter3524-1"
       inkscape:collect="always">
      <feGaussianBlur
         id="feGaussianBlur3526-7"
         stdDeviation="27.070841"
         inkscape:collect="always" />
    </filter>
    <radialGradient
       r="239.28572"
       fy="705.2193"
       fx="302.85715"
       cy="705.2193"
       cx="302.85715"
       gradientTransform="matrix(1,0,0,0.1641791,0,589.43703)"
       gradientUnits="userSpaceOnUse"
       id="radialGradient4492"
       xlink:href="#linearGradient3314-1"
       inkscape:collect="always" />
    <linearGradient
       inkscape:collect="always"
       xlink:href="#linearGradient6116"
       id="linearGradient4912"
       gradientUnits="userSpaceOnUse"
       gradientTransform="matrix(0.30012437,0,0,0.30012437,-202.06109,894.75914)"
       x1="432.34528"
       y1="197.17313"
       x2="432.34528"
       y2="544.38947" />
    <linearGradient
       inkscape:collect="always"
       xlink:href="#linearGradient6116"
       id="linearGradient4914"
       gradientUnits="userSpaceOnUse"
       gradientTransform="matrix(0.30012437,0,0,0.30012437,-202.06109,894.75914)"
       x1="432.34528"
       y1="197.17313"
       x2="432.34528"
       y2="544.38947" />
    <linearGradient
       inkscape:collect="always"
       xlink:href="#linearGradient6116"
       id="linearGradient4916"
       gradientUnits="userSpaceOnUse"
       gradientTransform="matrix(0.30012437,0,0,0.30012437,-202.06109,894.75914)"
       x1="432.34528"
       y1="197.17313"
       x2="432.34528"
       y2="544.38947" />
    <linearGradient
       inkscape:collect="always"
       xlink:href="#linearGradient6116"
       id="linearGradient4918"
       gradientUnits="userSpaceOnUse"
       gradientTransform="matrix(0.30012437,0,0,0.30012437,-202.06109,894.75914)"
       x1="432.34528"
       y1="197.17313"
       x2="432.34528"
       y2="544.38947" />
    <linearGradient
       inkscape:collect="always"
       xlink:href="#linearGradient6116"
       id="linearGradient4920"
       gradientUnits="userSpaceOnUse"
       gradientTransform="matrix(0.30012437,0,0,0.30012437,-202.06109,894.75914)"
       x1="432.34528"
       y1="197.17313"
       x2="432.34528"
       y2="544.38947" />
    <linearGradient
       inkscape:collect="always"
       xlink:href="#linearGradient6116"
       id="linearGradient4922"
       gradientUnits="userSpaceOnUse"
       gradientTransform="matrix(0.30012437,0,0,0.30012437,-202.06109,894.75914)"
       x1="432.34528"
       y1="197.17313"
       x2="432.34528"
       y2="544.38947" />
    <linearGradient
       inkscape:collect="always"
       xlink:href="#linearGradient6116"
       id="linearGradient4924"
       gradientUnits="userSpaceOnUse"
       gradientTransform="matrix(0.30012437,0,0,0.30012437,-202.06109,894.75914)"
       x1="432.34528"
       y1="197.17313"
       x2="432.34528"
       y2="544.38947" />
    <linearGradient
       inkscape:collect="always"
       xlink:href="#linearGradient6116"
       id="linearGradient4926"
       gradientUnits="userSpaceOnUse"
       gradientTransform="matrix(0.30012437,0,0,0.30012437,-202.06109,894.75914)"
       x1="432.34528"
       y1="197.17313"
       x2="432.34528"
       y2="544.38947" />
    <linearGradient
       inkscape:collect="always"
       xlink:href="#linearGradient6116"
       id="linearGradient4928"
       gradientUnits="userSpaceOnUse"
       gradientTransform="matrix(0.30012437,0,0,0.30012437,-202.06109,894.75914)"
       x1="432.34528"
       y1="197.17313"
       x2="432.34528"
       y2="544.38947" />
    <linearGradient
       inkscape:collect="always"
       xlink:href="#linearGradient6116"
       id="linearGradient4930"
       gradientUnits="userSpaceOnUse"
       gradientTransform="matrix(0.30012437,0,0,0.30012437,-202.06109,894.75914)"
       x1="432.34528"
       y1="197.17313"
       x2="432.34528"
       y2="544.38947" />
    <linearGradient
       inkscape:collect="always"
       xlink:href="#linearGradient6116"
       id="linearGradient4932"
       gradientUnits="userSpaceOnUse"
       gradientTransform="matrix(0.30012437,0,0,0.30012437,-202.06109,894.75914)"
       x1="432.34528"
       y1="197.17313"
       x2="432.34528"
       y2="544.38947" />
    <linearGradient
       inkscape:collect="always"
       xlink:href="#linearGradient6116"
       id="linearGradient4934"
       gradientUnits="userSpaceOnUse"
       gradientTransform="matrix(0.30012437,0,0,0.30012437,-202.06109,894.75914)"
       x1="432.34528"
       y1="197.17313"
       x2="432.34528"
       y2="544.38947" />
  </defs>
  <sodipodi:namedview
     id="base"
     pagecolor="#ffffff"
     bordercolor="#666666"
     borderopacity="1.0"
     inkscape:pageopacity="0.0"
     inkscape:pageshadow="2"
     inkscape:zoom="0.70000001"
     inkscape:cx="-300.72698"
     inkscape:cy="66.894876"
     inkscape:document-units="px"
     inkscape:current-layer="layer2"
     showgrid="false"
     inkscape:window-width="1918"
     inkscape:window-height="1059"
     inkscape:window-x="1"
     inkscape:window-y="20"
     inkscape:window-maximized="0" />
  <metadata
     id="metadata7">
    <rdf:RDF>
      <cc:Work
         rdf:about="">
        <dc:format>image/svg+xml</dc:format>
        <dc:type
           rdf:resource="http://purl.org/dc/dcmitype/StillImage" />
        <dc:title></dc:title>
      </cc:Work>
    </rdf:RDF>
  </metadata>
  <g
     inkscape:groupmode="layer"
     id="layer2"
     inkscape:label="Layer"
     transform="translate(22.283575,-9.8842135)"
     style="display:inline">
    <g
       id="layer5"
       inkscape:label="Layer"
       style="display:inline"
       transform="translate(-28.688242,202.86582)" />
    <g
       id="layer3-2"
       transform="translate(676.36565,304.57717)"
       style="display:inline" />
    <g
       id="layer2-9"
       inkscape:label="Frame"
       style="display:inline"
       transform="translate(676.36565,304.57717)" />
    <rect
       style="fill:#483737;fill-opacity:1;stroke:none;display:inline"
       id="rect3597-2"
       width="173.50624"
       height="92.484009"
       x="-22.283575"
       y="11.441613"
       rx="10.606599"
       ry="163.41496" />
    <g
       transform="translate(-166.08388,-942.21924)"
       style="display:inline"
       id="g4233">
      <g
         id="g4249"
         transform="translate(302.85714,5)">
        <rect
           style="opacity:0.92941176;fill:url(#linearGradient4912);fill-opacity:1;stroke:#000000;stroke-width:0.36014926;stroke-miterlimit:4;stroke-opacity:1;stroke-dasharray:none"
           id="rect5625-94"
           width="81.856277"
           height="5.153914"
           x="-113.23186"
           y="974.32764"
           rx="10.600013"
           ry="17.172594" />
        <rect
           style="opacity:0.92941176;fill:url(#linearGradient4914);fill-opacity:1;stroke:#000000;stroke-width:0.36014926;stroke-miterlimit:4;stroke-opacity:1;stroke-dasharray:none"
           id="rect5625-1"
           width="81.856277"
           height="5.153914"
           x="-113.23186"
           y="967.19287"
           rx="10.600013"
           ry="17.172594" />
        <rect
           style="opacity:0.92941176;fill:url(#linearGradient4916);fill-opacity:1;stroke:#000000;stroke-width:0.36014926;stroke-miterlimit:4;stroke-opacity:1;stroke-dasharray:none"
           id="rect5625-3"
           width="81.856277"
           height="5.153914"
           x="-113.23186"
           y="960.05817"
           rx="10.600013"
           ry="17.172594" />
        <rect
           style="opacity:0.92941176;fill:url(#linearGradient4918);fill-opacity:1;stroke:#000000;stroke-width:0.36014926;stroke-miterlimit:4;stroke-opacity:1;stroke-dasharray:none"
           id="rect5625-34"
           width="81.856277"
           height="5.153914"
           x="-113.23186"
           y="952.9234"
           rx="10.600013"
           ry="17.172594" />
        <rect
           style="opacity:0.92941176;fill:url(#linearGradient4920);fill-opacity:1;stroke:#000000;stroke-width:0.36014926;stroke-miterlimit:4;stroke-opacity:1;stroke-dasharray:none"
           id="rect5625-5"
           width="81.856277"
           height="5.153914"
           x="-113.23186"
           y="988.59711"
           rx="10.600013"
           ry="17.172594" />
        <rect
           style="opacity:0.92941176;fill:url(#linearGradient4922);fill-opacity:1;stroke:#000000;stroke-width:0.36014926;stroke-miterlimit:4;stroke-opacity:1;stroke-dasharray:none"
           id="rect5625-2"
           width="81.856277"
           height="5.153914"
           x="-113.23186"
           y="1010.0013"
           rx="10.600013"
           ry="17.172594" />
        <rect
           style="opacity:0.92941176;fill:url(#linearGradient4924);fill-opacity:1;stroke:#000000;stroke-width:0.36014926;stroke-miterlimit:4;stroke-opacity:1;stroke-dasharray:none"
           id="rect5625-92"
           width="81.856277"
           height="5.153914"
           x="-113.23186"
           y="1002.8666"
           rx="10.600013"
           ry="17.172594" />
        <rect
           style="opacity:0.92941176;fill:url(#linearGradient4926);fill-opacity:1;stroke:#000000;stroke-width:0.36014926;stroke-miterlimit:4;stroke-opacity:1;stroke-dasharray:none"
           id="rect5625-12"
           width="81.856277"
           height="5.153914"
           x="-113.23186"
           y="1017.1361"
           rx="10.600013"
           ry="17.172594" />
        <rect
           style="opacity:0.92941176;fill:url(#linearGradient4928);fill-opacity:1;stroke:#000000;stroke-width:0.36014926;stroke-miterlimit:4;stroke-opacity:1;stroke-dasharray:none"
           id="rect5625-7"
           width="81.856277"
           height="5.153914"
           x="-113.23186"
           y="1031.4055"
           rx="10.600013"
           ry="17.172594" />
        <rect
           style="opacity:0.92941176;fill:url(#linearGradient4930);fill-opacity:1;stroke:#000000;stroke-width:0.36014926;stroke-miterlimit:4;stroke-opacity:1;stroke-dasharray:none"
           id="rect5625-8"
           width="81.856277"
           height="5.153914"
           x="-113.23186"
           y="1024.2708"
           rx="10.600013"
           ry="17.172594" />
        <rect
           style="opacity:0.92941176;fill:url(#linearGradient4932);fill-opacity:1;stroke:#000000;stroke-width:0.36014926;stroke-miterlimit:4;stroke-opacity:1;stroke-dasharray:none"
           id="rect5625-36"
           width="81.856277"
           height="5.153914"
           x="-113.23186"
           y="995.73181"
           rx="10.600013"
           ry="17.172594" />
        <rect
           style="opacity:0.92941176;fill:url(#linearGradient4934);fill-opacity:1;stroke:#000000;stroke-width:0.36014926;stroke-miterlimit:4;stroke-opacity:1;stroke-dasharray:none"
           id="rect5625-35"
           width="81.856277"
           height="5.153914"
           x="-113.23186"
           y="981.46234"
           rx="10.600013"
           ry="17.172594" />
      </g>
    </g>
  </g>
  <g
     inkscape:label="Layer 1"
     inkscape:groupmode="layer"
     id="layer1"
     transform="translate(22.283575,-934.24639)"
     style="display:inline">
    <g
       transform="matrix(0.74291451,1.3681905e-6,-2.5135322e-6,1.3275338,5.6617776e-4,5.9557354)"
       style="font-size:41.48906326px;font-style:normal;font-variant:normal;font-weight:bold;font-stretch:normal;text-align:center;line-height:100%;writing-mode:lr-tb;text-anchor:middle;fill:#000000;fill-opacity:1;stroke:none;filter:url(#filter2858);font-family:Westminster;-inkscape-font-specification:Westminster Medium"
       id="text2838" />
    <flowRoot
       xml:space="preserve"
       id="flowRoot2850"
       style="font-size:56px;font-style:normal;font-variant:normal;font-weight:bold;font-stretch:normal;text-align:center;line-height:100%;writing-mode:lr-tb;text-anchor:middle;fill:#000000;fill-opacity:1;stroke:none;font-family:Westminster;-inkscape-font-specification:Westminster Medium"><flowRegion
         id="flowRegion2852"><rect
           id="rect2854"
           width="144.28572"
           height="312.14285"
           x="441.42856"
           y="234.50504" /></flowRegion><flowPara
         id="flowPara2856" /></flowRoot>    <rect
       style="fill:url(#radialGradient4227-9);fill-opacity:1;stroke:none;display:inline;filter:url(#filter4312-8)"
       id="rect4226-9"
       width="151.27036"
       height="6.0609159"
       x="91.545074"
       y="213.93556"
       rx="10.794271"
       ry="13.754757"
       transform="matrix(0.98261379,0,0,0.8812828,-101.92435,748.622)" />
    <path
       sodipodi:type="arc"
       style="fill:url(#radialGradient4492);fill-opacity:1;stroke:none;display:inline;filter:url(#filter3524-1)"
       id="path3302-8"
       sodipodi:cx="302.85715"
       sodipodi:cy="705.2193"
       sodipodi:rx="239.28572"
       sodipodi:ry="39.285713"
       d="m 542.14287,705.2193 a 239.28572,39.285713 0 1 1 -478.571444,0 239.28572,39.285713 0 1 1 478.571444,0 z"
       transform="matrix(0.07314695,0.00732277,-0.00948601,0.11424788,13.613388,926.86556)" />
    <rect
       style="fill:url(#radialGradient4229-6);fill-opacity:1;stroke:none;display:inline;filter:url(#filter4222-3)"
       id="rect4108-2"
       width="150.76527"
       height="12.121831"
       x="91.4188"
       y="304.34421"
       rx="10.794271"
       ry="13.754757"
       transform="matrix(0.98261379,0,0,0.8812828,-101.92434,748.622)" />
  </g>
  <g
     inkscape:groupmode="layer"
     id="layer3"
     inkscape:label="Layer#1"
     style="display:inline"
     transform="translate(19.253117,-1.703135)" />
  <g
     inkscape:groupmode="layer"
     id="layer4"
     inkscape:label="Layer#2"
     style="display:inline"
     transform="translate(19.253117,-1.703135)">
    <g
       style="display:inline"
       id="g4231"
       transform="translate(3.7503114,-930.02531)">
      <g
         id="text3222"
         style="font-size:39.80257034px;font-style:normal;font-variant:normal;font-weight:bold;font-stretch:normal;text-align:center;line-height:100%;writing-mode:lr-tb;text-anchor:middle;fill:#666666;fill-opacity:1;stroke:none;filter:url(#filter2937);font-family:Westminster;-inkscape-font-specification:Westminster Medium"
         transform="matrix(0.702464,0,0,1.0859684,-1.2626907,229.83975)">
        <path
           id="path2913"
           style="font-size:51.17473221px;fill:#666666"
           d="m 35.137175,724.90045 -3.121659,0 c -0.818798,0 -1.501127,-0.23881 -2.046989,-0.71644 -0.511748,-0.51175 -0.767622,-1.21114 -0.767621,-2.09817 l 0,-27.37848 c -1e-6,-0.78465 0.289989,-1.44992 0.869971,-1.99581 0.579977,-0.54584 1.22819,-0.81877 1.944639,-0.8188 l 33.570625,0 c 0.716408,3e-5 1.364621,0.27296 1.94464,0.8188 0.57994,0.54589 0.86993,1.21116 0.86997,1.99581 l 0,28.40198 c -4e-5,0.61409 -0.204739,1.10878 -0.614097,1.48406 -0.409437,0.34117 -0.921184,0.51175 -1.535242,0.51175 -0.614134,0 -1.142939,-0.17058 -1.586416,-0.51175 -0.409434,-0.34116 -0.614133,-0.85291 -0.614097,-1.53524 l -0.05118,-22.67041 c -3.6e-5,-0.57995 -3.6e-5,-1.04052 0,-1.38171 -3.6e-5,-0.37526 -3.6e-5,-0.66525 0,-0.86997 -3.6e-5,-1.05759 -0.119443,-1.7058 -0.358223,-1.94464 -0.238851,-0.23879 -0.92118,-0.3582 -2.046989,-0.35823 l -8.034433,0 c -1.194102,3e-5 -1.927605,0.11944 -2.200514,0.35823 -0.272955,0.23884 -0.40942,0.93823 -0.409398,2.09816 l 0,24.81975 c -2.2e-5,0.61409 -0.255896,1.10878 -0.767621,1.48406 -0.477652,0.34117 -1.006457,0.51175 -1.586416,0.51175 -0.648233,0 -1.142922,-0.17058 -1.484068,-0.51175 -0.341183,-0.34116 -0.511765,-0.85291 -0.511747,-1.53524 l 0,-22.61923 c -1.8e-5,-0.57996 -1.8e-5,-1.04053 0,-1.38172 -1.8e-5,-0.37525 -1.8e-5,-0.66524 0,-0.86997 -1.8e-5,-1.0917 -0.119426,-1.75697 -0.358223,-1.99581 -0.238833,-0.23879 -0.921162,-0.3582 -2.046989,-0.35823 l -8.034433,0 c -1.194084,3e-5 -1.927588,0.11944 -2.200514,0.35823 -0.272937,0.23884 -0.409403,0.93823 -0.409398,2.09816 l 0,5.11747 c -5e-6,1.67173 0.05117,2.72934 0.153525,3.17284 0.13646,0.44353 0.597032,1.07468 1.381717,1.89346 l 1.177019,1.17702 c 0.818787,0.71646 1.296417,1.33056 1.432893,1.84229 0.136456,0.47765 0.204689,1.56937 0.204699,3.27518 l 0,7.31799 c -1e-5,1.87641 -0.921154,2.81461 -2.763436,2.81461" />
        <path
           id="path2915"
           style="font-size:51.17473221px;fill:#666666"
           d="m 76.416792,724.90045 -3.121658,0 c -1.842293,0 -2.763437,-0.9382 -2.763436,-2.81461 l 0,-28.09493 c -1e-6,-0.64818 0.204698,-1.14287 0.614097,-1.48406 0.443512,-0.37525 0.955259,-0.56289 1.535242,-0.56293 0.614093,4e-5 1.12584,0.17062 1.535242,0.51175 0.409393,0.3412 0.614091,0.83589 0.614097,1.48407 l 0,9.46732 c -6e-6,1.67173 0.05117,2.72934 0.153524,3.17284 0.13646,0.44353 0.597032,1.07468 1.381718,1.89346 l 1.177019,1.17702 c 0.818786,0.71646 1.296417,1.33056 1.432892,1.84229 0.136456,0.47765 0.204689,1.56937 0.204699,3.27518 l 0,7.31799 c -1e-5,1.87641 -0.921154,2.81461 -2.763436,2.81461" />
        <path
           id="path2917"
           style="font-size:51.17473221px;fill:#666666"
           d="m 101.94499,694.70736 c -2e-5,-1.87638 0.85289,-2.81458 2.55873,-2.81461 l 3.01931,0 c 0.887,3e-5 1.56933,0.20473 2.04699,0.6141 0.51172,0.37531 0.76759,1.00646 0.76762,1.89346 l 0,2.20051 c -3e-5,0.5459 -3e-5,1.00647 0,1.38172 -3e-5,0.34119 -3e-5,0.61413 0,0.8188 -3e-5,1.46703 -0.0853,2.45641 -0.25587,2.96813 -0.13649,0.47766 -0.56295,0.97234 -1.27937,1.48407 l -6.90859,4.2475 c -0.47765,0.30707 -0.71646,0.63117 -0.71644,0.97232 -2e-5,0.34118 0.22173,0.64823 0.66527,0.92115 l 7.31799,4.81042 c 0.81876,0.57999 1.29639,1.14291 1.43289,1.68877 0.13643,0.51175 0.20467,1.65466 0.2047,3.42871 l 0,3.53105 c -3e-5,0.64822 -0.22179,1.15996 -0.66527,1.53524 -0.40943,0.34117 -0.92118,0.51175 -1.53525,0.51175 -0.61412,0 -1.12587,-0.17058 -1.53524,-0.51175 -0.40942,-0.34116 -0.61412,-0.83585 -0.6141,-1.48406 l 0,-3.07049 c -2e-5,-1.12583 -0.0682,-1.80816 -0.20469,-2.04699 -0.1365,-0.27292 -0.64824,-0.73349 -1.53525,-1.38171 l -6.601537,-4.29868 c -0.75058,-0.4435 -1.347617,-0.66526 -1.791116,-0.66527 -0.409413,10e-6 -1.006451,0.22177 -1.791115,0.66527 l -1.94464,1.22819 c -0.852923,0.61411 -1.330554,0.98939 -1.432892,1.12585 -0.20471,0.30705 -0.307059,0.98938 -0.307049,2.04699 l 0,5.62922 c -10e-6,1.84229 -0.938213,2.76343 -2.81461,2.76343 l -3.070484,0 c -1.87641,0 -2.814612,-0.88703 -2.81461,-2.66108 l 0,-6.14097 c 0.102347,-0.98937 0.631152,-1.82522 1.586416,-2.50756 l 7.010939,-4.40103 c 0.47762,-0.27292 0.716435,-0.59702 0.716446,-0.97232 -1.1e-5,-0.34115 -0.221768,-0.6482 -0.665272,-0.92115 l -7.113287,-4.60572 c -0.6141,-0.47761 -1.023497,-0.95524 -1.228194,-1.43289 -0.170584,-0.47761 -0.255875,-1.14288 -0.255874,-1.99582 l 0,-5.271 c -10e-7,-0.64818 0.204697,-1.14287 0.614097,-1.48406 0.443512,-0.37525 0.972317,-0.56289 1.586417,-0.56293 0.614092,4e-5 1.125839,0.17062 1.535242,0.51175 0.409392,0.3412 0.614091,0.83589 0.614097,1.48407 l 0,1.94464 c -6e-6,1.94467 0.05117,3.03639 0.153524,3.27518 0.102343,0.23884 0.648206,0.73353 1.637591,1.48407 l 6.192143,3.99163 c 0.852897,0.47765 1.449935,0.71646 1.791115,0.71644 0.341149,2e-5 0.938187,-0.23879 1.791116,-0.71644 l 2.046987,-1.33055 c 0.81878,-0.54584 1.31347,-0.97229 1.48407,-1.27936 0.17056,-0.34115 0.25585,-1.27935 0.25587,-2.81461 l 0,-2.25169 0.0512,-2.25169" />
        <path
           id="path2919"
           style="font-size:51.17473221px;fill:#666666"
           d="m 112.81083,722.08584 0,-27.37848 c 0,-0.75053 0.27293,-1.39874 0.81879,-1.94464 0.57998,-0.57995 1.22819,-0.86994 1.94464,-0.86997 l 12.84486,0 c 0.71643,3e-5 1.24523,0.20473 1.58642,0.6141 0.37526,0.37531 0.5629,0.83588 0.56292,1.38171 -2e-5,0.58001 -0.1706,1.05765 -0.51175,1.4329 -0.34118,0.37531 -0.85293,0.56295 -1.53524,0.56292 l -7.06211,0 c -0.54588,3e-5 -1.00645,3e-5 -1.38172,0 -0.34117,3e-5 -0.59705,3e-5 -0.76762,0 -1.05762,3e-5 -1.68877,0.11944 -1.89347,0.35822 -0.2047,0.23885 -0.30705,0.92117 -0.30705,2.04699 l 0,3.47988 c 0,0.37531 0,0.75059 0,1.12585 0,0.3753 0,0.66529 0,0.86997 0,1.09174 0.10235,1.75702 0.30705,1.99581 0.2047,0.23884 0.81879,0.35824 1.84229,0.35822 l 9.3138,0 c 0.61408,2e-5 1.09171,0.20472 1.4329,0.6141 0.37526,0.3753 0.5629,0.81881 0.56292,1.33054 -2e-5,0.54588 -0.18766,1.02352 -0.56292,1.4329 -0.34119,0.37529 -0.83587,0.56293 -1.48407,0.56292 l -2.71226,0 c -0.54588,10e-6 -1.00645,10e-6 -1.38172,0 -0.34118,10e-6 -0.59705,10e-6 -0.76762,0 -1.05762,10e-6 -1.68878,0.11942 -1.89346,0.35822 -0.20471,0.23883 -0.30706,0.92116 -0.30705,2.04699 l 0,4.14516 c -1e-5,0.37528 -1e-5,0.75057 0,1.12584 -1e-5,0.37529 -1e-5,0.66528 0,0.86997 -1e-5,1.09173 0.10234,1.757 0.30705,1.99581 0.20468,0.23882 0.81878,0.35823 1.84229,0.35823 l 4.96394,0 c 0.61408,0 1.09171,0.2047 1.4329,0.61409 0.37526,0.37529 0.5629,0.83586 0.56292,1.38172 -2e-5,0.54587 -0.1706,1.00644 -0.51175,1.38172 -0.34118,0.37528 -0.85293,0.56292 -1.53524,0.56292 l -12.94721,0 c -1.84229,0 -2.76343,-0.9382 -2.76343,-2.81461" />
        <path
           id="path2921"
           style="font-size:51.17473221px;fill:#666666"
           d="m 143.04069,706.11932 c 0.44351,2e-5 0.8529,2e-5 1.2282,0 0.37527,2e-5 0.66526,2e-5 0.86997,0 1.0576,2e-5 1.68875,-0.11938 1.89346,-0.35822 0.20469,-0.23879 0.30704,-0.92112 0.30705,-2.04699 l 0,-3.47988 c -1e-5,-0.37526 -1e-5,-0.75054 0,-1.12584 -1e-5,-0.37526 -1e-5,-0.66525 0,-0.86997 -1e-5,-1.0917 -0.10236,-1.75697 -0.30705,-1.99582 -0.20471,-0.23878 -0.81881,-0.35819 -1.84229,-0.35822 l -3.94045,0 c -0.54587,3e-5 -1.00645,3e-5 -1.38172,0 -0.34117,3e-5 -0.59704,3e-5 -0.76762,0 -1.05762,3e-5 -1.68877,0.11944 -1.89346,0.35822 -0.20471,0.23885 -0.30706,0.92117 -0.30705,2.04699 l 0,3.47988 c -1e-5,0.37531 -1e-5,0.75059 0,1.12585 -1e-5,0.3753 -1e-5,0.66529 0,0.86997 -1e-5,1.09174 0.10234,1.75702 0.30705,1.99581 0.20469,0.23884 0.81878,0.35824 1.84229,0.35822 l 3.99162,0 m -1.79111,15.96652 c -1e-5,0.92115 -0.23883,1.62054 -0.71645,2.09817 -0.47764,0.47763 -1.14291,0.71644 -1.99581,0.71644 l -3.17284,0 c -1.84229,0 -2.76343,-0.9382 -2.76343,-2.81461 l 0,-27.37848 c 0,-0.75053 0.27293,-1.39874 0.8188,-1.94464 0.57997,-0.57995 1.22819,-0.86994 1.94463,-0.86997 l 13.51013,0 c 0.71643,3e-5 1.36465,0.27296 1.94464,0.8188 0.57996,0.54589 0.86995,1.21116 0.86997,1.99581 l 0,8.64853 c -2e-5,1.1941 0.10233,1.96172 0.30705,2.30286 0.2388,0.30707 0.86995,0.46059 1.89347,0.46057 1.05759,2e-5 1.58639,0.7847 1.58641,2.35404 l 0,14.63598 c -2e-5,0.61409 -0.23883,1.10878 -0.71644,1.48406 -0.44354,0.34117 -0.95529,0.51175 -1.53524,0.51175 -0.64824,0 -1.15998,-0.17058 -1.53525,-0.51175 -0.3753,-0.34116 -0.56294,-0.85291 -0.56292,-1.53524 l 0,-8.495 c -2e-5,-0.57997 -2e-5,-1.04055 0,-1.38172 -2e-5,-0.37527 -2e-5,-0.66526 0,-0.86997 -2e-5,-1.0576 -0.11942,-1.68875 -0.35822,-1.89347 -0.20472,-0.2388 -0.80176,-0.35821 -1.79112,-0.35822 l -3.224,0 c -0.58,10e-6 -1.05763,10e-6 -1.4329,0 -0.34117,10e-6 -0.59705,10e-6 -0.76762,0 -1.05762,10e-6 -1.70583,0.11942 -1.94464,0.35822 -0.23882,0.23883 -0.35823,0.92116 -0.35822,2.04699 l 0,9.62085" />
      </g>
      <g
         id="text2834"
         style="font-size:30.92720795px;font-style:normal;font-variant:normal;font-weight:normal;font-stretch:normal;text-align:center;line-height:100%;writing-mode:lr-tb;text-anchor:middle;fill:#808080;fill-opacity:1;stroke:none;filter:url(#filter2923);font-family:CType;-inkscape-font-specification:CType"
         transform="scale(0.7532075,1.3276554)">
        <path
           id="path2906"
           style="fill:#808080;fill-opacity:1"
           d="m 59.964477,715.83741 c -2.453594,-2.47415 -5.855583,-4.21639 -10.205978,-5.2267 l 0,4.51537 c 3.072071,0.84537 5.443155,2.11338 7.113257,3.80405 1.298907,1.29896 1.948378,2.64945 1.948415,4.05146 -3.7e-5,1.4639 -0.649508,2.83501 -1.948415,4.11332 -1.278358,1.25772 -3.01028,2.29893 -5.19577,3.12365 L 35.191784,710.61071 c -3.999929,0.92784 -7.236973,2.51544 -9.711144,4.76279 -2.474177,2.22678 -3.711265,4.76281 -3.711265,7.60809 0,2.61852 1.072143,4.99991 3.21643,7.14419 2.474171,2.47418 5.876161,4.21641 10.205979,5.2267 l 0,-4.51537 c -3.072113,-0.84534 -5.443197,-2.10305 -7.113258,-3.77312 -1.298948,-1.29894 -1.948419,-2.65973 -1.948414,-4.0824 -5e-6,-1.40201 0.639157,-2.74219 1.917487,-4.02053 1.298935,-1.29893 3.041166,-2.36076 5.226698,-3.1855 l 16.484202,19.57692 c 4.350395,-1.01029 7.752384,-2.75252 10.205978,-5.2267 2.144246,-2.14428 3.216389,-4.52567 3.21643,-7.14419 -4.1e-5,-2.61848 -1.072184,-4.99988 -3.21643,-7.14418" />
        <path
           id="path2908"
           style="fill:#808080;fill-opacity:1"
           d="m 84.683048,735.35248 c 3.381352,0 6.515306,-0.49484 9.401872,-1.48451 2.907126,-1.01028 5.247282,-2.40201 7.02048,-4.17517 2.02054,-2.02057 3.03082,-4.25764 3.03086,-6.71121 -4e-5,-2.45354 -1.01032,-4.6906 -3.03086,-6.7112 -1.773198,-1.77314 -4.113354,-3.15455 -7.02048,-4.14425 -2.886566,-1.01026 -6.02052,-1.5154 -9.401872,-1.51543 -5.443202,3e-5 -10.041042,1.19588 -13.793534,3.58756 -3.752503,2.39172 -5.628752,5.31949 -5.628752,8.78332 0,2.45357 1.010288,4.69064 3.030866,6.71121 1.773155,1.77316 4.103003,3.16489 6.989549,4.17517 2.907145,0.98967 6.041099,1.48451 9.401871,1.48451 M 69.343153,722.98159 c -4e-6,-1.31954 0.61854,-2.58756 1.855633,-3.80404 1.36079,-1.3814 3.247347,-2.47416 5.659679,-3.27829 2.432926,-0.80408 5.041118,-1.20614 7.824583,-1.20616 2.804045,2e-5 5.412237,0.40208 7.824584,1.20616 2.412293,0.80413 4.30916,1.89689 5.690606,3.27829 1.216436,1.21648 1.824672,2.4845 1.824702,3.80404 -3e-5,2.24739 -1.515463,4.1958 -4.546296,5.84525 -3.030894,1.62883 -6.628755,2.44325 -10.793596,2.44325 -2.783465,0 -5.391657,-0.40205 -7.824583,-1.20616 -2.412332,-0.80411 -4.298889,-1.89687 -5.659679,-3.27829 -1.237093,-1.21646 -1.855637,-2.48447 -1.855633,-3.80405" />
        <path
           id="path2910"
           style="fill:#808080;fill-opacity:1"
           d="m 144.28944,715.83741 c -2.45359,-2.47415 -5.85558,-4.21639 -10.20597,-5.2267 l 0,4.51537 c 3.07207,0.84537 5.44315,2.11338 7.11325,3.80405 1.29891,1.29896 1.94838,2.64945 1.94842,4.05146 -4e-5,1.4639 -0.64951,2.83501 -1.94842,4.11332 -1.27836,1.25772 -3.01028,2.29893 -5.19577,3.12365 l -16.4842,-19.60785 c -3.99993,0.92784 -7.23697,2.51544 -9.71114,4.76279 -2.47418,2.22678 -3.71127,4.76281 -3.71127,7.60809 0,2.61852 1.07214,4.99991 3.21643,7.14419 2.47417,2.47418 5.87616,4.21641 10.20598,5.2267 l 0,-4.51537 c -3.07211,-0.84534 -5.4432,-2.10305 -7.11326,-3.77312 -1.29895,-1.29894 -1.94842,-2.65973 -1.94841,-4.0824 -10e-6,-1.40201 0.63916,-2.74219 1.91749,-4.02053 1.29893,-1.29893 3.04116,-2.36076 5.22669,-3.1855 l 16.48421,19.57692 c 4.35039,-1.01029 7.75238,-2.75252 10.20597,-5.2267 2.14425,-2.14428 3.21639,-4.52567 3.21643,-7.14419 -4e-5,-2.61848 -1.07218,-4.99988 -3.21643,-7.14418" />
      </g>
    </g>
  </g>
</svg>
