<?xml version="1.0" encoding="UTF-8" standalone="no"?>
<!-- Created with Inkscape (http://www.inkscape.org/) -->

<svg
   xmlns:dc="http://purl.org/dc/elements/1.1/"
   xmlns:cc="http://creativecommons.org/ns#"
   xmlns:rdf="http://www.w3.org/1999/02/22-rdf-syntax-ns#"
   xmlns:svg="http://www.w3.org/2000/svg"
   xmlns="http://www.w3.org/2000/svg"
   xmlns:xlink="http://www.w3.org/1999/xlink"
   xmlns:sodipodi="http://sodipodi.sourceforge.net/DTD/sodipodi-0.dtd"
   xmlns:inkscape="http://www.inkscape.org/namespaces/inkscape"
   width="512"
   height="512"
   id="svg3137"
   version="1.1"
   inkscape:version="0.48.3.1 r9886"
   sodipodi:docname="icon-large.svg">
  <defs
     id="defs3139">
    <linearGradient
       inkscape:collect="always"
       xlink:href="#SVGID_1_"
       id="linearGradient3813"
       x1="0"
       y1="150"
       x2="300"
       y2="150"
       gradientUnits="userSpaceOnUse"
       gradientTransform="translate(-5.5328369e-8,-300.00001)" />
    <linearGradient
       id="SVGID_1_"
       gradientUnits="userSpaceOnUse"
       x1="149.9995"
       y1="4"
       x2="149.9995"
       y2="304">
      <stop
         offset="0.3398"
         style="stop-color:#fdf7ff;stop-opacity:1;"
         id="stop6" />
      <stop
         offset="0.99440002"
         style="stop-color:#fb0000;stop-opacity:1;"
         id="stop22" />
    </linearGradient>
    <linearGradient
       y2="150"
       x2="300"
       y1="150"
       x1="0"
       gradientTransform="matrix(1.7066667,0,0,1.7066667,-186.78068,-642.00002)"
       gradientUnits="userSpaceOnUse"
       id="linearGradient3135"
       xlink:href="#SVGID_1_"
       inkscape:collect="always" />
  </defs>
  <sodipodi:namedview
     id="base"
     pagecolor="#ffffff"
     bordercolor="#666666"
     borderopacity="1.0"
     inkscape:pageopacity="0.0"
     inkscape:pageshadow="2"
     inkscape:zoom="0.7"
     inkscape:cx="69.676097"
     inkscape:cy="85.867964"
     inkscape:document-units="px"
     inkscape:current-layer="layer1"
     showgrid="false"
     fit-margin-top="0"
     fit-margin-left="0"
     fit-margin-right="0"
     fit-margin-bottom="0"
     inkscape:window-width="1918"
     inkscape:window-height="1059"
     inkscape:window-x="1"
     inkscape:window-y="20"
     inkscape:window-maximized="0" />
  <metadata
     id="metadata3142">
    <rdf:RDF>
      <cc:Work
         rdf:about="">
        <dc:format>image/svg+xml</dc:format>
        <dc:type
           rdf:resource="http://purl.org/dc/dcmitype/StillImage" />
        <dc:title></dc:title>
      </cc:Work>
    </rdf:RDF>
  </metadata>
  <g
     inkscape:label="Layer 1"
     inkscape:groupmode="layer"
     id="layer1"
     transform="translate(-130,186.78068)">
    <rect
       width="512"
       height="512"
       id="rect24"
       style="fill:url(#linearGradient3135);fill-opacity:1"
       x="-186.78067"
       y="-642"
       transform="matrix(0,1,-1,0,0,0)" />
    <g
       id="g3922">
      <path
         id="path3840"
         d="m 286.55458,172.69774 -15.85773,0 0,-4.86682 c -3e-5,-2.27113 -0.20281,-3.71766 -0.60836,-4.33959 -0.40559,-0.62181 -1.08153,-0.93275 -2.02784,-0.9328 -1.02746,5e-5 -1.81156,0.41914 -2.3523,1.25726 -0.51373,0.83823 -0.77059,2.10901 -0.77058,3.81234 -10e-6,2.19012 0.2974,3.83943 0.89225,4.94794 0.56778,1.1086 2.17653,2.44697 4.82627,4.01513 7.59762,4.51537 12.38333,8.21956 14.35713,11.11258 1.97373,2.89308 2.96061,7.55712 2.96065,13.99212 -4e-5,4.67757 -0.55432,8.12489 -1.66283,10.34199 -1.08156,2.21712 -3.19051,4.08273 -6.32687,5.59685 -3.13643,1.48709 -6.78654,2.23063 -10.95035,2.23063 -4.56943,0 -8.4764,-0.86522 -11.72094,-2.59564 -3.21751,-1.73042 -5.32647,-3.93401 -6.32687,-6.61077 -1.0004,-2.67674 -1.5006,-6.47556 -1.5006,-11.39648 l 0,-4.29902 15.85773,0 0,7.9897 c -2e-5,2.46046 0.21629,4.04218 0.64891,4.74515 0.45963,0.703 1.25724,1.05449 2.39286,1.05448 1.13557,1e-5 1.97374,-0.44612 2.51452,-1.33838 0.56777,-0.89224 0.85167,-2.21709 0.8517,-3.97457 -3e-5,-3.8664 -0.52727,-6.39444 -1.58172,-7.58413 -1.08154,-1.18965 -3.74477,-3.17693 -7.9897,-5.96186 -4.24497,-2.81191 -7.0569,-4.85327 -8.43583,-6.12409 -1.37894,-1.27074 -2.52805,-3.0282 -3.44733,-5.27239 -0.89226,-2.2441 -1.33838,-5.11012 -1.33838,-8.59805 0,-5.029 0.63539,-8.70615 1.90617,-11.03147 1.29782,-2.3252 3.37973,-4.13673 6.24576,-5.43462 2.866,-1.32479 6.32685,-1.98722 10.38256,-1.98728 4.43419,6e-5 8.20597,0.71657 11.31536,2.14951 3.13636,1.43307 5.20476,3.24461 6.2052,5.43462 1.0274,2.16309 1.54112,5.85376 1.54116,11.07202 l 0,2.59564"
         style="font-size:83.06044769px;font-style:normal;font-variant:normal;font-weight:bold;font-stretch:normal;text-align:center;line-height:100%;letter-spacing:0px;word-spacing:0px;writing-mode:lr-tb;text-anchor:middle;fill:#000000;fill-opacity:1;stroke:none;font-family:Impact;-inkscape-font-specification:Impact Bold" />
      <path
         id="path3842"
         d="m 293.36813,152.82488 28.47092,0 0,13.14042 -11.39648,0 0,12.45096 10.66645,0 0,12.49151 -10.66645,0 0,14.43824 12.53207,0 0,13.14042 -29.60651,0 0,-65.66155"
         style="font-size:83.06044769px;font-style:normal;font-variant:normal;font-weight:bold;font-stretch:normal;text-align:center;line-height:100%;letter-spacing:0px;word-spacing:0px;writing-mode:lr-tb;text-anchor:middle;fill:#000000;fill-opacity:1;stroke:none;font-family:Impact;-inkscape-font-specification:Impact Bold" />
      <path
         id="path3844"
         d="m 364.0993,172.69774 -15.85774,0 0,-4.86682 c -2e-5,-2.27113 -0.2028,-3.71766 -0.60835,-4.33959 -0.40559,-0.62181 -1.08154,-0.93275 -2.02784,-0.9328 -1.02746,5e-5 -1.81156,0.41914 -2.3523,1.25726 -0.51374,0.83823 -0.7706,2.10901 -0.77058,3.81234 -2e-5,2.19012 0.2974,3.83943 0.89225,4.94794 0.56778,1.1086 2.17653,2.44697 4.82627,4.01513 7.59762,4.51537 12.38332,8.21956 14.35712,11.11258 1.97373,2.89308 2.96061,7.55712 2.96066,13.99212 -5e-5,4.67757 -0.55432,8.12489 -1.66284,10.34199 -1.08155,2.21712 -3.19051,4.08273 -6.32687,5.59685 -3.13642,1.48709 -6.78654,2.23063 -10.95035,2.23063 -4.56942,0 -8.4764,-0.86522 -11.72093,-2.59564 -3.21752,-1.73042 -5.32647,-3.93401 -6.32687,-6.61077 -1.00041,-2.67674 -1.50061,-6.47556 -1.5006,-11.39648 l 0,-4.29902 15.85773,0 0,7.9897 c -2e-5,2.46046 0.21628,4.04218 0.64891,4.74515 0.45962,0.703 1.25724,1.05449 2.39285,1.05448 1.13557,1e-5 1.97375,-0.44612 2.51453,-1.33838 0.56777,-0.89224 0.85167,-2.21709 0.85169,-3.97457 -2e-5,-3.8664 -0.52726,-6.39444 -1.58172,-7.58413 -1.08153,-1.18965 -3.74477,-3.17693 -7.9897,-5.96186 -4.24496,-2.81191 -7.0569,-4.85327 -8.43582,-6.12409 -1.37894,-1.27074 -2.52805,-3.0282 -3.44734,-5.27239 -0.89225,-2.2441 -1.33838,-5.11012 -1.33837,-8.59805 -10e-6,-5.029 0.63538,-8.70615 1.90617,-11.03147 1.29781,-2.3252 3.37973,-4.13673 6.24576,-5.43462 2.866,-1.32479 6.32685,-1.98722 10.38255,-1.98728 4.43419,6e-5 8.20598,0.71657 11.31536,2.14951 3.13637,1.43307 5.20476,3.24461 6.2052,5.43462 1.02741,2.16309 1.54113,5.85376 1.54117,11.07202 l 0,2.59564"
         style="font-size:83.06044769px;font-style:normal;font-variant:normal;font-weight:bold;font-stretch:normal;text-align:center;line-height:100%;letter-spacing:0px;word-spacing:0px;writing-mode:lr-tb;text-anchor:middle;fill:#000000;fill-opacity:1;stroke:none;font-family:Impact;-inkscape-font-specification:Impact Bold" />
      <path
         id="path3846"
         d="m 407.08957,172.69774 -15.85773,0 0,-4.86682 c -3e-5,-2.27113 -0.20281,-3.71766 -0.60836,-4.33959 -0.40559,-0.62181 -1.08154,-0.93275 -2.02784,-0.9328 -1.02746,5e-5 -1.81156,0.41914 -2.3523,1.25726 -0.51374,0.83823 -0.7706,2.10901 -0.77058,3.81234 -2e-5,2.19012 0.2974,3.83943 0.89225,4.94794 0.56778,1.1086 2.17653,2.44697 4.82627,4.01513 7.59762,4.51537 12.38332,8.21956 14.35713,11.11258 1.97372,2.89308 2.96061,7.55712 2.96065,13.99212 -4e-5,4.67757 -0.55432,8.12489 -1.66283,10.34199 -1.08156,2.21712 -3.19051,4.08273 -6.32687,5.59685 -3.13643,1.48709 -6.78654,2.23063 -10.95036,2.23063 -4.56942,0 -8.47639,-0.86522 -11.72093,-2.59564 -3.21752,-1.73042 -5.32647,-3.93401 -6.32687,-6.61077 -1.0004,-2.67674 -1.5006,-6.47556 -1.5006,-11.39648 l 0,-4.29902 15.85773,0 0,7.9897 c -2e-5,2.46046 0.21628,4.04218 0.64891,4.74515 0.45962,0.703 1.25724,1.05449 2.39285,1.05448 1.13557,1e-5 1.97375,-0.44612 2.51453,-1.33838 0.56777,-0.89224 0.85167,-2.21709 0.85169,-3.97457 -2e-5,-3.8664 -0.52726,-6.39444 -1.58171,-7.58413 -1.08154,-1.18965 -3.74477,-3.17693 -7.9897,-5.96186 -4.24497,-2.81191 -7.05691,-4.85327 -8.43583,-6.12409 -1.37894,-1.27074 -2.52805,-3.0282 -3.44733,-5.27239 -0.89226,-2.2441 -1.33838,-5.11012 -1.33838,-8.59805 0,-5.029 0.63539,-8.70615 1.90617,-11.03147 1.29782,-2.3252 3.37973,-4.13673 6.24576,-5.43462 2.866,-1.32479 6.32685,-1.98722 10.38255,-1.98728 4.4342,6e-5 8.20598,0.71657 11.31537,2.14951 3.13636,1.43307 5.20476,3.24461 6.2052,5.43462 1.0274,2.16309 1.54112,5.85376 1.54116,11.07202 l 0,2.59564"
         style="font-size:83.06044769px;font-style:normal;font-variant:normal;font-weight:bold;font-stretch:normal;text-align:center;line-height:100%;letter-spacing:0px;word-spacing:0px;writing-mode:lr-tb;text-anchor:middle;fill:#000000;fill-opacity:1;stroke:none;font-family:Impact;-inkscape-font-specification:Impact Bold" />
      <path
         id="path3848"
         d="m 430.97757,152.82488 0,65.66155 -17.07444,0 0,-65.66155 17.07444,0"
         style="font-size:83.06044769px;font-style:normal;font-variant:normal;font-weight:bold;font-stretch:normal;text-align:center;line-height:100%;letter-spacing:0px;word-spacing:0px;writing-mode:lr-tb;text-anchor:middle;fill:#000000;fill-opacity:1;stroke:none;font-family:Impact;-inkscape-font-specification:Impact Bold" />
      <path
         id="path3894"
         transform="translate(130,-186.78068)"
         d="M 327.1875 338.21875 C 323.48328 338.21881 320.22239 338.84586 317.4375 340.0625 C 314.65259 341.27927 312.43055 343.01013 310.78125 345.28125 C 309.15897 347.55249 308.19945 350.05468 307.875 352.8125 C 307.57758 355.54337 307.43749 360.2153 307.4375 366.8125 L 307.4375 378.0625 C 307.43749 384.822 307.58179 389.54623 307.90625 392.25 C 308.2307 394.9538 309.26536 397.45179 310.96875 399.75 C 312.67213 402.04823 314.90259 403.77487 317.6875 404.9375 C 320.49943 406.07309 323.67255 406.65625 327.1875 406.65625 C 330.89166 406.65625 334.12132 406.0292 336.90625 404.8125 C 339.69112 403.5958 341.90894 401.86494 343.53125 399.59375 C 345.18052 397.32258 346.14005 394.82458 346.4375 392.09375 C 346.76192 389.3359 346.93745 384.65977 346.9375 378.0625 L 346.9375 366.8125 C 346.93745 360.05307 346.76192 355.32884 346.4375 352.625 C 346.11301 349.92127 345.1096 347.42328 343.40625 345.125 C 341.70282 342.82684 339.43691 341.10441 336.625 339.96875 C 333.84007 338.80619 330.7024 338.21881 327.1875 338.21875 z M 327.25 349.34375 C 328.30445 349.3438 328.98802 349.75984 329.3125 350.625 C 329.66397 351.46322 329.84372 353.41352 329.84375 356.46875 L 329.84375 386.65625 C 329.84372 390.52268 329.69943 392.97257 329.375 394 C 329.05052 395.02745 328.28761 395.53126 327.125 395.53125 C 325.98939 395.53126 325.26193 395.07976 324.9375 394.1875 C 324.64006 393.29526 324.49998 390.93736 324.5 387.125 L 324.5 356.46875 C 324.49998 353.08907 324.72784 351.08226 325.1875 350.40625 C 325.67416 349.70332 326.35773 349.3438 327.25 349.34375 z "
         style="font-size:83.06044769px;font-style:normal;font-variant:normal;font-weight:bold;font-stretch:normal;text-align:center;line-height:100%;letter-spacing:0px;word-spacing:0px;writing-mode:lr-tb;text-anchor:middle;fill:#000000;fill-opacity:1;stroke:none;font-family:Impact;-inkscape-font-specification:Impact Bold" />
      <path
         id="path3852"
         d="m 521.45991,152.82488 0,65.66155 -14.96548,0 -8.88195,-29.84984 0,29.84984 -14.27602,0 0,-65.66155 14.27602,0 9.57142,29.56595 0,-29.56595 14.27601,0"
         style="font-size:83.06044769px;font-style:normal;font-variant:normal;font-weight:bold;font-stretch:normal;text-align:center;line-height:100%;letter-spacing:0px;word-spacing:0px;writing-mode:lr-tb;text-anchor:middle;fill:#000000;fill-opacity:1;stroke:none;font-family:Impact;-inkscape-font-specification:Impact Bold" />
      <path
         id="path3854"
         d="m 285.05398,235.88533 0,65.66155 -14.92493,0 0,-44.32864 -5.96186,44.32864 -10.58534,0 -6.28631,-43.31472 0,43.31472 -14.92492,0 0,-65.66155 22.10348,0 c 0.64889,3.94759 1.33835,8.59811 2.0684,13.95156 l 2.3523,16.70942 3.89346,-30.66098 22.26572,0"
         style="font-size:83.06044769px;font-style:normal;font-variant:normal;font-weight:bold;font-stretch:normal;text-align:center;line-height:100%;letter-spacing:0px;word-spacing:0px;writing-mode:lr-tb;text-anchor:middle;fill:#000000;fill-opacity:1;stroke:none;font-family:Impact;-inkscape-font-specification:Impact Bold" />
      <path
         id="path3902"
         transform="translate(130,-186.78068)"
         d="M 166.6875 422.65625 L 158 488.3125 L 175.6875 488.3125 L 176.71875 476.53125 L 182.84375 476.53125 L 183.6875 488.3125 L 201.15625 488.3125 L 191.40625 422.65625 L 166.6875 422.65625 z M 179.75 437.34375 C 180.61519 448.2671 181.47851 457.4396 182.34375 464.875 L 176.5 464.875 C 176.93259 459.06188 178.01956 449.88938 179.75 437.34375 z "
         style="font-size:83.06044769px;font-style:normal;font-variant:normal;font-weight:bold;font-stretch:normal;text-align:center;line-height:100%;letter-spacing:0px;word-spacing:0px;writing-mode:lr-tb;text-anchor:middle;fill:#000000;fill-opacity:1;stroke:none;font-family:Impact;-inkscape-font-specification:Impact Bold" />
      <path
         id="path3858"
         d="m 372.21066,235.88533 0,65.66155 -14.96548,0 -8.88195,-29.84985 0,29.84985 -14.27602,0 0,-65.66155 14.27602,0 9.57142,29.56595 0,-29.56595 14.27601,0"
         style="font-size:83.06044769px;font-style:normal;font-variant:normal;font-weight:bold;font-stretch:normal;text-align:center;line-height:100%;letter-spacing:0px;word-spacing:0px;writing-mode:lr-tb;text-anchor:middle;fill:#000000;fill-opacity:1;stroke:none;font-family:Impact;-inkscape-font-specification:Impact Bold" />
      <path
         id="path3908"
         transform="translate(130,-186.78068)"
         d="M 253.8125 422.65625 L 245.125 488.3125 L 262.8125 488.3125 L 263.8125 476.53125 L 269.9375 476.53125 L 270.8125 488.3125 L 288.28125 488.3125 L 278.5 422.65625 L 253.8125 422.65625 z M 266.875 437.34375 C 267.74019 448.2671 268.60351 457.4396 269.46875 464.875 L 263.625 464.875 C 264.05759 459.06188 265.14455 449.88938 266.875 437.34375 z "
         style="font-size:83.06044769px;font-style:normal;font-variant:normal;font-weight:bold;font-stretch:normal;text-align:center;line-height:100%;letter-spacing:0px;word-spacing:0px;writing-mode:lr-tb;text-anchor:middle;fill:#000000;fill-opacity:1;stroke:none;font-family:Impact;-inkscape-font-specification:Impact Bold" />
      <path
         id="path3862"
         d="m 460.38127,260.05722 -17.07443,0 0,-5.96186 c -3e-5,-3.75822 -0.16226,-6.11052 -0.48669,-7.0569 -0.32448,-0.94627 -1.09505,-1.41943 -2.31174,-1.41949 -1.0545,6e-5 -1.771,0.40563 -2.14951,1.21671 -0.37855,0.81119 -0.56782,2.89311 -0.5678,6.24576 l 0,31.51268 c -2e-5,2.94714 0.18925,4.89387 0.5678,5.84018 0.37851,0.9193 1.13557,1.37895 2.27118,1.37894 1.24372,10e-6 2.0819,-0.52723 2.51453,-1.58172 0.45962,-1.05447 0.68944,-3.10935 0.68947,-6.16464 l 0,-7.78692 -3.44734,0 0,-9.97699 19.99453,0 0,35.24391 -10.74756,0 -1.58172,-4.70459 c -1.16266,2.02784 -2.63622,3.55548 -4.4207,4.58292 -1.75749,1.0004 -3.8394,1.5006 -6.24575,1.50061 -2.86604,-10e-6 -5.55631,-0.68947 -8.07082,-2.0684 -2.4875,-1.40597 -4.38015,-3.1364 -5.67796,-5.19128 -1.29782,-2.05487 -2.10896,-4.20439 -2.43341,-6.44854 -0.32446,-2.27117 -0.48669,-5.66443 -0.48668,-10.17977 l 0,-19.50785 c -1e-5,-6.27275 0.33797,-10.82863 1.01392,-13.66767 0.67594,-2.83892 2.60915,-5.43455 5.79963,-7.78691 3.2175,-2.37927 7.36781,-3.56894 12.45095,-3.56901 5.00199,7e-5 9.1523,1.02751 12.45096,3.08233 3.29859,2.05494 5.4481,4.50187 6.44854,7.34079 1.00036,2.81199 1.50056,6.90823 1.5006,12.28873 l 0,2.83898"
         style="font-size:83.06044769px;font-style:normal;font-variant:normal;font-weight:bold;font-stretch:normal;text-align:center;line-height:100%;letter-spacing:0px;word-spacing:0px;writing-mode:lr-tb;text-anchor:middle;fill:#000000;fill-opacity:1;stroke:none;font-family:Impact;-inkscape-font-specification:Impact Bold" />
      <path
         id="path3864"
         d="m 466.95149,235.88533 28.47091,0 0,13.14042 -11.39648,0 0,12.45096 10.66646,0 0,12.49151 -10.66646,0 0,14.43824 12.53207,0 0,13.14042 -29.6065,0 0,-65.66155"
         style="font-size:83.06044769px;font-style:normal;font-variant:normal;font-weight:bold;font-stretch:normal;text-align:center;line-height:100%;letter-spacing:0px;word-spacing:0px;writing-mode:lr-tb;text-anchor:middle;fill:#000000;fill-opacity:1;stroke:none;font-family:Impact;-inkscape-font-specification:Impact Bold" />
      <path
         id="path3916"
         transform="translate(130,-186.78068)"
         d="M 371.5 422.65625 L 371.5 488.3125 L 388.59375 488.3125 L 388.59375 458.71875 C 390.94602 458.71878 392.36547 459.1306 392.90625 459.96875 C 393.47402 460.80695 393.78122 462.9851 393.78125 466.5 L 393.78125 488.3125 L 409.625 488.3125 L 409.625 471 C 409.62496 465.7006 409.48488 462.47516 409.1875 461.3125 C 408.91708 460.12286 408.19384 458.8435 407.03125 457.4375 C 405.86858 456.03156 403.59845 454.90071 400.21875 454.0625 C 403.94994 453.71104 406.44793 452.66375 407.71875 450.90625 C 408.98949 449.14883 409.62496 445.70396 409.625 440.59375 C 409.62496 434.99696 408.71775 430.91663 406.90625 428.375 C 405.12171 425.80647 402.80348 424.21568 399.9375 423.59375 C 397.09849 422.97194 391.65103 422.65631 383.59375 422.65625 L 371.5 422.65625 z M 388.59375 433.90625 C 390.56749 433.9063 391.89496 434.22615 392.625 434.875 C 393.38204 435.52396 393.78122 436.88689 393.78125 438.96875 L 393.78125 442.59375 C 393.78122 445.48684 393.37782 447.17803 392.59375 447.71875 C 391.83666 448.23251 390.51342 448.50004 388.59375 448.5 L 388.59375 433.90625 z "
         style="font-size:83.06044769px;font-style:normal;font-variant:normal;font-weight:bold;font-stretch:normal;text-align:center;line-height:100%;letter-spacing:0px;word-spacing:0px;writing-mode:lr-tb;text-anchor:middle;fill:#000000;fill-opacity:1;stroke:none;font-family:Impact;-inkscape-font-specification:Impact Bold" />
    </g>
    <polygon
       points="0,0 300,0 300,110.426 150,188 0,110.426 "
       id="polygon26"
       style="fill:#000200"
       transform="matrix(1.7066667,0,0,1.7066667,130,-186.78068)" />
    <g
       id="g3827">
      <path
         id="path3811"
         d="m 247.89101,-128.45434 c -6e-5,1.1566 -0.40483,2.19744 -1.21431,3.12252 -0.8096,0.9253 -1.85043,1.38789 -3.12252,1.38778 -1.96608,0.23141 -3.29604,0.46271 -3.98988,0.69389 -3.58516,1.3879 -5.37771,4.22129 -5.37767,8.50019 l 0,82.226277 c -4e-5,4.510316 -1.33,8.44237 -3.98988,11.796175 -3.2382,4.279007 -8.03762,6.418507 -14.39827,6.418507 -6.12941,0 -10.81318,-2.081676 -14.05133,-6.245034 -2.77558,-3.469453 -4.16336,-7.459332 -4.16336,-11.969648 l 0,-82.226277 c 0,-4.5102 1.32996,-8.44225 3.98989,-11.79618 3.23815,-4.27888 7.97974,-6.41838 14.2248,-6.4185 l 27.40876,0 1.04083,0 0.6939,0.34694 c 1.96597,0.92531 2.94898,2.3131 2.94904,4.16336"
         style="font-size:173.47315979px;font-style:normal;font-variant:normal;font-weight:normal;font-stretch:normal;text-align:center;line-height:100%;letter-spacing:0px;word-spacing:0px;writing-mode:lr-tb;text-anchor:middle;fill:#e6e6e6;fill-opacity:1;stroke:none;font-family:Syndrome BRK;-inkscape-font-specification:Syndrome BRK" />
      <path
         id="path3809"
         d="m 261.59539,-128.45434 c -7e-5,1.27225 -0.46266,2.37091 -1.38779,3.29599 -0.92525,0.9253 -2.02391,1.38789 -3.29599,1.38779 -1.15655,1e-4 -2.19738,-0.46249 -3.12251,-1.38779 -0.92525,-0.92508 -1.38785,-2.02374 -1.38779,-3.29599 -6e-5,-1.27202 0.40471,-2.31286 1.21431,-3.12252 0.92513,-0.92507 2.02379,-1.38766 3.29599,-1.38778 1.27208,1.2e-4 2.37074,0.40489 3.29599,1.21431 0.92513,0.80966 1.38772,1.90832 1.38779,3.29599"
         style="font-size:173.47315979px;font-style:normal;font-variant:normal;font-weight:normal;font-stretch:normal;text-align:center;line-height:100%;letter-spacing:0px;word-spacing:0px;writing-mode:lr-tb;text-anchor:middle;fill:#e6e6e6;fill-opacity:1;stroke:none;font-family:Syndrome BRK;-inkscape-font-specification:Syndrome BRK" />
      <path
         id="path3798"
         d="m 316.23944,-32.523683 c -1.3e-4,4.510316 -1.33009,8.44237 -3.98989,11.796175 -3.23828,4.279007 -7.97987,6.418507 -14.2248,6.418507 -6.12948,0 -10.81325,-2.081676 -14.05132,-6.245034 -2.77566,-3.469453 -4.16345,-7.459332 -4.16336,-11.969648 l 0,-82.226277 c -9e-5,-2.77547 -0.80963,-4.97279 -2.42862,-6.59198 -1.61917,-1.61897 -3.87432,-2.42852 -6.76546,-2.42862 -1.15656,1e-4 -2.1974,-0.46249 -3.12251,-1.38779 -0.92527,-0.92508 -1.38786,-2.02374 -1.38779,-3.29599 -7e-5,-1.27202 0.4047,-2.31286 1.21431,-3.12252 0.92512,-0.92507 2.02378,-1.38766 3.29599,-1.38778 l 27.40876,0 c 6.01363,1.2e-4 10.6974,2.08179 14.05133,6.24503 2.77545,3.46957 4.16323,7.45945 4.16336,11.96965 l 0,82.226277"
         style="font-size:173.47315979px;font-style:normal;font-variant:normal;font-weight:normal;font-stretch:normal;text-align:center;line-height:100%;letter-spacing:0px;word-spacing:0px;writing-mode:lr-tb;text-anchor:middle;fill:#e6e6e6;fill-opacity:1;stroke:none;font-family:Syndrome BRK;-inkscape-font-specification:Syndrome BRK" />
      <path
         id="path3819"
         d="m 363.27506,-32.523683 c -5e-5,2.775586 0.80949,4.972911 2.42862,6.59198 1.61904,1.619093 3.81636,2.428634 6.59198,2.428625 1.27208,9e-6 2.37075,0.462603 3.29599,1.387785 0.92513,0.925197 1.38773,2.023859 1.38779,3.29599 -6e-5,1.156491 -0.46266,2.197329 -1.38779,3.122517 -0.92524,0.92519 -2.02391,1.387785 -3.29599,1.387785 l -27.40876,0 c -4.51032,0 -8.44237,-1.32996 -11.79617,-3.989883 -4.27902,-3.238158 -6.41852,-7.979753 -6.41851,-14.224799 l 0,-82.226277 c -10e-6,-4.5102 1.32995,-8.44225 3.98988,-11.79618 3.23815,-4.27888 7.97975,-6.41838 14.2248,-6.4185 l 27.40876,0 1.04084,0 0.69389,0.34694 c 1.96598,0.92531 2.94899,2.3131 2.94905,4.16336 -6e-5,1.1566 -0.40483,2.19744 -1.21432,3.12252 -0.80959,0.9253 -1.85043,1.38789 -3.12251,1.38778 -1.96608,0.23141 -3.29604,0.46271 -3.98989,0.69389 -3.58515,1.3879 -5.37771,4.22129 -5.37766,8.50019 l 0,82.226277"
         style="font-size:173.47315979px;font-style:normal;font-variant:normal;font-weight:normal;font-stretch:normal;text-align:center;line-height:100%;letter-spacing:0px;word-spacing:0px;writing-mode:lr-tb;text-anchor:middle;fill:#e6e6e6;fill-opacity:1;stroke:none;font-family:Syndrome BRK;-inkscape-font-specification:Syndrome BRK" />
      <path
         id="path3817"
         d="m 390.68381,-128.45434 c -6e-5,1.27225 -0.46266,2.37091 -1.38778,3.29599 -0.92526,0.9253 -2.02392,1.38789 -3.29599,1.38779 -1.15655,1e-4 -2.19739,-0.46249 -3.12252,-1.38779 -0.92525,-0.92508 -1.38784,-2.02374 -1.38778,-3.29599 -6e-5,-1.27202 0.40471,-2.31286 1.21431,-3.12252 0.92513,-0.92507 2.02379,-1.38766 3.29599,-1.38778 1.27207,1.2e-4 2.37073,0.40489 3.29599,1.21431 0.92512,0.80966 1.38772,1.90832 1.38778,3.29599"
         style="font-size:173.47315979px;font-style:normal;font-variant:normal;font-weight:normal;font-stretch:normal;text-align:center;line-height:100%;letter-spacing:0px;word-spacing:0px;writing-mode:lr-tb;text-anchor:middle;fill:#e6e6e6;fill-opacity:1;stroke:none;font-family:Syndrome BRK;-inkscape-font-specification:Syndrome BRK" />
      <path
         id="path3815"
         d="m 390.68381,-18.819303 c -6e-5,1.156491 -0.46266,2.197329 -1.38778,3.122517 -0.92526,0.92519 -2.02392,1.387785 -3.29599,1.387785 -1.2722,0 -2.37086,-0.40477 -3.29599,-1.214312 -0.8096,-0.925188 -1.21437,-2.02385 -1.21431,-3.29599 -6e-5,-1.272131 0.40471,-2.370793 1.21431,-3.29599 0.80948,-0.925182 1.90814,-1.387776 3.29599,-1.387785 1.27207,9e-6 2.37073,0.462603 3.29599,1.387785 0.92512,0.925197 1.38772,2.023859 1.38778,3.29599"
         style="font-size:173.47315979px;font-style:normal;font-variant:normal;font-weight:normal;font-stretch:normal;text-align:center;line-height:100%;letter-spacing:0px;word-spacing:0px;writing-mode:lr-tb;text-anchor:middle;fill:#e6e6e6;fill-opacity:1;stroke:none;font-family:Syndrome BRK;-inkscape-font-specification:Syndrome BRK" />
      <path
         id="path3800"
         d="m 445.32786,-32.523683 c -1.2e-4,6.129397 -2.0818,10.813168 -6.24503,14.051326 -3.46958,2.775572 -7.45946,4.163356 -11.96965,4.163356 l -27.40876,0 c -1.27221,0 -2.37088,-0.40477 -3.29599,-1.214312 -0.80962,-0.925188 -1.21439,-2.02385 -1.21431,-3.29599 -8e-5,-1.272131 0.40469,-2.370793 1.21431,-3.29599 0.80946,-0.925182 1.90813,-1.387776 3.29599,-1.387785 3.46938,9e-6 6.01365,-1.214302 7.63282,-3.642937 1.04075,-1.50342 1.56117,-3.295974 1.56126,-5.377668 l 0,-82.226277 c -9e-5,-2.77547 -0.80963,-4.97279 -2.42863,-6.59198 -1.61916,-1.61897 -3.87431,-2.42852 -6.76545,-2.42862 -1.15657,1e-4 -2.1974,-0.46249 -3.12252,-1.38779 -0.92526,-0.92508 -1.38786,-2.02374 -1.38778,-3.29599 -8e-5,-1.27202 0.40469,-2.31286 1.21431,-3.12252 0.92511,-0.92507 2.02378,-1.38766 3.29599,-1.38778 l 27.40876,0 c 6.01362,1.2e-4 10.69739,2.08179 14.05132,6.24503 2.77545,3.46957 4.16324,7.45945 4.16336,11.96965 l 0,82.226277"
         style="font-size:173.47315979px;font-style:normal;font-variant:normal;font-weight:normal;font-stretch:normal;text-align:center;line-height:100%;letter-spacing:0px;word-spacing:0px;writing-mode:lr-tb;text-anchor:middle;fill:#e6e6e6;fill-opacity:1;stroke:none;font-family:Syndrome BRK;-inkscape-font-specification:Syndrome BRK" />
      <path
         id="path3825"
         d="m 506.06786,-128.45434 c -6e-5,1.1566 -0.40483,2.19744 -1.21431,3.12252 -0.8096,0.9253 -1.85044,1.38789 -3.12252,1.38778 -1.96608,0.23141 -3.29604,0.46271 -3.98988,0.69389 -3.58516,1.3879 -5.37771,4.22129 -5.37767,8.50019 l 0,82.226277 c -4e-5,4.510316 -1.33,8.44237 -3.98988,11.796175 -3.2382,4.279007 -8.03762,6.418507 -14.39827,6.418507 -6.12941,0 -10.81318,-2.081676 -14.05133,-6.245034 -2.77558,-3.469453 -4.16336,-7.459332 -4.16336,-11.969648 l 0,-82.226277 c 0,-4.5102 1.32996,-8.44225 3.98989,-11.79618 3.23815,-4.27888 7.97974,-6.41838 14.2248,-6.4185 l 27.40875,0 1.04084,0 0.6939,0.34694 c 1.96597,0.92531 2.94898,2.3131 2.94904,4.16336"
         style="font-size:173.47315979px;font-style:normal;font-variant:normal;font-weight:normal;font-stretch:normal;text-align:center;line-height:100%;letter-spacing:0px;word-spacing:0px;writing-mode:lr-tb;text-anchor:middle;fill:#e6e6e6;fill-opacity:1;stroke:none;font-family:Syndrome BRK;-inkscape-font-specification:Syndrome BRK" />
      <path
         id="path3823"
         d="m 519.77224,-128.45434 c -7e-5,1.27225 -0.46266,2.37091 -1.38779,3.29599 -0.92525,0.9253 -2.02392,1.38789 -3.29599,1.38779 -1.15655,1e-4 -2.19738,-0.46249 -3.12251,-1.38779 -0.92525,-0.92508 -1.38785,-2.02374 -1.38779,-3.29599 -6e-5,-1.27202 0.40471,-2.31286 1.21431,-3.12252 0.92513,-0.92507 2.02379,-1.38766 3.29599,-1.38778 1.27207,1.2e-4 2.37074,0.40489 3.29599,1.21431 0.92513,0.80966 1.38772,1.90832 1.38779,3.29599"
         style="font-size:173.47315979px;font-style:normal;font-variant:normal;font-weight:normal;font-stretch:normal;text-align:center;line-height:100%;letter-spacing:0px;word-spacing:0px;writing-mode:lr-tb;text-anchor:middle;fill:#e6e6e6;fill-opacity:1;stroke:none;font-family:Syndrome BRK;-inkscape-font-specification:Syndrome BRK" />
      <path
         id="path3802"
         d="m 574.41628,-32.523683 c -1.2e-4,4.510316 -1.33008,8.44237 -3.98988,11.796175 -3.23828,4.279007 -7.97988,6.418507 -14.2248,6.418507 -6.12948,0 -10.81325,-2.081676 -14.05132,-6.245034 -2.77566,-3.469453 -4.16345,-7.459332 -4.16336,-11.969648 l 0,-82.226277 c -9e-5,-2.77547 -0.80963,-4.97279 -2.42862,-6.59198 -1.61917,-1.61897 -3.87432,-2.42852 -6.76546,-2.42862 -1.15656,1e-4 -2.1974,-0.46249 -3.12251,-1.38779 -0.92527,-0.92508 -1.38786,-2.02374 -1.38779,-3.29599 -7e-5,-1.27202 0.4047,-2.31286 1.21431,-3.12252 0.92512,-0.92507 2.02378,-1.38766 3.29599,-1.38778 l 27.40876,0 c 6.01363,1.2e-4 10.6974,2.08179 14.05133,6.24503 2.77545,3.46957 4.16323,7.45945 4.16335,11.96965 l 0,82.226277"
         style="font-size:173.47315979px;font-style:normal;font-variant:normal;font-weight:normal;font-stretch:normal;text-align:center;line-height:100%;letter-spacing:0px;word-spacing:0px;writing-mode:lr-tb;text-anchor:middle;fill:#e6e6e6;fill-opacity:1;stroke:none;font-family:Syndrome BRK;-inkscape-font-specification:Syndrome BRK" />
    </g>
  </g>
</svg>
