<?xml version="1.0" encoding="UTF-8" standalone="no"?>
<!-- Created with Inkscape (http://www.inkscape.org/) -->

<svg
   xmlns:dc="http://purl.org/dc/elements/1.1/"
   xmlns:cc="http://creativecommons.org/ns#"
   xmlns:rdf="http://www.w3.org/1999/02/22-rdf-syntax-ns#"
   xmlns:svg="http://www.w3.org/2000/svg"
   xmlns="http://www.w3.org/2000/svg"
   xmlns:xlink="http://www.w3.org/1999/xlink"
   version="1.1"
   width="512"
   height="512"
   id="svg3137">
  <defs
     id="defs3139">
    <linearGradient
       x1="0"
       y1="150"
       x2="300"
       y2="150"
       id="linearGradient3813"
       xlink:href="#SVGID_1_"
       gradientUnits="userSpaceOnUse"
       gradientTransform="translate(-5.5328369e-8,-300.00001)" />
    <linearGradient
       x1="149.9995"
       y1="4"
       x2="149.9995"
       y2="304"
       id="SVGID_1_"
       gradientUnits="userSpaceOnUse">
      <stop
         id="stop6"
         style="stop-color:#fffdf7;stop-opacity:1"
         offset="0.3398" />
      <stop
         id="stop22"
         style="stop-color:#00dafb;stop-opacity:1"
         offset="0.99440002" />
    </linearGradient>
    <linearGradient
       x1="0"
       y1="150"
       x2="300"
       y2="150"
       id="linearGradient3135"
       xlink:href="#SVGID_1_"
       gradientUnits="userSpaceOnUse"
       gradientTransform="matrix(1.7066667,0,0,1.7066667,-186.78068,-642.00002)" />
  </defs>
  <metadata
     id="metadata3142">
    <rdf:RDF>
      <cc:Work
         rdf:about="">
        <dc:format>image/svg+xml</dc:format>
        <dc:type
           rdf:resource="http://purl.org/dc/dcmitype/StillImage" />
        <dc:title></dc:title>
      </cc:Work>
    </rdf:RDF>
  </metadata>
  <g
     transform="translate(-130,186.78068)"
     id="layer1">
    <rect
       width="512"
       height="512"
       x="-186.78067"
       y="-642"
       transform="matrix(0,1,-1,0,0,0)"
       id="rect24"
       style="fill:url(#linearGradient3135);fill-opacity:1" />
    <g
       id="g3730">
      <path
         d="m 207.80755,198.73599 -19.2974,0 0,-5.92247 c -3e-5,-2.76376 -0.2468,-4.52405 -0.74031,-5.28088 -0.49356,-0.75669 -1.31613,-1.13507 -2.46769,-1.13514 -1.25033,7e-5 -2.2045,0.51006 -2.86253,1.52997 -0.62518,1.02005 -0.93775,2.56647 -0.93773,4.63928 -2e-5,2.66517 0.36191,4.67223 1.08579,6.02118 0.69093,1.34906 2.64864,2.97774 5.87312,4.88604 9.2456,5.49479 15.06936,10.00244 17.4713,13.52298 2.40184,3.52062 3.60279,9.19632 3.60284,17.02712 -5e-5,5.69217 -0.67456,9.88725 -2.02351,12.58526 -1.31616,2.69802 -3.88256,4.9683 -7.69922,6.81084 -3.81674,1.80965 -8.2586,2.71447 -13.32557,2.71447 -5.56057,0 -10.31499,-1.05289 -14.26329,-3.15865 -3.91542,-2.10577 -6.48183,-4.78733 -7.69922,-8.0447 -1.2174,-3.25735 -1.8261,-7.88016 -1.82609,-13.86846 l 0,-5.23152 19.29739,0 0,9.72273 c -2e-5,2.99416 0.2632,4.91896 0.78966,5.77441 0.55933,0.85548 1.52995,1.28322 2.91189,1.28321 1.38188,1e-5 2.40186,-0.54289 3.05994,-1.62869 0.69093,-1.08577 1.03641,-2.698 1.03644,-4.83668 -3e-5,-4.70506 -0.64164,-7.78145 -1.92481,-9.22919 -1.31613,-1.44769 -4.55704,-3.86603 -9.72273,-7.25503 -5.16572,-3.42184 -8.58759,-5.90599 -10.26562,-7.45245 -1.67804,-1.54638 -3.0764,-3.68505 -4.19509,-6.41601 -1.08579,-2.73087 -1.62868,-6.21855 -1.62868,-10.46304 0,-6.11983 0.77321,-10.59458 2.31964,-13.42428 1.57932,-2.82955 4.11282,-5.03402 7.60051,-6.61343 3.48766,-1.61215 7.6992,-2.41826 12.63461,-2.41834 5.396,8e-5 9.98592,0.872 13.76975,2.61576 3.81667,1.74392 6.33372,3.94839 7.55116,6.61343 1.25025,2.63228 1.8754,7.12348 1.87545,13.47363 l 0,3.15865"
         id="path3676"
         style="font-size:101.07689667px;font-style:normal;font-variant:normal;font-weight:bold;font-stretch:normal;text-align:center;line-height:100%;letter-spacing:0px;word-spacing:0px;writing-mode:lr-tb;text-anchor:middle;fill:#000000;fill-opacity:1;stroke:none;font-family:Impact;-inkscape-font-specification:Impact Bold" />
      <path
         d="m 216.09901,174.55255 34.64648,0 0,15.99068 -13.86846,0 0,15.15167 12.98009,0 0,15.20102 -12.98009,0 0,17.57 15.25037,0 0,15.99068 -36.02839,0 0,-79.90405"
         id="path3678"
         style="font-size:101.07689667px;font-style:normal;font-variant:normal;font-weight:bold;font-stretch:normal;text-align:center;line-height:100%;letter-spacing:0px;word-spacing:0px;writing-mode:lr-tb;text-anchor:middle;fill:#000000;fill-opacity:1;stroke:none;font-family:Impact;-inkscape-font-specification:Impact Bold" />
      <path
         d="m 150.75,359.65625 c -3.84963,8e-5 -7.34136,0.65438 -10.5,1.9375 -3.15866,1.28328 -5.74295,3.18533 -7.75,5.71875 -2.00707,2.50067 -3.34195,5.16879 -4,8.03125 -0.62515,2.82969 -0.93751,6.97737 -0.9375,12.40625 l 0,24.71875 c -1e-5,7.1728 0.53921,12.56822 1.625,16.1875 1.08578,3.58639 3.32977,6.53892 6.71875,8.875 3.38896,2.33609 7.4199,3.58714 12.125,3.71875 -3e-5,2.99414 0.25478,5.06715 0.78125,6.21875 0.55932,1.15159 1.64105,2.00314 3.1875,2.5625 1.5464,0.59224 4.18492,0.87499 7.96875,0.875 l 15.71875,0 0,-9.65625 -7.21875,0 c -2.40193,0 -3.93574,-0.25811 -4.59375,-0.71875 -0.62519,-0.46064 -0.99505,-1.56701 -1.09375,-3.34375 3.25732,-0.78966 5.8712,-1.92563 7.8125,-3.40625 1.97411,-1.51352 3.309,-3.52899 4,-6.0625 0.69091,-2.53349 1.0312,-7.36176 1.03125,-14.46875 l 0,-25.96875 c -5e-5,-5.16565 -0.28446,-9.02563 -0.84375,-11.625 -0.52649,-2.63214 -1.69041,-5.19013 -3.5,-7.625 -1.77679,-2.43472 -4.5041,-4.4206 -8.15625,-6 -3.61933,-1.57925 -7.73576,-2.37492 -12.375,-2.375 z m 0.9375,13.53125 c 1.28317,7e-5 2.13639,0.50968 2.53125,1.5625 0.4277,1.02005 0.62497,3.40706 0.625,7.125 l 0,36.71875 c -3e-5,4.70509 -0.19895,7.68722 -0.59375,8.9375 -0.39487,1.25032 -1.30397,1.87501 -2.71875,1.875 -1.38194,10e-6 -2.26144,-0.57045 -2.65625,-1.65625 -0.36195,-1.08577 -0.53127,-3.92321 -0.53125,-8.5625 l 0,-37.3125 c -2e-5,-4.11277 0.28438,-6.58361 0.84375,-7.40625 0.59222,-0.8554 1.41419,-1.28118 2.5,-1.28125 z"
         transform="translate(130,-186.78068)"
         id="path3712"
         style="font-size:101.07689667px;font-style:normal;font-variant:normal;font-weight:bold;font-stretch:normal;text-align:center;line-height:100%;letter-spacing:0px;word-spacing:0px;writing-mode:lr-tb;text-anchor:middle;fill:#000000;fill-opacity:1;stroke:none;font-family:Impact;-inkscape-font-specification:Impact Bold" />
      <path
         d="m 360.65675,174.55255 0,53.40098 c -6e-5,6.05411 -0.19747,10.31499 -0.59225,12.78267 -0.39488,2.43481 -1.56293,4.95186 -3.50413,7.55116 -1.9413,2.56641 -4.50771,4.52411 -7.69922,5.87312 -3.15869,1.3161 -6.89313,1.97416 -11.20335,1.97416 -4.7709,0 -8.98244,-0.78967 -12.63461,-2.36899 -3.6522,-1.57933 -6.38312,-3.63574 -8.19276,-6.16925 -1.80965,-2.53349 -2.87898,-5.1986 -3.208,-7.99534 -0.32903,-2.8296 -0.49355,-8.75207 -0.49354,-17.76742 l 0,-47.28109 20.77801,0 0,59.9157 c -2e-5,3.4877 0.18094,5.72508 0.5429,6.71214 0.3948,0.95419 1.16801,1.43128 2.31963,1.43127 1.31608,1e-5 2.15509,-0.52643 2.51705,-1.57933 0.3948,-1.08577 0.59222,-3.61927 0.59225,-7.60051 l 0,-58.87927 20.77802,0"
         id="path3682"
         style="font-size:101.07689667px;font-style:normal;font-variant:normal;font-weight:bold;font-stretch:normal;text-align:center;line-height:100%;letter-spacing:0px;word-spacing:0px;writing-mode:lr-tb;text-anchor:middle;fill:#000000;fill-opacity:1;stroke:none;font-family:Impact;-inkscape-font-specification:Impact Bold" />
      <path
         d="m 368.70144,174.55255 34.64648,0 0,15.99068 -13.86847,0 0,15.15167 12.98009,0 0,15.20102 -12.98009,0 0,17.57 15.25038,0 0,15.99068 -36.02839,0 0,-79.90405"
         id="path3684"
         style="font-size:101.07689667px;font-style:normal;font-variant:normal;font-weight:bold;font-stretch:normal;text-align:center;line-height:100%;letter-spacing:0px;word-spacing:0px;writing-mode:lr-tb;text-anchor:middle;fill:#000000;fill-opacity:1;stroke:none;font-family:Impact;-inkscape-font-specification:Impact Bold" />
      <path
         d="m 457.14372,174.55255 0,79.90405 -18.21161,0 -10.80852,-36.32451 0,36.32451 -17.37259,0 0,-79.90405 17.37259,0 11.64754,35.97904 0,-35.97904 17.37259,0"
         id="path3686"
         style="font-size:101.07689667px;font-style:normal;font-variant:normal;font-weight:bold;font-stretch:normal;text-align:center;line-height:100%;letter-spacing:0px;word-spacing:0px;writing-mode:lr-tb;text-anchor:middle;fill:#000000;fill-opacity:1;stroke:none;font-family:Impact;-inkscape-font-specification:Impact Bold" />
      <path
         d="m 513.95013,209.39644 -20.77802,0 0,-13.91781 c -3e-5,-4.04696 -0.23035,-6.56401 -0.69095,-7.55116 -0.42777,-1.01991 -1.3984,-1.5299 -2.91189,-1.52997 -1.71096,7e-5 -2.79675,0.60877 -3.25736,1.8261 -0.46066,1.21746 -0.69098,3.84967 -0.69095,7.89663 l 0,37.11417 c -3e-5,3.88253 0.23029,6.41603 0.69095,7.60051 0.46061,1.18451 1.49705,1.77676 3.1093,1.77675 1.5464,1e-5 2.54992,-0.59224 3.01059,-1.77675 0.49351,-1.18448 0.74028,-3.96475 0.74031,-8.34082 l 0,-10.01885 20.77802,0 0,3.1093 c -6e-5,8.25858 -0.5923,14.11525 -1.77675,17.57001 -1.15164,3.45478 -3.73449,6.48182 -7.74857,9.08113 -3.98126,2.5993 -8.90019,3.89896 -14.75683,3.89896 -6.08701,0 -11.10466,-1.10224 -15.05296,-3.30672 -3.94832,-2.20447 -6.56408,-5.24796 -7.84727,-9.13048 -1.28321,-3.9154 -1.92481,-9.78851 -1.92481,-17.61936 l 0,-23.34442 c 0,-5.7579 0.19741,-10.06814 0.59225,-12.93074 0.39483,-2.89536 1.56287,-5.67563 3.50413,-8.34081 1.97415,-2.66504 4.68861,-4.75436 8.1434,-6.26796 3.48766,-1.54634 7.48533,-2.31955 11.99301,-2.31963 6.11986,8e-5 11.17041,1.18457 15.15167,3.55348 3.98117,2.36907 6.59693,5.3303 7.84728,8.88372 1.25024,3.52064 1.87539,9.01538 1.87545,16.48422 l 0,7.6005"
         id="path3688"
         style="font-size:101.07689667px;font-style:normal;font-variant:normal;font-weight:bold;font-stretch:normal;text-align:center;line-height:100%;letter-spacing:0px;word-spacing:0px;writing-mode:lr-tb;text-anchor:middle;fill:#000000;fill-opacity:1;stroke:none;font-family:Impact;-inkscape-font-specification:Impact Bold" />
      <path
         d="m 521.50129,174.55255 34.64648,0 0,15.99068 -13.86846,0 0,15.15167 12.98008,0 0,15.20102 -12.98008,0 0,17.57 15.25037,0 0,15.99068 -36.02839,0 0,-79.90405"
         id="path3690"
         style="font-size:101.07689667px;font-style:normal;font-variant:normal;font-weight:bold;font-stretch:normal;text-align:center;line-height:100%;letter-spacing:0px;word-spacing:0px;writing-mode:lr-tb;text-anchor:middle;fill:#000000;fill-opacity:1;stroke:none;font-family:Impact;-inkscape-font-specification:Impact Bold" />
      <path
         d="m 433.5625,361.34375 0,79.90625 20.78125,0 0,-36.03125 c 2.8625,3e-5 4.62317,0.5113 5.28125,1.53125 0.69092,1.02002 1.03122,3.66019 1.03125,7.9375 l 0,26.5625 19.28125,0 0,-21.09375 c -5e-5,-6.44889 -0.16937,-10.3664 -0.53125,-11.78125 -0.32907,-1.44768 -1.21023,-3.03903 -2.625,-4.75 -1.41485,-1.7109 -4.16846,-3.07372 -8.28125,-4.09375 4.54052,-0.42769 7.57853,-1.70503 9.125,-3.84375 1.54638,-2.13862 2.31245,-6.3126 2.3125,-12.53125 -5e-5,-6.81078 -1.10807,-11.78208 -3.3125,-14.875 -2.17162,-3.12567 -4.98111,-5.05566 -8.46875,-5.8125 -3.45481,-0.75668 -10.10129,-1.12492 -19.90625,-1.125 l -14.6875,0 z M 454.34375,375 c 2.40186,6e-5 4.01785,0.39791 4.90625,1.1875 0.92124,0.78973 1.40622,2.46656 1.40625,5 l 0,4.375 c -3e-5,3.52064 -0.48336,5.62324 -1.4375,6.28125 -0.92131,0.6252 -2.53894,0.93755 -4.875,0.9375 l 0,-17.78125 z"
         transform="translate(130,-186.78068)"
         id="path3726"
         style="font-size:101.07689667px;font-style:normal;font-variant:normal;font-weight:bold;font-stretch:normal;text-align:center;line-height:100%;letter-spacing:0px;word-spacing:0px;writing-mode:lr-tb;text-anchor:middle;fill:#000000;fill-opacity:1;stroke:none;font-family:Impact;-inkscape-font-specification:Impact Bold" />
    </g>
    <polygon
       points="300,0 300,110.426 150,188 0,110.426 0,0 "
       transform="matrix(1.7066667,0,0,1.7066667,130,-186.78068)"
       id="polygon26"
       style="fill:#000200" />
    <g
       id="g3663">
      <path
         d="m 247.89101,-128.45434 c -6e-5,1.1566 -0.40483,2.19744 -1.21431,3.12252 -0.8096,0.9253 -1.85043,1.38789 -3.12252,1.38778 -1.96608,0.23141 -3.29604,0.46271 -3.98988,0.69389 -3.58516,1.3879 -5.37771,4.22129 -5.37767,8.50019 l 0,82.226277 c -4e-5,4.510316 -1.33,8.44237 -3.98988,11.796175 -3.2382,4.279007 -8.03762,6.418507 -14.39827,6.418507 -6.12941,0 -10.81318,-2.081676 -14.05133,-6.245034 -2.77558,-3.469453 -4.16336,-7.459332 -4.16336,-11.969648 l 0,-82.226277 c 0,-4.5102 1.32996,-8.44225 3.98989,-11.79618 3.23815,-4.27888 7.97974,-6.41838 14.2248,-6.4185 l 27.40876,0 1.04083,0 0.6939,0.34694 c 1.96597,0.92531 2.94898,2.3131 2.94904,4.16336"
         id="path3647"
         style="font-size:173.47315979px;font-style:normal;font-variant:normal;font-weight:normal;font-stretch:normal;text-align:center;line-height:100%;letter-spacing:0px;word-spacing:0px;writing-mode:lr-tb;text-anchor:middle;fill:#e6e6e6;fill-opacity:1;stroke:none;font-family:Syndrome BRK;-inkscape-font-specification:Syndrome BRK" />
      <path
         d="m 261.59539,-128.45434 c -7e-5,1.27225 -0.46266,2.37091 -1.38779,3.29599 -0.92525,0.9253 -2.02391,1.38789 -3.29599,1.38779 -1.15655,1e-4 -2.19738,-0.46249 -3.12251,-1.38779 -0.92525,-0.92508 -1.38785,-2.02374 -1.38779,-3.29599 -6e-5,-1.27202 0.40471,-2.31286 1.21431,-3.12252 0.92513,-0.92507 2.02379,-1.38766 3.29599,-1.38778 1.27208,1.2e-4 2.37074,0.40489 3.29599,1.21431 0.92513,0.80966 1.38772,1.90832 1.38779,3.29599"
         id="path3645"
         style="font-size:173.47315979px;font-style:normal;font-variant:normal;font-weight:normal;font-stretch:normal;text-align:center;line-height:100%;letter-spacing:0px;word-spacing:0px;writing-mode:lr-tb;text-anchor:middle;fill:#e6e6e6;fill-opacity:1;stroke:none;font-family:Syndrome BRK;-inkscape-font-specification:Syndrome BRK" />
      <path
         d="m 316.23944,-32.523683 c -1.3e-4,4.510316 -1.33009,8.44237 -3.98989,11.796175 -3.23828,4.279007 -7.97987,6.418507 -14.2248,6.418507 -6.12948,0 -10.81325,-2.081676 -14.05132,-6.245034 -2.77566,-3.469453 -4.16345,-7.459332 -4.16336,-11.969648 l 0,-82.226277 c -9e-5,-2.77547 -0.80963,-4.97279 -2.42862,-6.59198 -1.61917,-1.61897 -3.87432,-2.42852 -6.76546,-2.42862 -1.15656,1e-4 -2.1974,-0.46249 -3.12251,-1.38779 -0.92527,-0.92508 -1.38786,-2.02374 -1.38779,-3.29599 -7e-5,-1.27202 0.4047,-2.31286 1.21431,-3.12252 0.92512,-0.92507 2.02378,-1.38766 3.29599,-1.38778 l 27.40876,0 c 6.01363,1.2e-4 10.6974,2.08179 14.05133,6.24503 2.77545,3.46957 4.16323,7.45945 4.16336,11.96965 l 0,82.226277"
         id="path3634"
         style="font-size:173.47315979px;font-style:normal;font-variant:normal;font-weight:normal;font-stretch:normal;text-align:center;line-height:100%;letter-spacing:0px;word-spacing:0px;writing-mode:lr-tb;text-anchor:middle;fill:#e6e6e6;fill-opacity:1;stroke:none;font-family:Syndrome BRK;-inkscape-font-specification:Syndrome BRK" />
      <path
         d="m 363.27506,-32.523683 c -5e-5,2.775586 0.80949,4.972911 2.42862,6.59198 1.61904,1.619093 3.81636,2.428634 6.59198,2.428625 1.27208,9e-6 2.37075,0.462603 3.29599,1.387785 0.92513,0.925197 1.38773,2.023859 1.38779,3.29599 -6e-5,1.156491 -0.46266,2.197329 -1.38779,3.122517 -0.92524,0.92519 -2.02391,1.387785 -3.29599,1.387785 l -27.40876,0 c -4.51032,0 -8.44237,-1.32996 -11.79617,-3.989883 -4.27902,-3.238158 -6.41852,-7.979753 -6.41851,-14.224799 l 0,-82.226277 c -10e-6,-4.5102 1.32995,-8.44225 3.98988,-11.79618 3.23815,-4.27888 7.97975,-6.41838 14.2248,-6.4185 l 27.40876,0 1.04084,0 0.69389,0.34694 c 1.96598,0.92531 2.94899,2.3131 2.94905,4.16336 -6e-5,1.1566 -0.40483,2.19744 -1.21432,3.12252 -0.80959,0.9253 -1.85043,1.38789 -3.12251,1.38778 -1.96608,0.23141 -3.29604,0.46271 -3.98989,0.69389 -3.58515,1.3879 -5.37771,4.22129 -5.37766,8.50019 l 0,82.226277"
         id="path3655"
         style="font-size:173.47315979px;font-style:normal;font-variant:normal;font-weight:normal;font-stretch:normal;text-align:center;line-height:100%;letter-spacing:0px;word-spacing:0px;writing-mode:lr-tb;text-anchor:middle;fill:#e6e6e6;fill-opacity:1;stroke:none;font-family:Syndrome BRK;-inkscape-font-specification:Syndrome BRK" />
      <path
         d="m 390.68381,-128.45434 c -6e-5,1.27225 -0.46266,2.37091 -1.38778,3.29599 -0.92526,0.9253 -2.02392,1.38789 -3.29599,1.38779 -1.15655,1e-4 -2.19739,-0.46249 -3.12252,-1.38779 -0.92525,-0.92508 -1.38784,-2.02374 -1.38778,-3.29599 -6e-5,-1.27202 0.40471,-2.31286 1.21431,-3.12252 0.92513,-0.92507 2.02379,-1.38766 3.29599,-1.38778 1.27207,1.2e-4 2.37073,0.40489 3.29599,1.21431 0.92512,0.80966 1.38772,1.90832 1.38778,3.29599"
         id="path3653"
         style="font-size:173.47315979px;font-style:normal;font-variant:normal;font-weight:normal;font-stretch:normal;text-align:center;line-height:100%;letter-spacing:0px;word-spacing:0px;writing-mode:lr-tb;text-anchor:middle;fill:#e6e6e6;fill-opacity:1;stroke:none;font-family:Syndrome BRK;-inkscape-font-specification:Syndrome BRK" />
      <path
         d="m 390.68381,-18.819303 c -6e-5,1.156491 -0.46266,2.197329 -1.38778,3.122517 -0.92526,0.92519 -2.02392,1.387785 -3.29599,1.387785 -1.2722,0 -2.37086,-0.40477 -3.29599,-1.214312 -0.8096,-0.925188 -1.21437,-2.02385 -1.21431,-3.29599 -6e-5,-1.272131 0.40471,-2.370793 1.21431,-3.29599 0.80948,-0.925182 1.90814,-1.387776 3.29599,-1.387785 1.27207,9e-6 2.37073,0.462603 3.29599,1.387785 0.92512,0.925197 1.38772,2.023859 1.38778,3.29599"
         id="path3651"
         style="font-size:173.47315979px;font-style:normal;font-variant:normal;font-weight:normal;font-stretch:normal;text-align:center;line-height:100%;letter-spacing:0px;word-spacing:0px;writing-mode:lr-tb;text-anchor:middle;fill:#e6e6e6;fill-opacity:1;stroke:none;font-family:Syndrome BRK;-inkscape-font-specification:Syndrome BRK" />
      <path
         d="m 445.32786,-32.523683 c -1.2e-4,6.129397 -2.0818,10.813168 -6.24503,14.051326 -3.46958,2.775572 -7.45946,4.163356 -11.96965,4.163356 l -27.40876,0 c -1.27221,0 -2.37088,-0.40477 -3.29599,-1.214312 -0.80962,-0.925188 -1.21439,-2.02385 -1.21431,-3.29599 -8e-5,-1.272131 0.40469,-2.370793 1.21431,-3.29599 0.80946,-0.925182 1.90813,-1.387776 3.29599,-1.387785 3.46938,9e-6 6.01365,-1.214302 7.63282,-3.642937 1.04075,-1.50342 1.56117,-3.295974 1.56126,-5.377668 l 0,-82.226277 c -9e-5,-2.77547 -0.80963,-4.97279 -2.42863,-6.59198 -1.61916,-1.61897 -3.87431,-2.42852 -6.76545,-2.42862 -1.15657,1e-4 -2.1974,-0.46249 -3.12252,-1.38779 -0.92526,-0.92508 -1.38786,-2.02374 -1.38778,-3.29599 -8e-5,-1.27202 0.40469,-2.31286 1.21431,-3.12252 0.92511,-0.92507 2.02378,-1.38766 3.29599,-1.38778 l 27.40876,0 c 6.01362,1.2e-4 10.69739,2.08179 14.05132,6.24503 2.77545,3.46957 4.16324,7.45945 4.16336,11.96965 l 0,82.226277"
         id="path3636"
         style="font-size:173.47315979px;font-style:normal;font-variant:normal;font-weight:normal;font-stretch:normal;text-align:center;line-height:100%;letter-spacing:0px;word-spacing:0px;writing-mode:lr-tb;text-anchor:middle;fill:#e6e6e6;fill-opacity:1;stroke:none;font-family:Syndrome BRK;-inkscape-font-specification:Syndrome BRK" />
      <path
         d="m 506.06786,-128.45434 c -6e-5,1.1566 -0.40483,2.19744 -1.21431,3.12252 -0.8096,0.9253 -1.85044,1.38789 -3.12252,1.38778 -1.96608,0.23141 -3.29604,0.46271 -3.98988,0.69389 -3.58516,1.3879 -5.37771,4.22129 -5.37767,8.50019 l 0,82.226277 c -4e-5,4.510316 -1.33,8.44237 -3.98988,11.796175 -3.2382,4.279007 -8.03762,6.418507 -14.39827,6.418507 -6.12941,0 -10.81318,-2.081676 -14.05133,-6.245034 -2.77558,-3.469453 -4.16336,-7.459332 -4.16336,-11.969648 l 0,-82.226277 c 0,-4.5102 1.32996,-8.44225 3.98989,-11.79618 3.23815,-4.27888 7.97974,-6.41838 14.2248,-6.4185 l 27.40875,0 1.04084,0 0.6939,0.34694 c 1.96597,0.92531 2.94898,2.3131 2.94904,4.16336"
         id="path3661"
         style="font-size:173.47315979px;font-style:normal;font-variant:normal;font-weight:normal;font-stretch:normal;text-align:center;line-height:100%;letter-spacing:0px;word-spacing:0px;writing-mode:lr-tb;text-anchor:middle;fill:#e6e6e6;fill-opacity:1;stroke:none;font-family:Syndrome BRK;-inkscape-font-specification:Syndrome BRK" />
      <path
         d="m 519.77224,-128.45434 c -7e-5,1.27225 -0.46266,2.37091 -1.38779,3.29599 -0.92525,0.9253 -2.02392,1.38789 -3.29599,1.38779 -1.15655,1e-4 -2.19738,-0.46249 -3.12251,-1.38779 -0.92525,-0.92508 -1.38785,-2.02374 -1.38779,-3.29599 -6e-5,-1.27202 0.40471,-2.31286 1.21431,-3.12252 0.92513,-0.92507 2.02379,-1.38766 3.29599,-1.38778 1.27207,1.2e-4 2.37074,0.40489 3.29599,1.21431 0.92513,0.80966 1.38772,1.90832 1.38779,3.29599"
         id="path3659"
         style="font-size:173.47315979px;font-style:normal;font-variant:normal;font-weight:normal;font-stretch:normal;text-align:center;line-height:100%;letter-spacing:0px;word-spacing:0px;writing-mode:lr-tb;text-anchor:middle;fill:#e6e6e6;fill-opacity:1;stroke:none;font-family:Syndrome BRK;-inkscape-font-specification:Syndrome BRK" />
      <path
         d="m 574.41628,-32.523683 c -1.2e-4,4.510316 -1.33008,8.44237 -3.98988,11.796175 -3.23828,4.279007 -7.97988,6.418507 -14.2248,6.418507 -6.12948,0 -10.81325,-2.081676 -14.05132,-6.245034 -2.77566,-3.469453 -4.16345,-7.459332 -4.16336,-11.969648 l 0,-82.226277 c -9e-5,-2.77547 -0.80963,-4.97279 -2.42862,-6.59198 -1.61917,-1.61897 -3.87432,-2.42852 -6.76546,-2.42862 -1.15656,1e-4 -2.1974,-0.46249 -3.12251,-1.38779 -0.92527,-0.92508 -1.38786,-2.02374 -1.38779,-3.29599 -7e-5,-1.27202 0.4047,-2.31286 1.21431,-3.12252 0.92512,-0.92507 2.02378,-1.38766 3.29599,-1.38778 l 27.40876,0 c 6.01363,1.2e-4 10.6974,2.08179 14.05133,6.24503 2.77545,3.46957 4.16323,7.45945 4.16335,11.96965 l 0,82.226277"
         id="path3638"
         style="font-size:173.47315979px;font-style:normal;font-variant:normal;font-weight:normal;font-stretch:normal;text-align:center;line-height:100%;letter-spacing:0px;word-spacing:0px;writing-mode:lr-tb;text-anchor:middle;fill:#e6e6e6;fill-opacity:1;stroke:none;font-family:Syndrome BRK;-inkscape-font-specification:Syndrome BRK" />
    </g>
  </g>
</svg>
