<?xml version="1.0" encoding="UTF-8" standalone="no"?>
<!-- Created with Inkscape (http://www.inkscape.org/) -->

<svg
   xmlns:dc="http://purl.org/dc/elements/1.1/"
   xmlns:cc="http://creativecommons.org/ns#"
   xmlns:rdf="http://www.w3.org/1999/02/22-rdf-syntax-ns#"
   xmlns:svg="http://www.w3.org/2000/svg"
   xmlns="http://www.w3.org/2000/svg"
   xmlns:xlink="http://www.w3.org/1999/xlink"
   version="1.1"
   width="512"
   height="512"
   id="svg3137">
  <defs
     id="defs3139">
    <linearGradient
       x1="0"
       y1="150"
       x2="300"
       y2="150"
       id="linearGradient3813"
       xlink:href="#SVGID_1_"
       gradientUnits="userSpaceOnUse"
       gradientTransform="translate(-5.5328369e-8,-300.00001)" />
    <linearGradient
       x1="149.9995"
       y1="4"
       x2="149.9995"
       y2="304"
       id="SVGID_1_"
       gradientUnits="userSpaceOnUse">
      <stop
         id="stop6"
         style="stop-color:#fffdf7;stop-opacity:1"
         offset="0.3398" />
      <stop
         id="stop22"
         style="stop-color:#20fb00;stop-opacity:1"
         offset="0.99440002" />
    </linearGradient>
    <linearGradient
       x1="0"
       y1="150"
       x2="300"
       y2="150"
       id="linearGradient3135"
       xlink:href="#SVGID_1_"
       gradientUnits="userSpaceOnUse"
       gradientTransform="matrix(1.7066667,0,0,1.7066667,-186.78068,-642.00002)" />
  </defs>
  <metadata
     id="metadata3142">
    <rdf:RDF>
      <cc:Work
         rdf:about="">
        <dc:format>image/svg+xml</dc:format>
        <dc:type
           rdf:resource="http://purl.org/dc/dcmitype/StillImage" />
        <dc:title></dc:title>
      </cc:Work>
    </rdf:RDF>
  </metadata>
  <g
     transform="translate(-130,186.78068)"
     id="layer1">
    <rect
       width="512"
       height="512"
       x="-186.78067"
       y="-642"
       transform="matrix(0,1,-1,0,0,0)"
       id="rect24"
       style="fill:url(#linearGradient3135);fill-opacity:1" />
    <rect
       width="435.42188"
       height="65.710075"
       x="173.40906"
       y="196.90019"
       id="rect28"
       style="fill:none" />
    <g
       id="g3571">
      <path
         d="m 321.16035,174.86778 0,94.91448 -21.57414,0 0,-64.07754 -8.61793,64.07754 -15.30122,0 -9.08693,-62.6119 0,62.6119 -21.57414,0 0,-94.91448 31.95083,0 c 0.93797,5.70629 1.9346,12.42866 2.98989,20.16713 l 3.40028,24.15365 5.62803,-44.32078 32.18533,0"
         id="path3531"
         style="font-size:120.06476593px;font-style:normal;font-variant:normal;font-weight:bold;font-stretch:normal;text-align:center;line-height:100%;letter-spacing:0px;word-spacing:0px;writing-mode:lr-tb;text-anchor:middle;fill:#000000;fill-opacity:1;stroke:none;font-family:Impact;-inkscape-font-specification:Impact Bold" />
      <path
         d="m 355.74932,174.86778 0,94.91448 -24.68128,0 0,-94.91448 24.68128,0"
         id="path3533"
         style="font-size:120.06476593px;font-style:normal;font-variant:normal;font-weight:bold;font-stretch:normal;text-align:center;line-height:100%;letter-spacing:0px;word-spacing:0px;writing-mode:lr-tb;text-anchor:middle;fill:#000000;fill-opacity:1;stroke:none;font-family:Impact;-inkscape-font-specification:Impact Bold" />
      <path
         d="m 415.78171,174.86778 -8.61793,41.97576 13.01483,52.93872 -22.86389,0 c -2.73589,-9.45822 -5.23724,-20.96832 -7.50405,-34.53035 -0.62537,5.97982 -1.48521,12.33089 -2.57952,19.05325 l -2.34501,15.4771 -24.03641,0 8.91106,-52.93872 -8.91106,-41.97576 23.86053,0 c 0.4299,2.61869 1.28973,6.9765 2.57952,13.07345 1.01614,4.65103 1.85644,8.91113 2.52089,12.78034 l 5.27628,-25.85379 20.69476,0"
         id="path3535"
         style="font-size:120.06476593px;font-style:normal;font-variant:normal;font-weight:bold;font-stretch:normal;text-align:center;line-height:100%;letter-spacing:0px;word-spacing:0px;writing-mode:lr-tb;text-anchor:middle;fill:#000000;fill-opacity:1;stroke:none;font-family:Impact;-inkscape-font-specification:Impact Bold" />
      <path
         d="m 423.69613,174.86778 41.15501,0 0,18.99462 -16.47373,0 0,17.99799 15.41848,0 0,18.05661 -15.41848,0 0,20.87064 18.11524,0 0,18.99462 -42.79652,0 0,-94.91448"
         id="path3537"
         style="font-size:120.06476593px;font-style:normal;font-variant:normal;font-weight:bold;font-stretch:normal;text-align:center;line-height:100%;letter-spacing:0px;word-spacing:0px;writing-mode:lr-tb;text-anchor:middle;fill:#000000;fill-opacity:1;stroke:none;font-family:Impact;-inkscape-font-specification:Impact Bold" />
      <path
         d="m 343.65625,361.65625 0,94.90625 24.65625,0 0,-42.78125 c 3.40023,5e-5 5.49954,0.60095 6.28125,1.8125 0.82072,1.21163 1.24997,4.35667 1.25,9.4375 l 0,31.53125 22.90625,0 0,-25.03125 c -7e-5,-7.66035 -0.22639,-12.31937 -0.65625,-14 -0.3909,-1.71964 -1.41321,-3.62386 -3.09375,-5.65625 -1.68065,-2.0323 -4.95836,-3.63211 -9.84375,-4.84375 5.39348,-0.50804 9.00677,-2.05327 10.84375,-4.59375 1.83687,-2.54038 2.74993,-7.48814 2.75,-14.875 -7e-5,-8.09022 -1.31895,-13.98231 -3.9375,-17.65625 -2.57957,-3.71285 -5.91969,-6.00723 -10.0625,-6.90625 -4.10382,-0.89883 -11.97812,-1.34366 -23.625,-1.34375 l -17.46875,0 z M 368.3125,377.875 c 2.85307,7e-5 4.81971,0.46833 5.875,1.40625 1.09431,0.93809 1.65622,2.92814 1.65625,5.9375 l 0,5.21875 c -3e-5,4.182 -0.58536,6.65589 -1.71875,7.4375 -1.09438,0.74264 -3.0376,1.12506 -5.8125,1.125 l 0,-21.125 z"
         transform="translate(130,-186.78068)"
         id="path3560"
         style="font-size:120.06476593px;font-style:normal;font-variant:normal;font-weight:bold;font-stretch:normal;text-align:center;line-height:100%;letter-spacing:0px;word-spacing:0px;writing-mode:lr-tb;text-anchor:middle;fill:#000000;fill-opacity:1;stroke:none;font-family:Impact;-inkscape-font-specification:Impact Bold" />
    </g>
    <polygon
       points="300,0 300,110.426 150,188 0,110.426 0,0 "
       transform="matrix(1.7066667,0,0,1.7066667,130,-186.78068)"
       id="polygon26"
       style="fill:#000200" />
    <g
       id="g3518">
      <path
         d="m 247.89101,-128.45434 c -6e-5,1.1566 -0.40483,2.19744 -1.21431,3.12252 -0.8096,0.9253 -1.85043,1.38789 -3.12252,1.38778 -1.96608,0.23141 -3.29604,0.46271 -3.98988,0.69389 -3.58516,1.3879 -5.37771,4.22129 -5.37767,8.50019 l 0,82.226277 c -4e-5,4.510316 -1.33,8.44237 -3.98988,11.796175 -3.2382,4.279007 -8.03762,6.418507 -14.39827,6.418507 -6.12941,0 -10.81318,-2.081676 -14.05133,-6.245034 -2.77558,-3.469453 -4.16336,-7.459332 -4.16336,-11.969648 l 0,-82.226277 c 0,-4.5102 1.32996,-8.44225 3.98989,-11.79618 3.23815,-4.27888 7.97974,-6.41838 14.2248,-6.4185 l 27.40876,0 1.04083,0 0.6939,0.34694 c 1.96597,0.92531 2.94898,2.3131 2.94904,4.16336"
         id="path3502"
         style="font-size:173.47315979px;font-style:normal;font-variant:normal;font-weight:normal;font-stretch:normal;text-align:center;line-height:100%;letter-spacing:0px;word-spacing:0px;writing-mode:lr-tb;text-anchor:middle;fill:#e6e6e6;fill-opacity:1;stroke:none;font-family:Syndrome BRK;-inkscape-font-specification:Syndrome BRK" />
      <path
         d="m 261.59539,-128.45434 c -7e-5,1.27225 -0.46266,2.37091 -1.38779,3.29599 -0.92525,0.9253 -2.02391,1.38789 -3.29599,1.38779 -1.15655,1e-4 -2.19738,-0.46249 -3.12251,-1.38779 -0.92525,-0.92508 -1.38785,-2.02374 -1.38779,-3.29599 -6e-5,-1.27202 0.40471,-2.31286 1.21431,-3.12252 0.92513,-0.92507 2.02379,-1.38766 3.29599,-1.38778 1.27208,1.2e-4 2.37074,0.40489 3.29599,1.21431 0.92513,0.80966 1.38772,1.90832 1.38779,3.29599"
         id="path3500"
         style="font-size:173.47315979px;font-style:normal;font-variant:normal;font-weight:normal;font-stretch:normal;text-align:center;line-height:100%;letter-spacing:0px;word-spacing:0px;writing-mode:lr-tb;text-anchor:middle;fill:#e6e6e6;fill-opacity:1;stroke:none;font-family:Syndrome BRK;-inkscape-font-specification:Syndrome BRK" />
      <path
         d="m 316.23944,-32.523683 c -1.3e-4,4.510316 -1.33009,8.44237 -3.98989,11.796175 -3.23828,4.279007 -7.97987,6.418507 -14.2248,6.418507 -6.12948,0 -10.81325,-2.081676 -14.05132,-6.245034 -2.77566,-3.469453 -4.16345,-7.459332 -4.16336,-11.969648 l 0,-82.226277 c -9e-5,-2.77547 -0.80963,-4.97279 -2.42862,-6.59198 -1.61917,-1.61897 -3.87432,-2.42852 -6.76546,-2.42862 -1.15656,1e-4 -2.1974,-0.46249 -3.12251,-1.38779 -0.92527,-0.92508 -1.38786,-2.02374 -1.38779,-3.29599 -7e-5,-1.27202 0.4047,-2.31286 1.21431,-3.12252 0.92512,-0.92507 2.02378,-1.38766 3.29599,-1.38778 l 27.40876,0 c 6.01363,1.2e-4 10.6974,2.08179 14.05133,6.24503 2.77545,3.46957 4.16323,7.45945 4.16336,11.96965 l 0,82.226277"
         id="path3489"
         style="font-size:173.47315979px;font-style:normal;font-variant:normal;font-weight:normal;font-stretch:normal;text-align:center;line-height:100%;letter-spacing:0px;word-spacing:0px;writing-mode:lr-tb;text-anchor:middle;fill:#e6e6e6;fill-opacity:1;stroke:none;font-family:Syndrome BRK;-inkscape-font-specification:Syndrome BRK" />
      <path
         d="m 363.27506,-32.523683 c -5e-5,2.775586 0.80949,4.972911 2.42862,6.59198 1.61904,1.619093 3.81636,2.428634 6.59198,2.428625 1.27208,9e-6 2.37075,0.462603 3.29599,1.387785 0.92513,0.925197 1.38773,2.023859 1.38779,3.29599 -6e-5,1.156491 -0.46266,2.197329 -1.38779,3.122517 -0.92524,0.92519 -2.02391,1.387785 -3.29599,1.387785 l -27.40876,0 c -4.51032,0 -8.44237,-1.32996 -11.79617,-3.989883 -4.27902,-3.238158 -6.41852,-7.979753 -6.41851,-14.224799 l 0,-82.226277 c -10e-6,-4.5102 1.32995,-8.44225 3.98988,-11.79618 3.23815,-4.27888 7.97975,-6.41838 14.2248,-6.4185 l 27.40876,0 1.04084,0 0.69389,0.34694 c 1.96598,0.92531 2.94899,2.3131 2.94905,4.16336 -6e-5,1.1566 -0.40483,2.19744 -1.21432,3.12252 -0.80959,0.9253 -1.85043,1.38789 -3.12251,1.38778 -1.96608,0.23141 -3.29604,0.46271 -3.98989,0.69389 -3.58515,1.3879 -5.37771,4.22129 -5.37766,8.50019 l 0,82.226277"
         id="path3510"
         style="font-size:173.47315979px;font-style:normal;font-variant:normal;font-weight:normal;font-stretch:normal;text-align:center;line-height:100%;letter-spacing:0px;word-spacing:0px;writing-mode:lr-tb;text-anchor:middle;fill:#e6e6e6;fill-opacity:1;stroke:none;font-family:Syndrome BRK;-inkscape-font-specification:Syndrome BRK" />
      <path
         d="m 390.68381,-128.45434 c -6e-5,1.27225 -0.46266,2.37091 -1.38778,3.29599 -0.92526,0.9253 -2.02392,1.38789 -3.29599,1.38779 -1.15655,1e-4 -2.19739,-0.46249 -3.12252,-1.38779 -0.92525,-0.92508 -1.38784,-2.02374 -1.38778,-3.29599 -6e-5,-1.27202 0.40471,-2.31286 1.21431,-3.12252 0.92513,-0.92507 2.02379,-1.38766 3.29599,-1.38778 1.27207,1.2e-4 2.37073,0.40489 3.29599,1.21431 0.92512,0.80966 1.38772,1.90832 1.38778,3.29599"
         id="path3508"
         style="font-size:173.47315979px;font-style:normal;font-variant:normal;font-weight:normal;font-stretch:normal;text-align:center;line-height:100%;letter-spacing:0px;word-spacing:0px;writing-mode:lr-tb;text-anchor:middle;fill:#e6e6e6;fill-opacity:1;stroke:none;font-family:Syndrome BRK;-inkscape-font-specification:Syndrome BRK" />
      <path
         d="m 390.68381,-18.819303 c -6e-5,1.156491 -0.46266,2.197329 -1.38778,3.122517 -0.92526,0.92519 -2.02392,1.387785 -3.29599,1.387785 -1.2722,0 -2.37086,-0.40477 -3.29599,-1.214312 -0.8096,-0.925188 -1.21437,-2.02385 -1.21431,-3.29599 -6e-5,-1.272131 0.40471,-2.370793 1.21431,-3.29599 0.80948,-0.925182 1.90814,-1.387776 3.29599,-1.387785 1.27207,9e-6 2.37073,0.462603 3.29599,1.387785 0.92512,0.925197 1.38772,2.023859 1.38778,3.29599"
         id="path3506"
         style="font-size:173.47315979px;font-style:normal;font-variant:normal;font-weight:normal;font-stretch:normal;text-align:center;line-height:100%;letter-spacing:0px;word-spacing:0px;writing-mode:lr-tb;text-anchor:middle;fill:#e6e6e6;fill-opacity:1;stroke:none;font-family:Syndrome BRK;-inkscape-font-specification:Syndrome BRK" />
      <path
         d="m 445.32786,-32.523683 c -1.2e-4,6.129397 -2.0818,10.813168 -6.24503,14.051326 -3.46958,2.775572 -7.45946,4.163356 -11.96965,4.163356 l -27.40876,0 c -1.27221,0 -2.37088,-0.40477 -3.29599,-1.214312 -0.80962,-0.925188 -1.21439,-2.02385 -1.21431,-3.29599 -8e-5,-1.272131 0.40469,-2.370793 1.21431,-3.29599 0.80946,-0.925182 1.90813,-1.387776 3.29599,-1.387785 3.46938,9e-6 6.01365,-1.214302 7.63282,-3.642937 1.04075,-1.50342 1.56117,-3.295974 1.56126,-5.377668 l 0,-82.226277 c -9e-5,-2.77547 -0.80963,-4.97279 -2.42863,-6.59198 -1.61916,-1.61897 -3.87431,-2.42852 -6.76545,-2.42862 -1.15657,1e-4 -2.1974,-0.46249 -3.12252,-1.38779 -0.92526,-0.92508 -1.38786,-2.02374 -1.38778,-3.29599 -8e-5,-1.27202 0.40469,-2.31286 1.21431,-3.12252 0.92511,-0.92507 2.02378,-1.38766 3.29599,-1.38778 l 27.40876,0 c 6.01362,1.2e-4 10.69739,2.08179 14.05132,6.24503 2.77545,3.46957 4.16324,7.45945 4.16336,11.96965 l 0,82.226277"
         id="path3491"
         style="font-size:173.47315979px;font-style:normal;font-variant:normal;font-weight:normal;font-stretch:normal;text-align:center;line-height:100%;letter-spacing:0px;word-spacing:0px;writing-mode:lr-tb;text-anchor:middle;fill:#e6e6e6;fill-opacity:1;stroke:none;font-family:Syndrome BRK;-inkscape-font-specification:Syndrome BRK" />
      <path
         d="m 506.06786,-128.45434 c -6e-5,1.1566 -0.40483,2.19744 -1.21431,3.12252 -0.8096,0.9253 -1.85044,1.38789 -3.12252,1.38778 -1.96608,0.23141 -3.29604,0.46271 -3.98988,0.69389 -3.58516,1.3879 -5.37771,4.22129 -5.37767,8.50019 l 0,82.226277 c -4e-5,4.510316 -1.33,8.44237 -3.98988,11.796175 -3.2382,4.279007 -8.03762,6.418507 -14.39827,6.418507 -6.12941,0 -10.81318,-2.081676 -14.05133,-6.245034 -2.77558,-3.469453 -4.16336,-7.459332 -4.16336,-11.969648 l 0,-82.226277 c 0,-4.5102 1.32996,-8.44225 3.98989,-11.79618 3.23815,-4.27888 7.97974,-6.41838 14.2248,-6.4185 l 27.40875,0 1.04084,0 0.6939,0.34694 c 1.96597,0.92531 2.94898,2.3131 2.94904,4.16336"
         id="path3516"
         style="font-size:173.47315979px;font-style:normal;font-variant:normal;font-weight:normal;font-stretch:normal;text-align:center;line-height:100%;letter-spacing:0px;word-spacing:0px;writing-mode:lr-tb;text-anchor:middle;fill:#e6e6e6;fill-opacity:1;stroke:none;font-family:Syndrome BRK;-inkscape-font-specification:Syndrome BRK" />
      <path
         d="m 519.77224,-128.45434 c -7e-5,1.27225 -0.46266,2.37091 -1.38779,3.29599 -0.92525,0.9253 -2.02392,1.38789 -3.29599,1.38779 -1.15655,1e-4 -2.19738,-0.46249 -3.12251,-1.38779 -0.92525,-0.92508 -1.38785,-2.02374 -1.38779,-3.29599 -6e-5,-1.27202 0.40471,-2.31286 1.21431,-3.12252 0.92513,-0.92507 2.02379,-1.38766 3.29599,-1.38778 1.27207,1.2e-4 2.37074,0.40489 3.29599,1.21431 0.92513,0.80966 1.38772,1.90832 1.38779,3.29599"
         id="path3514"
         style="font-size:173.47315979px;font-style:normal;font-variant:normal;font-weight:normal;font-stretch:normal;text-align:center;line-height:100%;letter-spacing:0px;word-spacing:0px;writing-mode:lr-tb;text-anchor:middle;fill:#e6e6e6;fill-opacity:1;stroke:none;font-family:Syndrome BRK;-inkscape-font-specification:Syndrome BRK" />
      <path
         d="m 574.41628,-32.523683 c -1.2e-4,4.510316 -1.33008,8.44237 -3.98988,11.796175 -3.23828,4.279007 -7.97988,6.418507 -14.2248,6.418507 -6.12948,0 -10.81325,-2.081676 -14.05132,-6.245034 -2.77566,-3.469453 -4.16345,-7.459332 -4.16336,-11.969648 l 0,-82.226277 c -9e-5,-2.77547 -0.80963,-4.97279 -2.42862,-6.59198 -1.61917,-1.61897 -3.87432,-2.42852 -6.76546,-2.42862 -1.15656,1e-4 -2.1974,-0.46249 -3.12251,-1.38779 -0.92527,-0.92508 -1.38786,-2.02374 -1.38779,-3.29599 -7e-5,-1.27202 0.4047,-2.31286 1.21431,-3.12252 0.92512,-0.92507 2.02378,-1.38766 3.29599,-1.38778 l 27.40876,0 c 6.01363,1.2e-4 10.6974,2.08179 14.05133,6.24503 2.77545,3.46957 4.16323,7.45945 4.16335,11.96965 l 0,82.226277"
         id="path3493"
         style="font-size:173.47315979px;font-style:normal;font-variant:normal;font-weight:normal;font-stretch:normal;text-align:center;line-height:100%;letter-spacing:0px;word-spacing:0px;writing-mode:lr-tb;text-anchor:middle;fill:#e6e6e6;fill-opacity:1;stroke:none;font-family:Syndrome BRK;-inkscape-font-specification:Syndrome BRK" />
    </g>
  </g>
</svg>
