<?xml version="1.0" encoding="UTF-8" standalone="no"?>
<svg
   xmlns:dc="http://purl.org/dc/elements/1.1/"
   xmlns:cc="http://creativecommons.org/ns#"
   xmlns:rdf="http://www.w3.org/1999/02/22-rdf-syntax-ns#"
   xmlns:svg="http://www.w3.org/2000/svg"
   xmlns="http://www.w3.org/2000/svg"
   xmlns:sodipodi="http://sodipodi.sourceforge.net/DTD/sodipodi-0.dtd"
   xmlns:inkscape="http://www.inkscape.org/namespaces/inkscape"
   width="68.791656mm"
   height="68.791656mm"
   viewBox="0 0 68.791656 68.791656"
   version="1.1"
   id="svg8"
   sodipodi:docname="icons.svg"
   inkscape:version="1.0 (4035a4fb49, 2020-05-01)">
  <defs
     id="defs2" />
  <sodipodi:namedview
     units="px"
     id="base"
     pagecolor="#ffffff"
     bordercolor="#666666"
     borderopacity="1.0"
     inkscape:pageopacity="0.0"
     inkscape:pageshadow="2"
     inkscape:zoom="0.7"
     inkscape:cx="-626.55231"
     inkscape:cy="350.73591"
     inkscape:document-units="mm"
     inkscape:current-layer="layer1"
     inkscape:document-rotation="0"
     showgrid="false"
     inkscape:window-width="2558"
     inkscape:window-height="1398"
     inkscape:window-x="0"
     inkscape:window-y="20"
     inkscape:window-maximized="1" />
  <metadata
     id="metadata5">
    <rdf:RDF>
      <cc:Work
         rdf:about="">
        <dc:format>image/svg+xml</dc:format>
        <dc:type
           rdf:resource="http://purl.org/dc/dcmitype/StillImage" />
        <dc:title></dc:title>
      </cc:Work>
    </rdf:RDF>
  </metadata>
  <g
     transform="translate(-231.11632,-36.693907)"
     inkscape:label="Layer 1"
     inkscape:groupmode="layer"
     id="layer1">
    <g
       id="nsm"
       inkscape:label="nsm"
       transform="translate(-172.56864)">
      <title
         id="title888">nsm</title>
      <rect
         y="114.63333"
         x="71.133331"
         height="67.73333"
         width="67.73333"
         id="rect10"
         style="fill:#ffffff;stroke:#000000;stroke-width:1.05833;stroke-miterlimit:4;stroke-dasharray:none;stroke-opacity:1" />
      <text
         xml:space="preserve"
         style="font-style:normal;font-weight:normal;font-size:67.6707px;line-height:1.25;font-family:sans-serif;letter-spacing:0px;word-spacing:0px;fill:#000000;fill-opacity:1;stroke:none;stroke-width:1.45009"
         x="105.32493"
         y="169.25755"
         id="text852"><tspan
           sodipodi:role="line"
           x="105.32493"
           y="169.25755"
           style="font-style:normal;font-variant:normal;font-weight:normal;font-stretch:normal;font-size:67.6707px;font-family:'Sturkopf Grotesk';-inkscape-font-specification:'Sturkopf Grotesk';text-align:center;text-anchor:middle;stroke-width:1.45009"
           id="tspan850">NSM</tspan></text>
    </g>
    <g
       transform="translate(-170.13191,80.919145)"
       inkscape:label="jackpatch"
       id="jackpatch">
      <title
         id="title890">jackpatch</title>
      <rect
         style="fill:#ffffff;stroke:#000000;stroke-width:1.05833;stroke-miterlimit:4;stroke-dasharray:none;stroke-opacity:1"
         id="rect892"
         width="67.73333"
         height="67.73333"
         x="71.133331"
         y="114.63333" />
      <text
         id="text896"
         y="165.8237"
         x="106.38719"
         style="font-style:normal;font-weight:normal;font-size:67.6707px;line-height:1.25;font-family:sans-serif;letter-spacing:0px;word-spacing:0px;fill:#000000;fill-opacity:1;stroke:none;stroke-width:1.45009"
         xml:space="preserve"><tspan
           id="tspan894"
           style="font-style:normal;font-variant:normal;font-weight:normal;font-stretch:normal;font-size:67.6707px;font-family:'Sturkopf Grotesk';-inkscape-font-specification:'Sturkopf Grotesk';text-align:center;text-anchor:middle;stroke-width:1.45009"
           y="165.8237"
           x="106.38719"
           sodipodi:role="line">JP</tspan></text>
    </g>
    <g
       id="proxy"
       inkscape:label="proxy">
      <title
         id="title940">proxy</title>
      <rect
         y="37.223072"
         x="-99.065941"
         height="67.73333"
         width="67.73333"
         id="rect902"
         style="fill:#ffffff;stroke:#000000;stroke-width:1.05833;stroke-miterlimit:4;stroke-dasharray:none;stroke-opacity:1" />
      <text
         xml:space="preserve"
         style="font-style:normal;font-weight:normal;font-size:67.6707px;line-height:1.25;font-family:sans-serif;letter-spacing:0px;word-spacing:0px;fill:#000000;fill-opacity:1;stroke:none;stroke-width:1.45009"
         x="-65.639175"
         y="93.759422"
         id="text906"><tspan
           sodipodi:role="line"
           x="-65.639175"
           y="93.759422"
           style="font-style:normal;font-variant:normal;font-weight:normal;font-stretch:normal;font-size:67.6707px;font-family:'Sturkopf Grotesk';-inkscape-font-specification:'Sturkopf Grotesk';text-align:center;text-anchor:middle;stroke-width:1.45009"
           id="tspan904">PRX</tspan></text>
    </g>
    <path
       d="m 231.64549,37.223072 h 67.73333 V 104.9564 h -67.73333 z"
       style="fill:#ffffff;stroke:#000000;stroke-width:1.05833;stroke-miterlimit:4;stroke-dasharray:none;stroke-opacity:1"
       id="rect1679" />
    <g
       style="font-style:normal;font-weight:normal;font-size:67.6707px;line-height:1.25;font-family:sans-serif;letter-spacing:0px;word-spacing:0px;fill:#000000;fill-opacity:1;stroke:none;stroke-width:1.45009"
       id="text1683"
       aria-label="PRX">
      <path
         id="path1690"
         style="font-style:normal;font-variant:normal;font-weight:normal;font-stretch:normal;font-size:67.6707px;font-family:'Sturkopf Grotesk';-inkscape-font-specification:'Sturkopf Grotesk';text-align:center;text-anchor:middle;stroke-width:1.45009"
         d="m 238.98532,48.420053 0.0677,45.339369 h 4.87229 V 72.578493 l 0.27069,-0.06767 h 4.60161 c 1.42108,0 2.63915,-0.406024 3.65421,-1.150401 1.01506,-0.744378 1.48876,-1.962451 1.48876,-3.654218 V 53.427685 c 0,-1.96245 -0.4737,-3.315864 -1.42109,-3.992571 -0.94739,-0.676707 -2.16546,-1.015061 -3.72188,-1.015061 z m 4.93996,4.872291 h 3.31587 c 0.47369,0 0.81205,0.135341 1.1504,0.473695 0.33835,0.338353 0.4737,0.744377 0.4737,1.218072 v 10.962654 c 0,0.473694 -0.13535,0.812048 -0.4737,1.150401 -0.33835,0.338354 -0.67671,0.473695 -1.1504,0.473695 h -3.31587 z" />
      <path
         id="path1692"
         style="font-style:normal;font-variant:normal;font-weight:normal;font-stretch:normal;font-size:67.6707px;font-family:'Sturkopf Grotesk';-inkscape-font-specification:'Sturkopf Grotesk';text-align:center;text-anchor:middle;stroke-width:1.45009"
         d="m 262.66997,53.292344 h 3.31586 c 0.4737,0 0.81205,0.135341 1.15041,0.473695 0.33835,0.338353 0.47369,0.744377 0.47369,1.218072 v 10.962654 c 0,0.473694 -0.13534,0.812048 -0.47369,1.150401 -0.33836,0.338354 -0.67671,0.473695 -1.15041,0.473695 h -3.31586 z m -4.93996,-4.872291 0.0677,45.339369 H 262.67 v -21.2486 h 1.21807 l 4.19559,21.2486 h 4.87229 L 268.69266,72.24014 c 0.60904,-0.203012 1.42109,-0.609037 2.50382,-1.218073 0.94739,-0.609036 1.48875,-1.759438 1.48875,-3.451206 V 53.427685 c 0,-1.285743 -0.47369,-2.436145 -1.48875,-3.518876 -1.01506,-1.015061 -2.16547,-1.488756 -3.51888,-1.488756 z" />
      <path
         id="path1694"
         style="font-style:normal;font-variant:normal;font-weight:normal;font-stretch:normal;font-size:67.6707px;font-family:'Sturkopf Grotesk';-inkscape-font-specification:'Sturkopf Grotesk';text-align:center;text-anchor:middle;stroke-width:1.45009"
         d="m 275.6627,48.420053 5.0753,23.346392 -4.80462,21.789965 h 5.00763 l 2.90984,-13.53414 2.90984,13.53414 h 4.93996 l -4.73695,-21.789965 5.07531,-23.346392 h -5.14298 l -3.04518,14.752213 -3.04518,-14.752213 z" />
    </g>
    <path
       d="m 230.75774,195.55247 h 67.73333 v 67.73333 h -67.73333 z"
       style="fill:#ffffff;stroke:#000000;stroke-width:1.05833;stroke-miterlimit:4;stroke-dasharray:none;stroke-opacity:1"
       id="rect1700" />
    <path
       d="m 256.70029,252.35951 v -50.95604 h -5.0753 v 49.46729 c 0,0.47369 -0.13534,0.81204 -0.4737,1.1504 -0.33835,0.33835 -0.6767,0.47369 -1.1504,0.47369 h -1.75944 v 4.93996 h 3.04518 c 3.58655,0 5.41366,-1.69176 5.41366,-5.0753 z"
       style="font-style:normal;font-variant:normal;font-weight:normal;font-stretch:normal;font-size:67.6707px;line-height:1.25;font-family:'Sturkopf Grotesk';-inkscape-font-specification:'Sturkopf Grotesk';text-align:center;letter-spacing:0px;word-spacing:0px;text-anchor:middle;fill:#000000;fill-opacity:1;stroke:none;stroke-width:1.45009"
       id="path1712" />
    <path
       d="m 266.05212,201.40347 0.0677,45.33937 h 4.87229 v -21.18093 l 0.27068,-0.0677 h 4.60161 c 1.42108,0 2.63916,-0.40602 3.65422,-1.1504 1.01506,-0.74438 1.48875,-1.96245 1.48875,-3.65422 v -14.27851 c 0,-1.96245 -0.47369,-3.31587 -1.42108,-3.99257 -0.94739,-0.67671 -2.16546,-1.01507 -3.72189,-1.01507 z m 4.93996,4.87229 h 3.31586 c 0.4737,0 0.81205,0.13535 1.1504,0.4737 0.33836,0.33835 0.4737,0.74438 0.4737,1.21807 v 10.96266 c 0,0.47369 -0.13534,0.81204 -0.4737,1.1504 -0.33835,0.33835 -0.6767,0.47369 -1.1504,0.47369 h -3.31586 z"
       style="font-style:normal;font-variant:normal;font-weight:normal;font-stretch:normal;font-size:67.6707px;line-height:1.25;font-family:'Sturkopf Grotesk';-inkscape-font-specification:'Sturkopf Grotesk';text-align:center;letter-spacing:0px;word-spacing:0px;text-anchor:middle;fill:#000000;fill-opacity:1;stroke:none;stroke-width:1.45009"
       id="path1714" />
  </g>
</svg>
